M48
; DRILL file {KiCad (5.1.12)-1} date 06/26/23 22:46:49
; FORMAT={-:-/ absolute / inch / decimal}
; #@! TF.CreationDate,2023-06-26T22:46:49-03:00
; #@! TF.GenerationSoftware,Kicad,Pcbnew,(5.1.12)-1
; #@! TF.FileFunction,Plated,1,2,PTH
FMAT,2
INCH
T1C0.0236
T2C0.0276
T3C0.0315
T4C0.0394
T5C0.1575
%
G90
G05
T1
X5.4528Y-5.4134
X5.5118Y-5.4134
T2
X5.2953Y-6.2008
X5.5709Y-6.2008
X5.7087Y-4.9213
X5.7087Y-5.1969
X6.1811Y-5.3937
X6.1811Y-5.6693
X6.378Y-5.4134
X6.378Y-5.6102
T3
X5.1165Y-5.8677
X5.1476Y-5.2559
X5.2165Y-5.6677
X5.2854Y-5.2559
X5.3165Y-5.8677
X5.6768Y-5.4134
X5.6768Y-5.5134
X5.6768Y-5.6134
X5.6768Y-5.7134
X5.6768Y-5.8134
X5.6768Y-5.9134
X5.6768Y-6.0134
X5.8843Y-5.1
X5.9768Y-5.4134
X5.9768Y-5.5134
X5.9768Y-5.6134
X5.9768Y-5.7134
X5.9768Y-5.8134
X5.9768Y-5.9134
X5.9768Y-6.0134
X5.9843Y-4.9
X6.0843Y-5.1
T4
X5.4512Y-4.8425
X5.5512Y-4.8425
X6.3386Y-5.1362
X6.3386Y-5.2362
T5
X5.1181Y-4.9213
X5.1181Y-6.1024
X6.2992Y-4.9213
X6.2992Y-6.1024
T0
M30
