%TF.GenerationSoftware,KiCad,Pcbnew,(5.1.12)-1*%
%TF.CreationDate,2023-06-26T22:46:53-03:00*%
%TF.ProjectId,P230523A10 - CONTROLE,50323330-3532-4334-9131-30202d20434f,rev?*%
%TF.SameCoordinates,Original*%
%TF.FileFunction,Legend,Top*%
%TF.FilePolarity,Positive*%
%FSLAX46Y46*%
G04 Gerber Fmt 4.6, Leading zero omitted, Abs format (unit mm)*
G04 Created by KiCad (PCBNEW (5.1.12)-1) date 2023-06-26 22:46:53*
%MOMM*%
%LPD*%
G01*
G04 APERTURE LIST*
%ADD10C,0.300000*%
%ADD11C,0.200000*%
%ADD12C,0.100000*%
%ADD13C,0.180000*%
%ADD14C,0.150000*%
G04 APERTURE END LIST*
D10*
X143750000Y-158178571D02*
X143750000Y-156678571D01*
X144321428Y-156678571D01*
X144464285Y-156750000D01*
X144535714Y-156821428D01*
X144607142Y-156964285D01*
X144607142Y-157178571D01*
X144535714Y-157321428D01*
X144464285Y-157392857D01*
X144321428Y-157464285D01*
X143750000Y-157464285D01*
X145178571Y-156821428D02*
X145250000Y-156750000D01*
X145392857Y-156678571D01*
X145750000Y-156678571D01*
X145892857Y-156750000D01*
X145964285Y-156821428D01*
X146035714Y-156964285D01*
X146035714Y-157107142D01*
X145964285Y-157321428D01*
X145107142Y-158178571D01*
X146035714Y-158178571D01*
X146535714Y-156678571D02*
X147464285Y-156678571D01*
X146964285Y-157250000D01*
X147178571Y-157250000D01*
X147321428Y-157321428D01*
X147392857Y-157392857D01*
X147464285Y-157535714D01*
X147464285Y-157892857D01*
X147392857Y-158035714D01*
X147321428Y-158107142D01*
X147178571Y-158178571D01*
X146750000Y-158178571D01*
X146607142Y-158107142D01*
X146535714Y-158035714D01*
X148392857Y-156678571D02*
X148535714Y-156678571D01*
X148678571Y-156750000D01*
X148750000Y-156821428D01*
X148821428Y-156964285D01*
X148892857Y-157250000D01*
X148892857Y-157607142D01*
X148821428Y-157892857D01*
X148750000Y-158035714D01*
X148678571Y-158107142D01*
X148535714Y-158178571D01*
X148392857Y-158178571D01*
X148250000Y-158107142D01*
X148178571Y-158035714D01*
X148107142Y-157892857D01*
X148035714Y-157607142D01*
X148035714Y-157250000D01*
X148107142Y-156964285D01*
X148178571Y-156821428D01*
X148250000Y-156750000D01*
X148392857Y-156678571D01*
X150250000Y-156678571D02*
X149535714Y-156678571D01*
X149464285Y-157392857D01*
X149535714Y-157321428D01*
X149678571Y-157250000D01*
X150035714Y-157250000D01*
X150178571Y-157321428D01*
X150250000Y-157392857D01*
X150321428Y-157535714D01*
X150321428Y-157892857D01*
X150250000Y-158035714D01*
X150178571Y-158107142D01*
X150035714Y-158178571D01*
X149678571Y-158178571D01*
X149535714Y-158107142D01*
X149464285Y-158035714D01*
X150892857Y-156821428D02*
X150964285Y-156750000D01*
X151107142Y-156678571D01*
X151464285Y-156678571D01*
X151607142Y-156750000D01*
X151678571Y-156821428D01*
X151750000Y-156964285D01*
X151750000Y-157107142D01*
X151678571Y-157321428D01*
X150821428Y-158178571D01*
X151750000Y-158178571D01*
X152250000Y-156678571D02*
X153178571Y-156678571D01*
X152678571Y-157250000D01*
X152892857Y-157250000D01*
X153035714Y-157321428D01*
X153107142Y-157392857D01*
X153178571Y-157535714D01*
X153178571Y-157892857D01*
X153107142Y-158035714D01*
X153035714Y-158107142D01*
X152892857Y-158178571D01*
X152464285Y-158178571D01*
X152321428Y-158107142D01*
X152250000Y-158035714D01*
X153750000Y-157750000D02*
X154464285Y-157750000D01*
X153607142Y-158178571D02*
X154107142Y-156678571D01*
X154607142Y-158178571D01*
X155892857Y-158178571D02*
X155035714Y-158178571D01*
X155464285Y-158178571D02*
X155464285Y-156678571D01*
X155321428Y-156892857D01*
X155178571Y-157035714D01*
X155035714Y-157107142D01*
X156821428Y-156678571D02*
X156964285Y-156678571D01*
X157107142Y-156750000D01*
X157178571Y-156821428D01*
X157250000Y-156964285D01*
X157321428Y-157250000D01*
X157321428Y-157607142D01*
X157250000Y-157892857D01*
X157178571Y-158035714D01*
X157107142Y-158107142D01*
X156964285Y-158178571D01*
X156821428Y-158178571D01*
X156678571Y-158107142D01*
X156607142Y-158035714D01*
X156535714Y-157892857D01*
X156464285Y-157607142D01*
X156464285Y-157250000D01*
X156535714Y-156964285D01*
X156607142Y-156821428D01*
X156678571Y-156750000D01*
X156821428Y-156678571D01*
D11*
%TO.C,C1*%
X139250000Y-137500000D02*
G75*
G03*
X139250000Y-137500000I-750000J0D01*
G01*
X141250000Y-137500000D02*
G75*
G03*
X141250000Y-137500000I-2000000J0D01*
G01*
%TO.C,C2*%
X136500312Y-133500000D02*
G75*
G03*
X136500312Y-133500000I-4000811J0D01*
G01*
X135148613Y-133500000D02*
G75*
G03*
X135148613Y-133500000I-900000J0D01*
G01*
%TO.C,C5*%
X160750000Y-136350000D02*
X163250000Y-136350000D01*
X160750000Y-143650000D02*
X160750000Y-136350000D01*
X163250000Y-143650000D02*
X160750000Y-143650000D01*
X163250000Y-136350000D02*
X163250000Y-143650000D01*
%TO.C,CI1*%
X150794000Y-154264000D02*
X150794000Y-135976000D01*
X145206000Y-135976000D02*
X145206000Y-154264000D01*
X150794000Y-135976000D02*
X145206000Y-135976000D01*
X150794000Y-154264000D02*
X145206000Y-154264000D01*
D12*
G36*
X145206000Y-137500000D02*
G01*
X145206000Y-135976000D01*
X150794000Y-135976000D01*
X150794000Y-137500000D01*
X145206000Y-137500000D01*
G37*
X145206000Y-137500000D02*
X145206000Y-135976000D01*
X150794000Y-135976000D01*
X150794000Y-137500000D01*
X145206000Y-137500000D01*
D11*
%TO.C,JP1*%
X142270000Y-124270000D02*
X137190000Y-124270000D01*
X137190000Y-124270000D02*
X137190000Y-121730000D01*
X137190000Y-121730000D02*
X142270000Y-121730000D01*
X142270000Y-121730000D02*
X142270000Y-124270000D01*
%TO.C,JP2*%
X162270000Y-134270000D02*
X159730000Y-134270000D01*
X162270000Y-129190000D02*
X162270000Y-134270000D01*
X159730000Y-129190000D02*
X162270000Y-129190000D01*
X159730000Y-134270000D02*
X159730000Y-129190000D01*
%TO.C,P1*%
X137200000Y-151200000D02*
X127800000Y-151200000D01*
X127800000Y-151200000D02*
X127800000Y-141800000D01*
X127800000Y-141800000D02*
X137200000Y-141800000D01*
X137200000Y-141800000D02*
X137200000Y-151200000D01*
X136056000Y-149040000D02*
G75*
G03*
X136056000Y-149040000I-1016000J0D01*
G01*
%TO.C,P2*%
X155556000Y-129540000D02*
G75*
G03*
X155556000Y-129540000I-1016000J0D01*
G01*
X156700000Y-122300000D02*
X156700000Y-131700000D01*
X147300000Y-122300000D02*
X156700000Y-122300000D01*
X147300000Y-131700000D02*
X147300000Y-122300000D01*
X156700000Y-131700000D02*
X147300000Y-131700000D01*
%TO.C,R3*%
X157000000Y-142200000D02*
X157000000Y-143100000D01*
X157000000Y-138800000D02*
X157000000Y-137900000D01*
X158000000Y-142200000D02*
X158000000Y-138800000D01*
X156000000Y-142200000D02*
X158000000Y-142200000D01*
X156000000Y-138800000D02*
X156000000Y-142200000D01*
X158000000Y-138800000D02*
X156000000Y-138800000D01*
%TO.C,R4*%
X146000000Y-126800000D02*
X144000000Y-126800000D01*
X144000000Y-126800000D02*
X144000000Y-130200000D01*
X144000000Y-130200000D02*
X146000000Y-130200000D01*
X146000000Y-130200000D02*
X146000000Y-126800000D01*
X145000000Y-126800000D02*
X145000000Y-125900000D01*
X145000000Y-130200000D02*
X145000000Y-131100000D01*
%TO.C,R5*%
X139700000Y-157500000D02*
X140600000Y-157500000D01*
X136300000Y-157500000D02*
X135400000Y-157500000D01*
X139700000Y-156500000D02*
X136300000Y-156500000D01*
X139700000Y-158500000D02*
X139700000Y-156500000D01*
X136300000Y-158500000D02*
X139700000Y-158500000D01*
X136300000Y-156500000D02*
X136300000Y-158500000D01*
%TO.C,C1*%
D13*
X138983333Y-140907142D02*
X138935714Y-140954761D01*
X138792857Y-141002380D01*
X138697619Y-141002380D01*
X138554761Y-140954761D01*
X138459523Y-140859523D01*
X138411904Y-140764285D01*
X138364285Y-140573809D01*
X138364285Y-140430952D01*
X138411904Y-140240476D01*
X138459523Y-140145238D01*
X138554761Y-140050000D01*
X138697619Y-140002380D01*
X138792857Y-140002380D01*
X138935714Y-140050000D01*
X138983333Y-140097619D01*
X139935714Y-141002380D02*
X139364285Y-141002380D01*
X139650000Y-141002380D02*
X139650000Y-140002380D01*
X139554761Y-140145238D01*
X139459523Y-140240476D01*
X139364285Y-140288095D01*
D14*
X141619047Y-136571428D02*
X142380952Y-136571428D01*
X142000000Y-136952380D02*
X142000000Y-136190476D01*
%TO.C,C2*%
D13*
X132333333Y-128857142D02*
X132285714Y-128904761D01*
X132142857Y-128952380D01*
X132047619Y-128952380D01*
X131904761Y-128904761D01*
X131809523Y-128809523D01*
X131761904Y-128714285D01*
X131714285Y-128523809D01*
X131714285Y-128380952D01*
X131761904Y-128190476D01*
X131809523Y-128095238D01*
X131904761Y-128000000D01*
X132047619Y-127952380D01*
X132142857Y-127952380D01*
X132285714Y-128000000D01*
X132333333Y-128047619D01*
X132714285Y-128047619D02*
X132761904Y-128000000D01*
X132857142Y-127952380D01*
X133095238Y-127952380D01*
X133190476Y-128000000D01*
X133238095Y-128047619D01*
X133285714Y-128142857D01*
X133285714Y-128238095D01*
X133238095Y-128380952D01*
X132666666Y-128952380D01*
X133285714Y-128952380D01*
D14*
X127242857Y-133585714D02*
X128157142Y-133585714D01*
X127700000Y-134042857D02*
X127700000Y-133128571D01*
%TO.C,C5*%
D13*
X161833333Y-145357142D02*
X161785714Y-145404761D01*
X161642857Y-145452380D01*
X161547619Y-145452380D01*
X161404761Y-145404761D01*
X161309523Y-145309523D01*
X161261904Y-145214285D01*
X161214285Y-145023809D01*
X161214285Y-144880952D01*
X161261904Y-144690476D01*
X161309523Y-144595238D01*
X161404761Y-144500000D01*
X161547619Y-144452380D01*
X161642857Y-144452380D01*
X161785714Y-144500000D01*
X161833333Y-144547619D01*
X162738095Y-144452380D02*
X162261904Y-144452380D01*
X162214285Y-144928571D01*
X162261904Y-144880952D01*
X162357142Y-144833333D01*
X162595238Y-144833333D01*
X162690476Y-144880952D01*
X162738095Y-144928571D01*
X162785714Y-145023809D01*
X162785714Y-145261904D01*
X162738095Y-145357142D01*
X162690476Y-145404761D01*
X162595238Y-145452380D01*
X162357142Y-145452380D01*
X162261904Y-145404761D01*
X162214285Y-145357142D01*
%TO.C,CI1*%
D11*
X144439523Y-135357142D02*
X144391904Y-135404761D01*
X144249047Y-135452380D01*
X144153809Y-135452380D01*
X144010952Y-135404761D01*
X143915714Y-135309523D01*
X143868095Y-135214285D01*
X143820476Y-135023809D01*
X143820476Y-134880952D01*
X143868095Y-134690476D01*
X143915714Y-134595238D01*
X144010952Y-134500000D01*
X144153809Y-134452380D01*
X144249047Y-134452380D01*
X144391904Y-134500000D01*
X144439523Y-134547619D01*
X144868095Y-135452380D02*
X144868095Y-134452380D01*
X145868095Y-135452380D02*
X145296666Y-135452380D01*
X145582380Y-135452380D02*
X145582380Y-134452380D01*
X145487142Y-134595238D01*
X145391904Y-134690476D01*
X145296666Y-134738095D01*
%TO.C,JP1*%
D13*
X134640809Y-122452380D02*
X134640809Y-123166666D01*
X134593190Y-123309523D01*
X134497952Y-123404761D01*
X134355095Y-123452380D01*
X134259857Y-123452380D01*
X135117000Y-123452380D02*
X135117000Y-122452380D01*
X135497952Y-122452380D01*
X135593190Y-122500000D01*
X135640809Y-122547619D01*
X135688428Y-122642857D01*
X135688428Y-122785714D01*
X135640809Y-122880952D01*
X135593190Y-122928571D01*
X135497952Y-122976190D01*
X135117000Y-122976190D01*
X136640809Y-123452380D02*
X136069380Y-123452380D01*
X136355095Y-123452380D02*
X136355095Y-122452380D01*
X136259857Y-122595238D01*
X136164619Y-122690476D01*
X136069380Y-122738095D01*
%TO.C,JP2*%
X157952380Y-133359190D02*
X158666666Y-133359190D01*
X158809523Y-133406809D01*
X158904761Y-133502047D01*
X158952380Y-133644904D01*
X158952380Y-133740142D01*
X158952380Y-132883000D02*
X157952380Y-132883000D01*
X157952380Y-132502047D01*
X158000000Y-132406809D01*
X158047619Y-132359190D01*
X158142857Y-132311571D01*
X158285714Y-132311571D01*
X158380952Y-132359190D01*
X158428571Y-132406809D01*
X158476190Y-132502047D01*
X158476190Y-132883000D01*
X158047619Y-131930619D02*
X158000000Y-131883000D01*
X157952380Y-131787761D01*
X157952380Y-131549666D01*
X158000000Y-131454428D01*
X158047619Y-131406809D01*
X158142857Y-131359190D01*
X158238095Y-131359190D01*
X158380952Y-131406809D01*
X158952380Y-131978238D01*
X158952380Y-131359190D01*
%TO.C,P1*%
X135621714Y-153302380D02*
X135621714Y-152302380D01*
X136002666Y-152302380D01*
X136097904Y-152350000D01*
X136145523Y-152397619D01*
X136193142Y-152492857D01*
X136193142Y-152635714D01*
X136145523Y-152730952D01*
X136097904Y-152778571D01*
X136002666Y-152826190D01*
X135621714Y-152826190D01*
X137145523Y-153302380D02*
X136574095Y-153302380D01*
X136859809Y-153302380D02*
X136859809Y-152302380D01*
X136764571Y-152445238D01*
X136669333Y-152540476D01*
X136574095Y-152588095D01*
%TO.C,P2*%
X155168714Y-133452380D02*
X155168714Y-132452380D01*
X155549666Y-132452380D01*
X155644904Y-132500000D01*
X155692523Y-132547619D01*
X155740142Y-132642857D01*
X155740142Y-132785714D01*
X155692523Y-132880952D01*
X155644904Y-132928571D01*
X155549666Y-132976190D01*
X155168714Y-132976190D01*
X156121095Y-132547619D02*
X156168714Y-132500000D01*
X156263952Y-132452380D01*
X156502047Y-132452380D01*
X156597285Y-132500000D01*
X156644904Y-132547619D01*
X156692523Y-132642857D01*
X156692523Y-132738095D01*
X156644904Y-132880952D01*
X156073476Y-133452380D01*
X156692523Y-133452380D01*
%TO.C,R3*%
X156833333Y-146452380D02*
X156500000Y-145976190D01*
X156261904Y-146452380D02*
X156261904Y-145452380D01*
X156642857Y-145452380D01*
X156738095Y-145500000D01*
X156785714Y-145547619D01*
X156833333Y-145642857D01*
X156833333Y-145785714D01*
X156785714Y-145880952D01*
X156738095Y-145928571D01*
X156642857Y-145976190D01*
X156261904Y-145976190D01*
X157166666Y-145452380D02*
X157785714Y-145452380D01*
X157452380Y-145833333D01*
X157595238Y-145833333D01*
X157690476Y-145880952D01*
X157738095Y-145928571D01*
X157785714Y-146023809D01*
X157785714Y-146261904D01*
X157738095Y-146357142D01*
X157690476Y-146404761D01*
X157595238Y-146452380D01*
X157309523Y-146452380D01*
X157214285Y-146404761D01*
X157166666Y-146357142D01*
%TO.C,R4*%
X142333333Y-127952380D02*
X142000000Y-127476190D01*
X141761904Y-127952380D02*
X141761904Y-126952380D01*
X142142857Y-126952380D01*
X142238095Y-127000000D01*
X142285714Y-127047619D01*
X142333333Y-127142857D01*
X142333333Y-127285714D01*
X142285714Y-127380952D01*
X142238095Y-127428571D01*
X142142857Y-127476190D01*
X141761904Y-127476190D01*
X143190476Y-127285714D02*
X143190476Y-127952380D01*
X142952380Y-126904761D02*
X142714285Y-127619047D01*
X143333333Y-127619047D01*
%TO.C,R5*%
X137833333Y-155452380D02*
X137500000Y-154976190D01*
X137261904Y-155452380D02*
X137261904Y-154452380D01*
X137642857Y-154452380D01*
X137738095Y-154500000D01*
X137785714Y-154547619D01*
X137833333Y-154642857D01*
X137833333Y-154785714D01*
X137785714Y-154880952D01*
X137738095Y-154928571D01*
X137642857Y-154976190D01*
X137261904Y-154976190D01*
X138738095Y-154452380D02*
X138261904Y-154452380D01*
X138214285Y-154928571D01*
X138261904Y-154880952D01*
X138357142Y-154833333D01*
X138595238Y-154833333D01*
X138690476Y-154880952D01*
X138738095Y-154928571D01*
X138785714Y-155023809D01*
X138785714Y-155261904D01*
X138738095Y-155357142D01*
X138690476Y-155404761D01*
X138595238Y-155452380D01*
X138357142Y-155452380D01*
X138261904Y-155404761D01*
X138214285Y-155357142D01*
%TD*%
M02*
