%TF.GenerationSoftware,KiCad,Pcbnew,(5.1.12)-1*%
%TF.CreationDate,2023-06-26T22:50:23-03:00*%
%TF.ProjectId,P230523C10 - Fonte,50323330-3532-4334-9331-30202d20466f,rev?*%
%TF.SameCoordinates,Original*%
%TF.FileFunction,Copper,L2,Bot*%
%TF.FilePolarity,Positive*%
%FSLAX46Y46*%
G04 Gerber Fmt 4.6, Leading zero omitted, Abs format (unit mm)*
G04 Created by KiCad (PCBNEW (5.1.12)-1) date 2023-06-26 22:50:23*
%MOMM*%
%LPD*%
G01*
G04 APERTURE LIST*
%TA.AperFunction,ComponentPad*%
%ADD10C,1.800000*%
%TD*%
%TA.AperFunction,ComponentPad*%
%ADD11C,1.400000*%
%TD*%
%TA.AperFunction,ComponentPad*%
%ADD12C,2.600000*%
%TD*%
%TA.AperFunction,ComponentPad*%
%ADD13C,2.200000*%
%TD*%
%TA.AperFunction,ComponentPad*%
%ADD14C,1.500000*%
%TD*%
%TA.AperFunction,ViaPad*%
%ADD15C,4.500000*%
%TD*%
%TA.AperFunction,Conductor*%
%ADD16C,1.000000*%
%TD*%
%TA.AperFunction,Conductor*%
%ADD17C,0.250000*%
%TD*%
%TA.AperFunction,Conductor*%
%ADD18C,0.300000*%
%TD*%
%TA.AperFunction,Conductor*%
%ADD19C,0.254000*%
%TD*%
%TA.AperFunction,Conductor*%
%ADD20C,0.100000*%
%TD*%
G04 APERTURE END LIST*
%TO.P,CI2,2*%
%TO.N,GND*%
%TA.AperFunction,ComponentPad*%
G36*
G01*
X166250000Y-104100000D02*
X167750000Y-104100000D01*
G75*
G02*
X168200000Y-104550000I0J-450000D01*
G01*
X168200000Y-105450000D01*
G75*
G02*
X167750000Y-105900000I-450000J0D01*
G01*
X166250000Y-105900000D01*
G75*
G02*
X165800000Y-105450000I0J450000D01*
G01*
X165800000Y-104550000D01*
G75*
G02*
X166250000Y-104100000I450000J0D01*
G01*
G37*
%TD.AperFunction*%
%TO.P,CI2,1*%
%TO.N,+VCC*%
%TA.AperFunction,ComponentPad*%
G36*
G01*
X166250000Y-101560000D02*
X167750000Y-101560000D01*
G75*
G02*
X168200000Y-102010000I0J-450000D01*
G01*
X168200000Y-102910000D01*
G75*
G02*
X167750000Y-103360000I-450000J0D01*
G01*
X166250000Y-103360000D01*
G75*
G02*
X165800000Y-102910000I0J450000D01*
G01*
X165800000Y-102010000D01*
G75*
G02*
X166250000Y-101560000I450000J0D01*
G01*
G37*
%TD.AperFunction*%
%TO.P,CI2,3*%
%TO.N,+9.0V*%
%TA.AperFunction,ComponentPad*%
G36*
G01*
X166250000Y-106640000D02*
X167750000Y-106640000D01*
G75*
G02*
X168200000Y-107090000I0J-450000D01*
G01*
X168200000Y-107990000D01*
G75*
G02*
X167750000Y-108440000I-450000J0D01*
G01*
X166250000Y-108440000D01*
G75*
G02*
X165800000Y-107990000I0J450000D01*
G01*
X165800000Y-107090000D01*
G75*
G02*
X166250000Y-106640000I450000J0D01*
G01*
G37*
%TD.AperFunction*%
%TD*%
D10*
%TO.P,C3,1*%
%TO.N,+VCC*%
X154500000Y-105000000D03*
%TO.P,C3,2*%
%TO.N,GND*%
X159500000Y-105000000D03*
%TD*%
D11*
%TO.P,C7,1*%
%TO.N,+9.0V*%
X156000000Y-114000000D03*
%TO.P,C7,2*%
%TO.N,GND*%
X158050000Y-114000000D03*
%TD*%
D12*
%TO.P,CN4,1*%
%TO.N,Net-(CN4-Pad1)*%
X127000000Y-103500000D03*
%TO.P,CN4,2*%
%TO.N,Net-(CN4-Pad2)*%
X127000000Y-108500000D03*
%TD*%
D13*
%TO.P,D3,1*%
%TO.N,+VCC*%
X146300000Y-100600000D03*
%TO.P,D3,2*%
%TO.N,Net-(CN4-Pad1)*%
X135700000Y-100600000D03*
%TD*%
%TO.P,D4,2*%
%TO.N,Net-(CN4-Pad2)*%
X135700000Y-96500000D03*
%TO.P,D4,1*%
%TO.N,+VCC*%
X146300000Y-96500000D03*
%TD*%
%TO.P,D5,1*%
%TO.N,Net-(CN4-Pad1)*%
X132300000Y-114400000D03*
%TO.P,D5,2*%
%TO.N,GND*%
X142900000Y-114400000D03*
%TD*%
%TO.P,D6,2*%
%TO.N,GND*%
X146300000Y-92600000D03*
%TO.P,D6,1*%
%TO.N,Net-(CN4-Pad2)*%
X135700000Y-92600000D03*
%TD*%
D11*
%TO.P,LD3,1*%
%TO.N,GND*%
X142930000Y-108800000D03*
%TO.P,LD3,2*%
%TO.N,Net-(LD3-Pad2)*%
X145470000Y-108800000D03*
%TD*%
D14*
%TO.P,R8,1*%
%TO.N,Net-(LD3-Pad2)*%
X149800000Y-108800000D03*
%TO.P,R8,2*%
%TO.N,+VCC*%
X149800000Y-101800000D03*
%TD*%
D15*
%TO.N,*%
X167000000Y-93000000D03*
X167000000Y-117000000D03*
X125000000Y-93000000D03*
X125000000Y-117000000D03*
%TD*%
D16*
%TO.N,+VCC*%
X146300000Y-96500000D02*
X146300000Y-100600000D01*
X149600000Y-102000000D02*
X149800000Y-101800000D01*
X147700000Y-102000000D02*
X149600000Y-102000000D01*
X146300000Y-100600000D02*
X147700000Y-102000000D01*
X151300000Y-101800000D02*
X154500000Y-105000000D01*
X149800000Y-101800000D02*
X151300000Y-101800000D01*
X156000000Y-105000000D02*
X154500000Y-105000000D01*
X160000000Y-101000000D02*
X156000000Y-105000000D01*
X165540000Y-101000000D02*
X160000000Y-101000000D01*
X167000000Y-102460000D02*
X165540000Y-101000000D01*
%TO.N,+9.0V*%
X167000000Y-111000000D02*
X167000000Y-107540000D01*
X161000000Y-117000000D02*
X167000000Y-111000000D01*
X157000000Y-117000000D02*
X161000000Y-117000000D01*
X156000000Y-116000000D02*
X157000000Y-117000000D01*
X156000000Y-114000000D02*
X156000000Y-116000000D01*
D17*
%TO.N,Net-(CN4-Pad1)*%
X132300000Y-114300000D02*
X132300000Y-114400000D01*
X135500000Y-100600000D02*
X135700000Y-100600000D01*
D18*
X132800000Y-103500000D02*
X135700000Y-100600000D01*
X127000000Y-103500000D02*
X132800000Y-103500000D01*
X132300000Y-108800000D02*
X127000000Y-103500000D01*
X132300000Y-114400000D02*
X132300000Y-108800000D01*
D17*
%TO.N,Net-(CN4-Pad2)*%
X127500000Y-108100000D02*
X127400000Y-108100000D01*
D18*
X135700000Y-92600000D02*
X135700000Y-96500000D01*
X124000000Y-98900000D02*
X126400000Y-96500000D01*
X124000000Y-105500000D02*
X124000000Y-98900000D01*
X126400000Y-96500000D02*
X135700000Y-96500000D01*
X127000000Y-108500000D02*
X124000000Y-105500000D01*
%TO.N,Net-(LD3-Pad2)*%
X145470000Y-108800000D02*
X149800000Y-108800000D01*
%TD*%
D19*
%TO.N,GND*%
X170873000Y-120873000D02*
X121127000Y-120873000D01*
X121127000Y-116715852D01*
X122115000Y-116715852D01*
X122115000Y-117284148D01*
X122225869Y-117841523D01*
X122443346Y-118366560D01*
X122759074Y-118839080D01*
X123160920Y-119240926D01*
X123633440Y-119556654D01*
X124158477Y-119774131D01*
X124715852Y-119885000D01*
X125284148Y-119885000D01*
X125841523Y-119774131D01*
X126366560Y-119556654D01*
X126839080Y-119240926D01*
X127240926Y-118839080D01*
X127556654Y-118366560D01*
X127774131Y-117841523D01*
X127885000Y-117284148D01*
X127885000Y-116715852D01*
X127774131Y-116158477D01*
X127556654Y-115633440D01*
X127240926Y-115160920D01*
X126839080Y-114759074D01*
X126366560Y-114443346D01*
X125841523Y-114225869D01*
X125284148Y-114115000D01*
X124715852Y-114115000D01*
X124158477Y-114225869D01*
X123633440Y-114443346D01*
X123160920Y-114759074D01*
X122759074Y-115160920D01*
X122443346Y-115633440D01*
X122225869Y-116158477D01*
X122115000Y-116715852D01*
X121127000Y-116715852D01*
X121127000Y-98900000D01*
X123211203Y-98900000D01*
X123215001Y-98938563D01*
X123215000Y-105461447D01*
X123211203Y-105500000D01*
X123215000Y-105538553D01*
X123215000Y-105538560D01*
X123226359Y-105653886D01*
X123271246Y-105801859D01*
X123344138Y-105938232D01*
X123442236Y-106057764D01*
X123472190Y-106082347D01*
X125193858Y-107804015D01*
X125139361Y-107935581D01*
X125065000Y-108309419D01*
X125065000Y-108690581D01*
X125139361Y-109064419D01*
X125285225Y-109416566D01*
X125496987Y-109733491D01*
X125766509Y-110003013D01*
X126083434Y-110214775D01*
X126435581Y-110360639D01*
X126809419Y-110435000D01*
X127190581Y-110435000D01*
X127564419Y-110360639D01*
X127916566Y-110214775D01*
X128233491Y-110003013D01*
X128503013Y-109733491D01*
X128714775Y-109416566D01*
X128860639Y-109064419D01*
X128935000Y-108690581D01*
X128935000Y-108309419D01*
X128860639Y-107935581D01*
X128714775Y-107583434D01*
X128503013Y-107266509D01*
X128233491Y-106996987D01*
X127916566Y-106785225D01*
X127564419Y-106639361D01*
X127190581Y-106565000D01*
X126809419Y-106565000D01*
X126435581Y-106639361D01*
X126304015Y-106693858D01*
X124785000Y-105174843D01*
X124785000Y-103309419D01*
X125065000Y-103309419D01*
X125065000Y-103690581D01*
X125139361Y-104064419D01*
X125285225Y-104416566D01*
X125496987Y-104733491D01*
X125766509Y-105003013D01*
X126083434Y-105214775D01*
X126435581Y-105360639D01*
X126809419Y-105435000D01*
X127190581Y-105435000D01*
X127564419Y-105360639D01*
X127695985Y-105306142D01*
X131515001Y-109125158D01*
X131515000Y-112847207D01*
X131478169Y-112862463D01*
X131194002Y-113052337D01*
X130952337Y-113294002D01*
X130762463Y-113578169D01*
X130631675Y-113893919D01*
X130565000Y-114229117D01*
X130565000Y-114570883D01*
X130631675Y-114906081D01*
X130762463Y-115221831D01*
X130952337Y-115505998D01*
X131194002Y-115747663D01*
X131478169Y-115937537D01*
X131793919Y-116068325D01*
X132129117Y-116135000D01*
X132470883Y-116135000D01*
X132806081Y-116068325D01*
X133121831Y-115937537D01*
X133405998Y-115747663D01*
X133546949Y-115606712D01*
X141872893Y-115606712D01*
X141980726Y-115881338D01*
X142287384Y-116032216D01*
X142617585Y-116120369D01*
X142958639Y-116142409D01*
X143297439Y-116097489D01*
X143620966Y-115987336D01*
X143819274Y-115881338D01*
X143927107Y-115606712D01*
X142900000Y-114579605D01*
X141872893Y-115606712D01*
X133546949Y-115606712D01*
X133647663Y-115505998D01*
X133837537Y-115221831D01*
X133968325Y-114906081D01*
X134035000Y-114570883D01*
X134035000Y-114458639D01*
X141157591Y-114458639D01*
X141202511Y-114797439D01*
X141312664Y-115120966D01*
X141418662Y-115319274D01*
X141693288Y-115427107D01*
X142720395Y-114400000D01*
X143079605Y-114400000D01*
X144106712Y-115427107D01*
X144381338Y-115319274D01*
X144532216Y-115012616D01*
X144620369Y-114682415D01*
X144642409Y-114341361D01*
X144597489Y-114002561D01*
X144551850Y-113868514D01*
X154665000Y-113868514D01*
X154665000Y-114131486D01*
X154716304Y-114389405D01*
X154816939Y-114632359D01*
X154865000Y-114704288D01*
X154865001Y-115944239D01*
X154859509Y-116000000D01*
X154881423Y-116222498D01*
X154946324Y-116436446D01*
X154946325Y-116436447D01*
X155051717Y-116633623D01*
X155193552Y-116806449D01*
X155236859Y-116841991D01*
X156158013Y-117763145D01*
X156193551Y-117806449D01*
X156236854Y-117841987D01*
X156236856Y-117841989D01*
X156366377Y-117948284D01*
X156563553Y-118053676D01*
X156777501Y-118118577D01*
X157000000Y-118140491D01*
X157055752Y-118135000D01*
X160944249Y-118135000D01*
X161000000Y-118140491D01*
X161055751Y-118135000D01*
X161055752Y-118135000D01*
X161222499Y-118118577D01*
X161436447Y-118053676D01*
X161633623Y-117948284D01*
X161806449Y-117806449D01*
X161841996Y-117763135D01*
X162889279Y-116715852D01*
X164115000Y-116715852D01*
X164115000Y-117284148D01*
X164225869Y-117841523D01*
X164443346Y-118366560D01*
X164759074Y-118839080D01*
X165160920Y-119240926D01*
X165633440Y-119556654D01*
X166158477Y-119774131D01*
X166715852Y-119885000D01*
X167284148Y-119885000D01*
X167841523Y-119774131D01*
X168366560Y-119556654D01*
X168839080Y-119240926D01*
X169240926Y-118839080D01*
X169556654Y-118366560D01*
X169774131Y-117841523D01*
X169885000Y-117284148D01*
X169885000Y-116715852D01*
X169774131Y-116158477D01*
X169556654Y-115633440D01*
X169240926Y-115160920D01*
X168839080Y-114759074D01*
X168366560Y-114443346D01*
X167841523Y-114225869D01*
X167284148Y-114115000D01*
X166715852Y-114115000D01*
X166158477Y-114225869D01*
X165633440Y-114443346D01*
X165160920Y-114759074D01*
X164759074Y-115160920D01*
X164443346Y-115633440D01*
X164225869Y-116158477D01*
X164115000Y-116715852D01*
X162889279Y-116715852D01*
X167763141Y-111841991D01*
X167806449Y-111806449D01*
X167948284Y-111633623D01*
X168053676Y-111436447D01*
X168118577Y-111222499D01*
X168135000Y-111055752D01*
X168135000Y-111055743D01*
X168140490Y-111000001D01*
X168135000Y-110944259D01*
X168135000Y-109004768D01*
X168166387Y-108995247D01*
X168354500Y-108894699D01*
X168519383Y-108759383D01*
X168654699Y-108594500D01*
X168755247Y-108406387D01*
X168817165Y-108202272D01*
X168838072Y-107990000D01*
X168838072Y-107090000D01*
X168817165Y-106877728D01*
X168755247Y-106673613D01*
X168654699Y-106485500D01*
X168587418Y-106403517D01*
X168651185Y-106351185D01*
X168730537Y-106254494D01*
X168789502Y-106144180D01*
X168825812Y-106024482D01*
X168838072Y-105900000D01*
X168835000Y-105285750D01*
X168676250Y-105127000D01*
X167127000Y-105127000D01*
X167127000Y-105147000D01*
X166873000Y-105147000D01*
X166873000Y-105127000D01*
X165323750Y-105127000D01*
X165165000Y-105285750D01*
X165161928Y-105900000D01*
X165174188Y-106024482D01*
X165210498Y-106144180D01*
X165269463Y-106254494D01*
X165348815Y-106351185D01*
X165412582Y-106403517D01*
X165345301Y-106485500D01*
X165244753Y-106673613D01*
X165182835Y-106877728D01*
X165161928Y-107090000D01*
X165161928Y-107990000D01*
X165182835Y-108202272D01*
X165244753Y-108406387D01*
X165345301Y-108594500D01*
X165480617Y-108759383D01*
X165645500Y-108894699D01*
X165833613Y-108995247D01*
X165865001Y-109004768D01*
X165865000Y-110529868D01*
X160529869Y-115865000D01*
X157470132Y-115865000D01*
X157135000Y-115529868D01*
X157135000Y-114981242D01*
X157191683Y-115037925D01*
X157308337Y-114921271D01*
X157367797Y-115155037D01*
X157606242Y-115265934D01*
X157861740Y-115328183D01*
X158124473Y-115339390D01*
X158384344Y-115299125D01*
X158631366Y-115208935D01*
X158732203Y-115155037D01*
X158791664Y-114921269D01*
X158050000Y-114179605D01*
X158035858Y-114193748D01*
X157856253Y-114014143D01*
X157870395Y-114000000D01*
X158229605Y-114000000D01*
X158971269Y-114741664D01*
X159205037Y-114682203D01*
X159315934Y-114443758D01*
X159378183Y-114188260D01*
X159389390Y-113925527D01*
X159349125Y-113665656D01*
X159258935Y-113418634D01*
X159205037Y-113317797D01*
X158971269Y-113258336D01*
X158229605Y-114000000D01*
X157870395Y-114000000D01*
X157128731Y-113258336D01*
X157112743Y-113262403D01*
X157036962Y-113148987D01*
X156966706Y-113078731D01*
X157308336Y-113078731D01*
X158050000Y-113820395D01*
X158791664Y-113078731D01*
X158732203Y-112844963D01*
X158493758Y-112734066D01*
X158238260Y-112671817D01*
X157975527Y-112660610D01*
X157715656Y-112700875D01*
X157468634Y-112791065D01*
X157367797Y-112844963D01*
X157308336Y-113078731D01*
X156966706Y-113078731D01*
X156851013Y-112963038D01*
X156632359Y-112816939D01*
X156389405Y-112716304D01*
X156131486Y-112665000D01*
X155868514Y-112665000D01*
X155610595Y-112716304D01*
X155367641Y-112816939D01*
X155148987Y-112963038D01*
X154963038Y-113148987D01*
X154816939Y-113367641D01*
X154716304Y-113610595D01*
X154665000Y-113868514D01*
X144551850Y-113868514D01*
X144487336Y-113679034D01*
X144381338Y-113480726D01*
X144106712Y-113372893D01*
X143079605Y-114400000D01*
X142720395Y-114400000D01*
X141693288Y-113372893D01*
X141418662Y-113480726D01*
X141267784Y-113787384D01*
X141179631Y-114117585D01*
X141157591Y-114458639D01*
X134035000Y-114458639D01*
X134035000Y-114229117D01*
X133968325Y-113893919D01*
X133837537Y-113578169D01*
X133647663Y-113294002D01*
X133546949Y-113193288D01*
X141872893Y-113193288D01*
X142900000Y-114220395D01*
X143927107Y-113193288D01*
X143819274Y-112918662D01*
X143512616Y-112767784D01*
X143182415Y-112679631D01*
X142841361Y-112657591D01*
X142502561Y-112702511D01*
X142179034Y-112812664D01*
X141980726Y-112918662D01*
X141872893Y-113193288D01*
X133546949Y-113193288D01*
X133405998Y-113052337D01*
X133121831Y-112862463D01*
X133085000Y-112847207D01*
X133085000Y-109721269D01*
X142188336Y-109721269D01*
X142247797Y-109955037D01*
X142486242Y-110065934D01*
X142741740Y-110128183D01*
X143004473Y-110139390D01*
X143264344Y-110099125D01*
X143511366Y-110008935D01*
X143612203Y-109955037D01*
X143671664Y-109721269D01*
X142930000Y-108979605D01*
X142188336Y-109721269D01*
X133085000Y-109721269D01*
X133085000Y-108874473D01*
X141590610Y-108874473D01*
X141630875Y-109134344D01*
X141721065Y-109381366D01*
X141774963Y-109482203D01*
X142008731Y-109541664D01*
X142750395Y-108800000D01*
X143109605Y-108800000D01*
X143851269Y-109541664D01*
X144085037Y-109482203D01*
X144195934Y-109243758D01*
X144200706Y-109224173D01*
X144286939Y-109432359D01*
X144433038Y-109651013D01*
X144618987Y-109836962D01*
X144837641Y-109983061D01*
X145080595Y-110083696D01*
X145338514Y-110135000D01*
X145601486Y-110135000D01*
X145859405Y-110083696D01*
X146102359Y-109983061D01*
X146321013Y-109836962D01*
X146506962Y-109651013D01*
X146551070Y-109585000D01*
X148658796Y-109585000D01*
X148724201Y-109682886D01*
X148917114Y-109875799D01*
X149143957Y-110027371D01*
X149396011Y-110131775D01*
X149663589Y-110185000D01*
X149936411Y-110185000D01*
X150203989Y-110131775D01*
X150456043Y-110027371D01*
X150682886Y-109875799D01*
X150875799Y-109682886D01*
X151027371Y-109456043D01*
X151131775Y-109203989D01*
X151185000Y-108936411D01*
X151185000Y-108663589D01*
X151131775Y-108396011D01*
X151027371Y-108143957D01*
X150875799Y-107917114D01*
X150682886Y-107724201D01*
X150456043Y-107572629D01*
X150203989Y-107468225D01*
X149936411Y-107415000D01*
X149663589Y-107415000D01*
X149396011Y-107468225D01*
X149143957Y-107572629D01*
X148917114Y-107724201D01*
X148724201Y-107917114D01*
X148658796Y-108015000D01*
X146551070Y-108015000D01*
X146506962Y-107948987D01*
X146321013Y-107763038D01*
X146102359Y-107616939D01*
X145859405Y-107516304D01*
X145601486Y-107465000D01*
X145338514Y-107465000D01*
X145080595Y-107516304D01*
X144837641Y-107616939D01*
X144618987Y-107763038D01*
X144433038Y-107948987D01*
X144286939Y-108167641D01*
X144198379Y-108381444D01*
X144138935Y-108218634D01*
X144085037Y-108117797D01*
X143851269Y-108058336D01*
X143109605Y-108800000D01*
X142750395Y-108800000D01*
X142008731Y-108058336D01*
X141774963Y-108117797D01*
X141664066Y-108356242D01*
X141601817Y-108611740D01*
X141590610Y-108874473D01*
X133085000Y-108874473D01*
X133085000Y-108838556D01*
X133088797Y-108800000D01*
X133085000Y-108761444D01*
X133085000Y-108761439D01*
X133078021Y-108690581D01*
X133073642Y-108646113D01*
X133028754Y-108498140D01*
X133011391Y-108465656D01*
X132955862Y-108361767D01*
X132857764Y-108242236D01*
X132827810Y-108217653D01*
X132488888Y-107878731D01*
X142188336Y-107878731D01*
X142930000Y-108620395D01*
X143671664Y-107878731D01*
X143612203Y-107644963D01*
X143373758Y-107534066D01*
X143118260Y-107471817D01*
X142855527Y-107460610D01*
X142595656Y-107500875D01*
X142348634Y-107591065D01*
X142247797Y-107644963D01*
X142188336Y-107878731D01*
X132488888Y-107878731D01*
X128895157Y-104285000D01*
X132761447Y-104285000D01*
X132800000Y-104288797D01*
X132838553Y-104285000D01*
X132838561Y-104285000D01*
X132953887Y-104273641D01*
X133101860Y-104228754D01*
X133238233Y-104155862D01*
X133357764Y-104057764D01*
X133382347Y-104027810D01*
X135157088Y-102253069D01*
X135193919Y-102268325D01*
X135529117Y-102335000D01*
X135870883Y-102335000D01*
X136206081Y-102268325D01*
X136521831Y-102137537D01*
X136805998Y-101947663D01*
X137047663Y-101705998D01*
X137237537Y-101421831D01*
X137368325Y-101106081D01*
X137435000Y-100770883D01*
X137435000Y-100429117D01*
X137368325Y-100093919D01*
X137237537Y-99778169D01*
X137047663Y-99494002D01*
X136805998Y-99252337D01*
X136521831Y-99062463D01*
X136206081Y-98931675D01*
X135870883Y-98865000D01*
X135529117Y-98865000D01*
X135193919Y-98931675D01*
X134878169Y-99062463D01*
X134594002Y-99252337D01*
X134352337Y-99494002D01*
X134162463Y-99778169D01*
X134031675Y-100093919D01*
X133965000Y-100429117D01*
X133965000Y-100770883D01*
X134031675Y-101106081D01*
X134046931Y-101142912D01*
X132474843Y-102715000D01*
X128769271Y-102715000D01*
X128714775Y-102583434D01*
X128503013Y-102266509D01*
X128233491Y-101996987D01*
X127916566Y-101785225D01*
X127564419Y-101639361D01*
X127190581Y-101565000D01*
X126809419Y-101565000D01*
X126435581Y-101639361D01*
X126083434Y-101785225D01*
X125766509Y-101996987D01*
X125496987Y-102266509D01*
X125285225Y-102583434D01*
X125139361Y-102935581D01*
X125065000Y-103309419D01*
X124785000Y-103309419D01*
X124785000Y-99225157D01*
X126725157Y-97285000D01*
X134147207Y-97285000D01*
X134162463Y-97321831D01*
X134352337Y-97605998D01*
X134594002Y-97847663D01*
X134878169Y-98037537D01*
X135193919Y-98168325D01*
X135529117Y-98235000D01*
X135870883Y-98235000D01*
X136206081Y-98168325D01*
X136521831Y-98037537D01*
X136805998Y-97847663D01*
X137047663Y-97605998D01*
X137237537Y-97321831D01*
X137368325Y-97006081D01*
X137435000Y-96670883D01*
X137435000Y-96329117D01*
X144565000Y-96329117D01*
X144565000Y-96670883D01*
X144631675Y-97006081D01*
X144762463Y-97321831D01*
X144952337Y-97605998D01*
X145165000Y-97818661D01*
X145165001Y-99281338D01*
X144952337Y-99494002D01*
X144762463Y-99778169D01*
X144631675Y-100093919D01*
X144565000Y-100429117D01*
X144565000Y-100770883D01*
X144631675Y-101106081D01*
X144762463Y-101421831D01*
X144952337Y-101705998D01*
X145194002Y-101947663D01*
X145478169Y-102137537D01*
X145793919Y-102268325D01*
X146129117Y-102335000D01*
X146429868Y-102335000D01*
X146858008Y-102763140D01*
X146893551Y-102806449D01*
X147066377Y-102948284D01*
X147263553Y-103053676D01*
X147477501Y-103118577D01*
X147700000Y-103140491D01*
X147755751Y-103135000D01*
X149412224Y-103135000D01*
X149663589Y-103185000D01*
X149936411Y-103185000D01*
X150203989Y-103131775D01*
X150456043Y-103027371D01*
X150594286Y-102935000D01*
X150829869Y-102935000D01*
X152965000Y-105070132D01*
X152965000Y-105151184D01*
X153023989Y-105447743D01*
X153139701Y-105727095D01*
X153307688Y-105978505D01*
X153521495Y-106192312D01*
X153772905Y-106360299D01*
X154052257Y-106476011D01*
X154348816Y-106535000D01*
X154651184Y-106535000D01*
X154947743Y-106476011D01*
X155227095Y-106360299D01*
X155478505Y-106192312D01*
X155535817Y-106135000D01*
X155944249Y-106135000D01*
X156000000Y-106140491D01*
X156055751Y-106135000D01*
X156055752Y-106135000D01*
X156222499Y-106118577D01*
X156402149Y-106064080D01*
X158615525Y-106064080D01*
X158699208Y-106318261D01*
X158971775Y-106449158D01*
X159264642Y-106524365D01*
X159566553Y-106540991D01*
X159865907Y-106498397D01*
X160151199Y-106398222D01*
X160300792Y-106318261D01*
X160384475Y-106064080D01*
X159500000Y-105179605D01*
X158615525Y-106064080D01*
X156402149Y-106064080D01*
X156436447Y-106053676D01*
X156633623Y-105948284D01*
X156806449Y-105806449D01*
X156841996Y-105763135D01*
X158022331Y-104582800D01*
X157975635Y-104764642D01*
X157959009Y-105066553D01*
X158001603Y-105365907D01*
X158101778Y-105651199D01*
X158181739Y-105800792D01*
X158435920Y-105884475D01*
X159320395Y-105000000D01*
X159679605Y-105000000D01*
X160564080Y-105884475D01*
X160818261Y-105800792D01*
X160949158Y-105528225D01*
X161024365Y-105235358D01*
X161040991Y-104933447D01*
X160998397Y-104634093D01*
X160898222Y-104348801D01*
X160818261Y-104199208D01*
X160564080Y-104115525D01*
X159679605Y-105000000D01*
X159320395Y-105000000D01*
X159306253Y-104985858D01*
X159485858Y-104806253D01*
X159500000Y-104820395D01*
X160384475Y-103935920D01*
X160300792Y-103681739D01*
X160028225Y-103550842D01*
X159735358Y-103475635D01*
X159433447Y-103459009D01*
X159134093Y-103501603D01*
X159086989Y-103518143D01*
X160470132Y-102135000D01*
X165069869Y-102135000D01*
X165161928Y-102227059D01*
X165161928Y-102910000D01*
X165182835Y-103122272D01*
X165244753Y-103326387D01*
X165345301Y-103514500D01*
X165412582Y-103596483D01*
X165348815Y-103648815D01*
X165269463Y-103745506D01*
X165210498Y-103855820D01*
X165174188Y-103975518D01*
X165161928Y-104100000D01*
X165165000Y-104714250D01*
X165323750Y-104873000D01*
X166873000Y-104873000D01*
X166873000Y-104853000D01*
X167127000Y-104853000D01*
X167127000Y-104873000D01*
X168676250Y-104873000D01*
X168835000Y-104714250D01*
X168838072Y-104100000D01*
X168825812Y-103975518D01*
X168789502Y-103855820D01*
X168730537Y-103745506D01*
X168651185Y-103648815D01*
X168587418Y-103596483D01*
X168654699Y-103514500D01*
X168755247Y-103326387D01*
X168817165Y-103122272D01*
X168838072Y-102910000D01*
X168838072Y-102010000D01*
X168817165Y-101797728D01*
X168755247Y-101593613D01*
X168654699Y-101405500D01*
X168519383Y-101240617D01*
X168354500Y-101105301D01*
X168166387Y-101004753D01*
X167962272Y-100942835D01*
X167750000Y-100921928D01*
X167067059Y-100921928D01*
X166381996Y-100236865D01*
X166346449Y-100193551D01*
X166173623Y-100051716D01*
X165976447Y-99946324D01*
X165762499Y-99881423D01*
X165595752Y-99865000D01*
X165595751Y-99865000D01*
X165540000Y-99859509D01*
X165484249Y-99865000D01*
X160055741Y-99865000D01*
X159999999Y-99859510D01*
X159944257Y-99865000D01*
X159944248Y-99865000D01*
X159777501Y-99881423D01*
X159563553Y-99946324D01*
X159366377Y-100051716D01*
X159193551Y-100193551D01*
X159158009Y-100236859D01*
X155532843Y-103862026D01*
X155478505Y-103807688D01*
X155227095Y-103639701D01*
X154947743Y-103523989D01*
X154651184Y-103465000D01*
X154570132Y-103465000D01*
X152141996Y-101036865D01*
X152106449Y-100993551D01*
X151933623Y-100851716D01*
X151736447Y-100746324D01*
X151522499Y-100681423D01*
X151355752Y-100665000D01*
X151355751Y-100665000D01*
X151300000Y-100659509D01*
X151244249Y-100665000D01*
X150594286Y-100665000D01*
X150456043Y-100572629D01*
X150203989Y-100468225D01*
X149936411Y-100415000D01*
X149663589Y-100415000D01*
X149396011Y-100468225D01*
X149143957Y-100572629D01*
X148917114Y-100724201D01*
X148776315Y-100865000D01*
X148170132Y-100865000D01*
X148035000Y-100729868D01*
X148035000Y-100429117D01*
X147968325Y-100093919D01*
X147837537Y-99778169D01*
X147647663Y-99494002D01*
X147435000Y-99281339D01*
X147435000Y-97818661D01*
X147647663Y-97605998D01*
X147837537Y-97321831D01*
X147968325Y-97006081D01*
X148035000Y-96670883D01*
X148035000Y-96329117D01*
X147968325Y-95993919D01*
X147837537Y-95678169D01*
X147647663Y-95394002D01*
X147405998Y-95152337D01*
X147121831Y-94962463D01*
X146806081Y-94831675D01*
X146470883Y-94765000D01*
X146129117Y-94765000D01*
X145793919Y-94831675D01*
X145478169Y-94962463D01*
X145194002Y-95152337D01*
X144952337Y-95394002D01*
X144762463Y-95678169D01*
X144631675Y-95993919D01*
X144565000Y-96329117D01*
X137435000Y-96329117D01*
X137368325Y-95993919D01*
X137237537Y-95678169D01*
X137047663Y-95394002D01*
X136805998Y-95152337D01*
X136521831Y-94962463D01*
X136485000Y-94947207D01*
X136485000Y-94152793D01*
X136521831Y-94137537D01*
X136805998Y-93947663D01*
X136946949Y-93806712D01*
X145272893Y-93806712D01*
X145380726Y-94081338D01*
X145687384Y-94232216D01*
X146017585Y-94320369D01*
X146358639Y-94342409D01*
X146697439Y-94297489D01*
X147020966Y-94187336D01*
X147219274Y-94081338D01*
X147327107Y-93806712D01*
X146300000Y-92779605D01*
X145272893Y-93806712D01*
X136946949Y-93806712D01*
X137047663Y-93705998D01*
X137237537Y-93421831D01*
X137368325Y-93106081D01*
X137435000Y-92770883D01*
X137435000Y-92658639D01*
X144557591Y-92658639D01*
X144602511Y-92997439D01*
X144712664Y-93320966D01*
X144818662Y-93519274D01*
X145093288Y-93627107D01*
X146120395Y-92600000D01*
X146479605Y-92600000D01*
X147506712Y-93627107D01*
X147781338Y-93519274D01*
X147932216Y-93212616D01*
X148020369Y-92882415D01*
X148031132Y-92715852D01*
X164115000Y-92715852D01*
X164115000Y-93284148D01*
X164225869Y-93841523D01*
X164443346Y-94366560D01*
X164759074Y-94839080D01*
X165160920Y-95240926D01*
X165633440Y-95556654D01*
X166158477Y-95774131D01*
X166715852Y-95885000D01*
X167284148Y-95885000D01*
X167841523Y-95774131D01*
X168366560Y-95556654D01*
X168839080Y-95240926D01*
X169240926Y-94839080D01*
X169556654Y-94366560D01*
X169774131Y-93841523D01*
X169885000Y-93284148D01*
X169885000Y-92715852D01*
X169774131Y-92158477D01*
X169556654Y-91633440D01*
X169240926Y-91160920D01*
X168839080Y-90759074D01*
X168366560Y-90443346D01*
X167841523Y-90225869D01*
X167284148Y-90115000D01*
X166715852Y-90115000D01*
X166158477Y-90225869D01*
X165633440Y-90443346D01*
X165160920Y-90759074D01*
X164759074Y-91160920D01*
X164443346Y-91633440D01*
X164225869Y-92158477D01*
X164115000Y-92715852D01*
X148031132Y-92715852D01*
X148042409Y-92541361D01*
X147997489Y-92202561D01*
X147887336Y-91879034D01*
X147781338Y-91680726D01*
X147506712Y-91572893D01*
X146479605Y-92600000D01*
X146120395Y-92600000D01*
X145093288Y-91572893D01*
X144818662Y-91680726D01*
X144667784Y-91987384D01*
X144579631Y-92317585D01*
X144557591Y-92658639D01*
X137435000Y-92658639D01*
X137435000Y-92429117D01*
X137368325Y-92093919D01*
X137237537Y-91778169D01*
X137047663Y-91494002D01*
X136946949Y-91393288D01*
X145272893Y-91393288D01*
X146300000Y-92420395D01*
X147327107Y-91393288D01*
X147219274Y-91118662D01*
X146912616Y-90967784D01*
X146582415Y-90879631D01*
X146241361Y-90857591D01*
X145902561Y-90902511D01*
X145579034Y-91012664D01*
X145380726Y-91118662D01*
X145272893Y-91393288D01*
X136946949Y-91393288D01*
X136805998Y-91252337D01*
X136521831Y-91062463D01*
X136206081Y-90931675D01*
X135870883Y-90865000D01*
X135529117Y-90865000D01*
X135193919Y-90931675D01*
X134878169Y-91062463D01*
X134594002Y-91252337D01*
X134352337Y-91494002D01*
X134162463Y-91778169D01*
X134031675Y-92093919D01*
X133965000Y-92429117D01*
X133965000Y-92770883D01*
X134031675Y-93106081D01*
X134162463Y-93421831D01*
X134352337Y-93705998D01*
X134594002Y-93947663D01*
X134878169Y-94137537D01*
X134915000Y-94152793D01*
X134915001Y-94947207D01*
X134878169Y-94962463D01*
X134594002Y-95152337D01*
X134352337Y-95394002D01*
X134162463Y-95678169D01*
X134147207Y-95715000D01*
X126438556Y-95715000D01*
X126400000Y-95711203D01*
X126361444Y-95715000D01*
X126361439Y-95715000D01*
X126321026Y-95718980D01*
X126246113Y-95726358D01*
X126098140Y-95771246D01*
X125961767Y-95844138D01*
X125842236Y-95942236D01*
X125817653Y-95972190D01*
X123472185Y-98317658D01*
X123442237Y-98342236D01*
X123417659Y-98372184D01*
X123417655Y-98372188D01*
X123384690Y-98412356D01*
X123344139Y-98461767D01*
X123305177Y-98534660D01*
X123271246Y-98598141D01*
X123226359Y-98746114D01*
X123211203Y-98900000D01*
X121127000Y-98900000D01*
X121127000Y-92715852D01*
X122115000Y-92715852D01*
X122115000Y-93284148D01*
X122225869Y-93841523D01*
X122443346Y-94366560D01*
X122759074Y-94839080D01*
X123160920Y-95240926D01*
X123633440Y-95556654D01*
X124158477Y-95774131D01*
X124715852Y-95885000D01*
X125284148Y-95885000D01*
X125841523Y-95774131D01*
X126366560Y-95556654D01*
X126839080Y-95240926D01*
X127240926Y-94839080D01*
X127556654Y-94366560D01*
X127774131Y-93841523D01*
X127885000Y-93284148D01*
X127885000Y-92715852D01*
X127774131Y-92158477D01*
X127556654Y-91633440D01*
X127240926Y-91160920D01*
X126839080Y-90759074D01*
X126366560Y-90443346D01*
X125841523Y-90225869D01*
X125284148Y-90115000D01*
X124715852Y-90115000D01*
X124158477Y-90225869D01*
X123633440Y-90443346D01*
X123160920Y-90759074D01*
X122759074Y-91160920D01*
X122443346Y-91633440D01*
X122225869Y-92158477D01*
X122115000Y-92715852D01*
X121127000Y-92715852D01*
X121127000Y-89127000D01*
X170873000Y-89127000D01*
X170873000Y-120873000D01*
%TA.AperFunction,Conductor*%
D20*
G36*
X170873000Y-120873000D02*
G01*
X121127000Y-120873000D01*
X121127000Y-116715852D01*
X122115000Y-116715852D01*
X122115000Y-117284148D01*
X122225869Y-117841523D01*
X122443346Y-118366560D01*
X122759074Y-118839080D01*
X123160920Y-119240926D01*
X123633440Y-119556654D01*
X124158477Y-119774131D01*
X124715852Y-119885000D01*
X125284148Y-119885000D01*
X125841523Y-119774131D01*
X126366560Y-119556654D01*
X126839080Y-119240926D01*
X127240926Y-118839080D01*
X127556654Y-118366560D01*
X127774131Y-117841523D01*
X127885000Y-117284148D01*
X127885000Y-116715852D01*
X127774131Y-116158477D01*
X127556654Y-115633440D01*
X127240926Y-115160920D01*
X126839080Y-114759074D01*
X126366560Y-114443346D01*
X125841523Y-114225869D01*
X125284148Y-114115000D01*
X124715852Y-114115000D01*
X124158477Y-114225869D01*
X123633440Y-114443346D01*
X123160920Y-114759074D01*
X122759074Y-115160920D01*
X122443346Y-115633440D01*
X122225869Y-116158477D01*
X122115000Y-116715852D01*
X121127000Y-116715852D01*
X121127000Y-98900000D01*
X123211203Y-98900000D01*
X123215001Y-98938563D01*
X123215000Y-105461447D01*
X123211203Y-105500000D01*
X123215000Y-105538553D01*
X123215000Y-105538560D01*
X123226359Y-105653886D01*
X123271246Y-105801859D01*
X123344138Y-105938232D01*
X123442236Y-106057764D01*
X123472190Y-106082347D01*
X125193858Y-107804015D01*
X125139361Y-107935581D01*
X125065000Y-108309419D01*
X125065000Y-108690581D01*
X125139361Y-109064419D01*
X125285225Y-109416566D01*
X125496987Y-109733491D01*
X125766509Y-110003013D01*
X126083434Y-110214775D01*
X126435581Y-110360639D01*
X126809419Y-110435000D01*
X127190581Y-110435000D01*
X127564419Y-110360639D01*
X127916566Y-110214775D01*
X128233491Y-110003013D01*
X128503013Y-109733491D01*
X128714775Y-109416566D01*
X128860639Y-109064419D01*
X128935000Y-108690581D01*
X128935000Y-108309419D01*
X128860639Y-107935581D01*
X128714775Y-107583434D01*
X128503013Y-107266509D01*
X128233491Y-106996987D01*
X127916566Y-106785225D01*
X127564419Y-106639361D01*
X127190581Y-106565000D01*
X126809419Y-106565000D01*
X126435581Y-106639361D01*
X126304015Y-106693858D01*
X124785000Y-105174843D01*
X124785000Y-103309419D01*
X125065000Y-103309419D01*
X125065000Y-103690581D01*
X125139361Y-104064419D01*
X125285225Y-104416566D01*
X125496987Y-104733491D01*
X125766509Y-105003013D01*
X126083434Y-105214775D01*
X126435581Y-105360639D01*
X126809419Y-105435000D01*
X127190581Y-105435000D01*
X127564419Y-105360639D01*
X127695985Y-105306142D01*
X131515001Y-109125158D01*
X131515000Y-112847207D01*
X131478169Y-112862463D01*
X131194002Y-113052337D01*
X130952337Y-113294002D01*
X130762463Y-113578169D01*
X130631675Y-113893919D01*
X130565000Y-114229117D01*
X130565000Y-114570883D01*
X130631675Y-114906081D01*
X130762463Y-115221831D01*
X130952337Y-115505998D01*
X131194002Y-115747663D01*
X131478169Y-115937537D01*
X131793919Y-116068325D01*
X132129117Y-116135000D01*
X132470883Y-116135000D01*
X132806081Y-116068325D01*
X133121831Y-115937537D01*
X133405998Y-115747663D01*
X133546949Y-115606712D01*
X141872893Y-115606712D01*
X141980726Y-115881338D01*
X142287384Y-116032216D01*
X142617585Y-116120369D01*
X142958639Y-116142409D01*
X143297439Y-116097489D01*
X143620966Y-115987336D01*
X143819274Y-115881338D01*
X143927107Y-115606712D01*
X142900000Y-114579605D01*
X141872893Y-115606712D01*
X133546949Y-115606712D01*
X133647663Y-115505998D01*
X133837537Y-115221831D01*
X133968325Y-114906081D01*
X134035000Y-114570883D01*
X134035000Y-114458639D01*
X141157591Y-114458639D01*
X141202511Y-114797439D01*
X141312664Y-115120966D01*
X141418662Y-115319274D01*
X141693288Y-115427107D01*
X142720395Y-114400000D01*
X143079605Y-114400000D01*
X144106712Y-115427107D01*
X144381338Y-115319274D01*
X144532216Y-115012616D01*
X144620369Y-114682415D01*
X144642409Y-114341361D01*
X144597489Y-114002561D01*
X144551850Y-113868514D01*
X154665000Y-113868514D01*
X154665000Y-114131486D01*
X154716304Y-114389405D01*
X154816939Y-114632359D01*
X154865000Y-114704288D01*
X154865001Y-115944239D01*
X154859509Y-116000000D01*
X154881423Y-116222498D01*
X154946324Y-116436446D01*
X154946325Y-116436447D01*
X155051717Y-116633623D01*
X155193552Y-116806449D01*
X155236859Y-116841991D01*
X156158013Y-117763145D01*
X156193551Y-117806449D01*
X156236854Y-117841987D01*
X156236856Y-117841989D01*
X156366377Y-117948284D01*
X156563553Y-118053676D01*
X156777501Y-118118577D01*
X157000000Y-118140491D01*
X157055752Y-118135000D01*
X160944249Y-118135000D01*
X161000000Y-118140491D01*
X161055751Y-118135000D01*
X161055752Y-118135000D01*
X161222499Y-118118577D01*
X161436447Y-118053676D01*
X161633623Y-117948284D01*
X161806449Y-117806449D01*
X161841996Y-117763135D01*
X162889279Y-116715852D01*
X164115000Y-116715852D01*
X164115000Y-117284148D01*
X164225869Y-117841523D01*
X164443346Y-118366560D01*
X164759074Y-118839080D01*
X165160920Y-119240926D01*
X165633440Y-119556654D01*
X166158477Y-119774131D01*
X166715852Y-119885000D01*
X167284148Y-119885000D01*
X167841523Y-119774131D01*
X168366560Y-119556654D01*
X168839080Y-119240926D01*
X169240926Y-118839080D01*
X169556654Y-118366560D01*
X169774131Y-117841523D01*
X169885000Y-117284148D01*
X169885000Y-116715852D01*
X169774131Y-116158477D01*
X169556654Y-115633440D01*
X169240926Y-115160920D01*
X168839080Y-114759074D01*
X168366560Y-114443346D01*
X167841523Y-114225869D01*
X167284148Y-114115000D01*
X166715852Y-114115000D01*
X166158477Y-114225869D01*
X165633440Y-114443346D01*
X165160920Y-114759074D01*
X164759074Y-115160920D01*
X164443346Y-115633440D01*
X164225869Y-116158477D01*
X164115000Y-116715852D01*
X162889279Y-116715852D01*
X167763141Y-111841991D01*
X167806449Y-111806449D01*
X167948284Y-111633623D01*
X168053676Y-111436447D01*
X168118577Y-111222499D01*
X168135000Y-111055752D01*
X168135000Y-111055743D01*
X168140490Y-111000001D01*
X168135000Y-110944259D01*
X168135000Y-109004768D01*
X168166387Y-108995247D01*
X168354500Y-108894699D01*
X168519383Y-108759383D01*
X168654699Y-108594500D01*
X168755247Y-108406387D01*
X168817165Y-108202272D01*
X168838072Y-107990000D01*
X168838072Y-107090000D01*
X168817165Y-106877728D01*
X168755247Y-106673613D01*
X168654699Y-106485500D01*
X168587418Y-106403517D01*
X168651185Y-106351185D01*
X168730537Y-106254494D01*
X168789502Y-106144180D01*
X168825812Y-106024482D01*
X168838072Y-105900000D01*
X168835000Y-105285750D01*
X168676250Y-105127000D01*
X167127000Y-105127000D01*
X167127000Y-105147000D01*
X166873000Y-105147000D01*
X166873000Y-105127000D01*
X165323750Y-105127000D01*
X165165000Y-105285750D01*
X165161928Y-105900000D01*
X165174188Y-106024482D01*
X165210498Y-106144180D01*
X165269463Y-106254494D01*
X165348815Y-106351185D01*
X165412582Y-106403517D01*
X165345301Y-106485500D01*
X165244753Y-106673613D01*
X165182835Y-106877728D01*
X165161928Y-107090000D01*
X165161928Y-107990000D01*
X165182835Y-108202272D01*
X165244753Y-108406387D01*
X165345301Y-108594500D01*
X165480617Y-108759383D01*
X165645500Y-108894699D01*
X165833613Y-108995247D01*
X165865001Y-109004768D01*
X165865000Y-110529868D01*
X160529869Y-115865000D01*
X157470132Y-115865000D01*
X157135000Y-115529868D01*
X157135000Y-114981242D01*
X157191683Y-115037925D01*
X157308337Y-114921271D01*
X157367797Y-115155037D01*
X157606242Y-115265934D01*
X157861740Y-115328183D01*
X158124473Y-115339390D01*
X158384344Y-115299125D01*
X158631366Y-115208935D01*
X158732203Y-115155037D01*
X158791664Y-114921269D01*
X158050000Y-114179605D01*
X158035858Y-114193748D01*
X157856253Y-114014143D01*
X157870395Y-114000000D01*
X158229605Y-114000000D01*
X158971269Y-114741664D01*
X159205037Y-114682203D01*
X159315934Y-114443758D01*
X159378183Y-114188260D01*
X159389390Y-113925527D01*
X159349125Y-113665656D01*
X159258935Y-113418634D01*
X159205037Y-113317797D01*
X158971269Y-113258336D01*
X158229605Y-114000000D01*
X157870395Y-114000000D01*
X157128731Y-113258336D01*
X157112743Y-113262403D01*
X157036962Y-113148987D01*
X156966706Y-113078731D01*
X157308336Y-113078731D01*
X158050000Y-113820395D01*
X158791664Y-113078731D01*
X158732203Y-112844963D01*
X158493758Y-112734066D01*
X158238260Y-112671817D01*
X157975527Y-112660610D01*
X157715656Y-112700875D01*
X157468634Y-112791065D01*
X157367797Y-112844963D01*
X157308336Y-113078731D01*
X156966706Y-113078731D01*
X156851013Y-112963038D01*
X156632359Y-112816939D01*
X156389405Y-112716304D01*
X156131486Y-112665000D01*
X155868514Y-112665000D01*
X155610595Y-112716304D01*
X155367641Y-112816939D01*
X155148987Y-112963038D01*
X154963038Y-113148987D01*
X154816939Y-113367641D01*
X154716304Y-113610595D01*
X154665000Y-113868514D01*
X144551850Y-113868514D01*
X144487336Y-113679034D01*
X144381338Y-113480726D01*
X144106712Y-113372893D01*
X143079605Y-114400000D01*
X142720395Y-114400000D01*
X141693288Y-113372893D01*
X141418662Y-113480726D01*
X141267784Y-113787384D01*
X141179631Y-114117585D01*
X141157591Y-114458639D01*
X134035000Y-114458639D01*
X134035000Y-114229117D01*
X133968325Y-113893919D01*
X133837537Y-113578169D01*
X133647663Y-113294002D01*
X133546949Y-113193288D01*
X141872893Y-113193288D01*
X142900000Y-114220395D01*
X143927107Y-113193288D01*
X143819274Y-112918662D01*
X143512616Y-112767784D01*
X143182415Y-112679631D01*
X142841361Y-112657591D01*
X142502561Y-112702511D01*
X142179034Y-112812664D01*
X141980726Y-112918662D01*
X141872893Y-113193288D01*
X133546949Y-113193288D01*
X133405998Y-113052337D01*
X133121831Y-112862463D01*
X133085000Y-112847207D01*
X133085000Y-109721269D01*
X142188336Y-109721269D01*
X142247797Y-109955037D01*
X142486242Y-110065934D01*
X142741740Y-110128183D01*
X143004473Y-110139390D01*
X143264344Y-110099125D01*
X143511366Y-110008935D01*
X143612203Y-109955037D01*
X143671664Y-109721269D01*
X142930000Y-108979605D01*
X142188336Y-109721269D01*
X133085000Y-109721269D01*
X133085000Y-108874473D01*
X141590610Y-108874473D01*
X141630875Y-109134344D01*
X141721065Y-109381366D01*
X141774963Y-109482203D01*
X142008731Y-109541664D01*
X142750395Y-108800000D01*
X143109605Y-108800000D01*
X143851269Y-109541664D01*
X144085037Y-109482203D01*
X144195934Y-109243758D01*
X144200706Y-109224173D01*
X144286939Y-109432359D01*
X144433038Y-109651013D01*
X144618987Y-109836962D01*
X144837641Y-109983061D01*
X145080595Y-110083696D01*
X145338514Y-110135000D01*
X145601486Y-110135000D01*
X145859405Y-110083696D01*
X146102359Y-109983061D01*
X146321013Y-109836962D01*
X146506962Y-109651013D01*
X146551070Y-109585000D01*
X148658796Y-109585000D01*
X148724201Y-109682886D01*
X148917114Y-109875799D01*
X149143957Y-110027371D01*
X149396011Y-110131775D01*
X149663589Y-110185000D01*
X149936411Y-110185000D01*
X150203989Y-110131775D01*
X150456043Y-110027371D01*
X150682886Y-109875799D01*
X150875799Y-109682886D01*
X151027371Y-109456043D01*
X151131775Y-109203989D01*
X151185000Y-108936411D01*
X151185000Y-108663589D01*
X151131775Y-108396011D01*
X151027371Y-108143957D01*
X150875799Y-107917114D01*
X150682886Y-107724201D01*
X150456043Y-107572629D01*
X150203989Y-107468225D01*
X149936411Y-107415000D01*
X149663589Y-107415000D01*
X149396011Y-107468225D01*
X149143957Y-107572629D01*
X148917114Y-107724201D01*
X148724201Y-107917114D01*
X148658796Y-108015000D01*
X146551070Y-108015000D01*
X146506962Y-107948987D01*
X146321013Y-107763038D01*
X146102359Y-107616939D01*
X145859405Y-107516304D01*
X145601486Y-107465000D01*
X145338514Y-107465000D01*
X145080595Y-107516304D01*
X144837641Y-107616939D01*
X144618987Y-107763038D01*
X144433038Y-107948987D01*
X144286939Y-108167641D01*
X144198379Y-108381444D01*
X144138935Y-108218634D01*
X144085037Y-108117797D01*
X143851269Y-108058336D01*
X143109605Y-108800000D01*
X142750395Y-108800000D01*
X142008731Y-108058336D01*
X141774963Y-108117797D01*
X141664066Y-108356242D01*
X141601817Y-108611740D01*
X141590610Y-108874473D01*
X133085000Y-108874473D01*
X133085000Y-108838556D01*
X133088797Y-108800000D01*
X133085000Y-108761444D01*
X133085000Y-108761439D01*
X133078021Y-108690581D01*
X133073642Y-108646113D01*
X133028754Y-108498140D01*
X133011391Y-108465656D01*
X132955862Y-108361767D01*
X132857764Y-108242236D01*
X132827810Y-108217653D01*
X132488888Y-107878731D01*
X142188336Y-107878731D01*
X142930000Y-108620395D01*
X143671664Y-107878731D01*
X143612203Y-107644963D01*
X143373758Y-107534066D01*
X143118260Y-107471817D01*
X142855527Y-107460610D01*
X142595656Y-107500875D01*
X142348634Y-107591065D01*
X142247797Y-107644963D01*
X142188336Y-107878731D01*
X132488888Y-107878731D01*
X128895157Y-104285000D01*
X132761447Y-104285000D01*
X132800000Y-104288797D01*
X132838553Y-104285000D01*
X132838561Y-104285000D01*
X132953887Y-104273641D01*
X133101860Y-104228754D01*
X133238233Y-104155862D01*
X133357764Y-104057764D01*
X133382347Y-104027810D01*
X135157088Y-102253069D01*
X135193919Y-102268325D01*
X135529117Y-102335000D01*
X135870883Y-102335000D01*
X136206081Y-102268325D01*
X136521831Y-102137537D01*
X136805998Y-101947663D01*
X137047663Y-101705998D01*
X137237537Y-101421831D01*
X137368325Y-101106081D01*
X137435000Y-100770883D01*
X137435000Y-100429117D01*
X137368325Y-100093919D01*
X137237537Y-99778169D01*
X137047663Y-99494002D01*
X136805998Y-99252337D01*
X136521831Y-99062463D01*
X136206081Y-98931675D01*
X135870883Y-98865000D01*
X135529117Y-98865000D01*
X135193919Y-98931675D01*
X134878169Y-99062463D01*
X134594002Y-99252337D01*
X134352337Y-99494002D01*
X134162463Y-99778169D01*
X134031675Y-100093919D01*
X133965000Y-100429117D01*
X133965000Y-100770883D01*
X134031675Y-101106081D01*
X134046931Y-101142912D01*
X132474843Y-102715000D01*
X128769271Y-102715000D01*
X128714775Y-102583434D01*
X128503013Y-102266509D01*
X128233491Y-101996987D01*
X127916566Y-101785225D01*
X127564419Y-101639361D01*
X127190581Y-101565000D01*
X126809419Y-101565000D01*
X126435581Y-101639361D01*
X126083434Y-101785225D01*
X125766509Y-101996987D01*
X125496987Y-102266509D01*
X125285225Y-102583434D01*
X125139361Y-102935581D01*
X125065000Y-103309419D01*
X124785000Y-103309419D01*
X124785000Y-99225157D01*
X126725157Y-97285000D01*
X134147207Y-97285000D01*
X134162463Y-97321831D01*
X134352337Y-97605998D01*
X134594002Y-97847663D01*
X134878169Y-98037537D01*
X135193919Y-98168325D01*
X135529117Y-98235000D01*
X135870883Y-98235000D01*
X136206081Y-98168325D01*
X136521831Y-98037537D01*
X136805998Y-97847663D01*
X137047663Y-97605998D01*
X137237537Y-97321831D01*
X137368325Y-97006081D01*
X137435000Y-96670883D01*
X137435000Y-96329117D01*
X144565000Y-96329117D01*
X144565000Y-96670883D01*
X144631675Y-97006081D01*
X144762463Y-97321831D01*
X144952337Y-97605998D01*
X145165000Y-97818661D01*
X145165001Y-99281338D01*
X144952337Y-99494002D01*
X144762463Y-99778169D01*
X144631675Y-100093919D01*
X144565000Y-100429117D01*
X144565000Y-100770883D01*
X144631675Y-101106081D01*
X144762463Y-101421831D01*
X144952337Y-101705998D01*
X145194002Y-101947663D01*
X145478169Y-102137537D01*
X145793919Y-102268325D01*
X146129117Y-102335000D01*
X146429868Y-102335000D01*
X146858008Y-102763140D01*
X146893551Y-102806449D01*
X147066377Y-102948284D01*
X147263553Y-103053676D01*
X147477501Y-103118577D01*
X147700000Y-103140491D01*
X147755751Y-103135000D01*
X149412224Y-103135000D01*
X149663589Y-103185000D01*
X149936411Y-103185000D01*
X150203989Y-103131775D01*
X150456043Y-103027371D01*
X150594286Y-102935000D01*
X150829869Y-102935000D01*
X152965000Y-105070132D01*
X152965000Y-105151184D01*
X153023989Y-105447743D01*
X153139701Y-105727095D01*
X153307688Y-105978505D01*
X153521495Y-106192312D01*
X153772905Y-106360299D01*
X154052257Y-106476011D01*
X154348816Y-106535000D01*
X154651184Y-106535000D01*
X154947743Y-106476011D01*
X155227095Y-106360299D01*
X155478505Y-106192312D01*
X155535817Y-106135000D01*
X155944249Y-106135000D01*
X156000000Y-106140491D01*
X156055751Y-106135000D01*
X156055752Y-106135000D01*
X156222499Y-106118577D01*
X156402149Y-106064080D01*
X158615525Y-106064080D01*
X158699208Y-106318261D01*
X158971775Y-106449158D01*
X159264642Y-106524365D01*
X159566553Y-106540991D01*
X159865907Y-106498397D01*
X160151199Y-106398222D01*
X160300792Y-106318261D01*
X160384475Y-106064080D01*
X159500000Y-105179605D01*
X158615525Y-106064080D01*
X156402149Y-106064080D01*
X156436447Y-106053676D01*
X156633623Y-105948284D01*
X156806449Y-105806449D01*
X156841996Y-105763135D01*
X158022331Y-104582800D01*
X157975635Y-104764642D01*
X157959009Y-105066553D01*
X158001603Y-105365907D01*
X158101778Y-105651199D01*
X158181739Y-105800792D01*
X158435920Y-105884475D01*
X159320395Y-105000000D01*
X159679605Y-105000000D01*
X160564080Y-105884475D01*
X160818261Y-105800792D01*
X160949158Y-105528225D01*
X161024365Y-105235358D01*
X161040991Y-104933447D01*
X160998397Y-104634093D01*
X160898222Y-104348801D01*
X160818261Y-104199208D01*
X160564080Y-104115525D01*
X159679605Y-105000000D01*
X159320395Y-105000000D01*
X159306253Y-104985858D01*
X159485858Y-104806253D01*
X159500000Y-104820395D01*
X160384475Y-103935920D01*
X160300792Y-103681739D01*
X160028225Y-103550842D01*
X159735358Y-103475635D01*
X159433447Y-103459009D01*
X159134093Y-103501603D01*
X159086989Y-103518143D01*
X160470132Y-102135000D01*
X165069869Y-102135000D01*
X165161928Y-102227059D01*
X165161928Y-102910000D01*
X165182835Y-103122272D01*
X165244753Y-103326387D01*
X165345301Y-103514500D01*
X165412582Y-103596483D01*
X165348815Y-103648815D01*
X165269463Y-103745506D01*
X165210498Y-103855820D01*
X165174188Y-103975518D01*
X165161928Y-104100000D01*
X165165000Y-104714250D01*
X165323750Y-104873000D01*
X166873000Y-104873000D01*
X166873000Y-104853000D01*
X167127000Y-104853000D01*
X167127000Y-104873000D01*
X168676250Y-104873000D01*
X168835000Y-104714250D01*
X168838072Y-104100000D01*
X168825812Y-103975518D01*
X168789502Y-103855820D01*
X168730537Y-103745506D01*
X168651185Y-103648815D01*
X168587418Y-103596483D01*
X168654699Y-103514500D01*
X168755247Y-103326387D01*
X168817165Y-103122272D01*
X168838072Y-102910000D01*
X168838072Y-102010000D01*
X168817165Y-101797728D01*
X168755247Y-101593613D01*
X168654699Y-101405500D01*
X168519383Y-101240617D01*
X168354500Y-101105301D01*
X168166387Y-101004753D01*
X167962272Y-100942835D01*
X167750000Y-100921928D01*
X167067059Y-100921928D01*
X166381996Y-100236865D01*
X166346449Y-100193551D01*
X166173623Y-100051716D01*
X165976447Y-99946324D01*
X165762499Y-99881423D01*
X165595752Y-99865000D01*
X165595751Y-99865000D01*
X165540000Y-99859509D01*
X165484249Y-99865000D01*
X160055741Y-99865000D01*
X159999999Y-99859510D01*
X159944257Y-99865000D01*
X159944248Y-99865000D01*
X159777501Y-99881423D01*
X159563553Y-99946324D01*
X159366377Y-100051716D01*
X159193551Y-100193551D01*
X159158009Y-100236859D01*
X155532843Y-103862026D01*
X155478505Y-103807688D01*
X155227095Y-103639701D01*
X154947743Y-103523989D01*
X154651184Y-103465000D01*
X154570132Y-103465000D01*
X152141996Y-101036865D01*
X152106449Y-100993551D01*
X151933623Y-100851716D01*
X151736447Y-100746324D01*
X151522499Y-100681423D01*
X151355752Y-100665000D01*
X151355751Y-100665000D01*
X151300000Y-100659509D01*
X151244249Y-100665000D01*
X150594286Y-100665000D01*
X150456043Y-100572629D01*
X150203989Y-100468225D01*
X149936411Y-100415000D01*
X149663589Y-100415000D01*
X149396011Y-100468225D01*
X149143957Y-100572629D01*
X148917114Y-100724201D01*
X148776315Y-100865000D01*
X148170132Y-100865000D01*
X148035000Y-100729868D01*
X148035000Y-100429117D01*
X147968325Y-100093919D01*
X147837537Y-99778169D01*
X147647663Y-99494002D01*
X147435000Y-99281339D01*
X147435000Y-97818661D01*
X147647663Y-97605998D01*
X147837537Y-97321831D01*
X147968325Y-97006081D01*
X148035000Y-96670883D01*
X148035000Y-96329117D01*
X147968325Y-95993919D01*
X147837537Y-95678169D01*
X147647663Y-95394002D01*
X147405998Y-95152337D01*
X147121831Y-94962463D01*
X146806081Y-94831675D01*
X146470883Y-94765000D01*
X146129117Y-94765000D01*
X145793919Y-94831675D01*
X145478169Y-94962463D01*
X145194002Y-95152337D01*
X144952337Y-95394002D01*
X144762463Y-95678169D01*
X144631675Y-95993919D01*
X144565000Y-96329117D01*
X137435000Y-96329117D01*
X137368325Y-95993919D01*
X137237537Y-95678169D01*
X137047663Y-95394002D01*
X136805998Y-95152337D01*
X136521831Y-94962463D01*
X136485000Y-94947207D01*
X136485000Y-94152793D01*
X136521831Y-94137537D01*
X136805998Y-93947663D01*
X136946949Y-93806712D01*
X145272893Y-93806712D01*
X145380726Y-94081338D01*
X145687384Y-94232216D01*
X146017585Y-94320369D01*
X146358639Y-94342409D01*
X146697439Y-94297489D01*
X147020966Y-94187336D01*
X147219274Y-94081338D01*
X147327107Y-93806712D01*
X146300000Y-92779605D01*
X145272893Y-93806712D01*
X136946949Y-93806712D01*
X137047663Y-93705998D01*
X137237537Y-93421831D01*
X137368325Y-93106081D01*
X137435000Y-92770883D01*
X137435000Y-92658639D01*
X144557591Y-92658639D01*
X144602511Y-92997439D01*
X144712664Y-93320966D01*
X144818662Y-93519274D01*
X145093288Y-93627107D01*
X146120395Y-92600000D01*
X146479605Y-92600000D01*
X147506712Y-93627107D01*
X147781338Y-93519274D01*
X147932216Y-93212616D01*
X148020369Y-92882415D01*
X148031132Y-92715852D01*
X164115000Y-92715852D01*
X164115000Y-93284148D01*
X164225869Y-93841523D01*
X164443346Y-94366560D01*
X164759074Y-94839080D01*
X165160920Y-95240926D01*
X165633440Y-95556654D01*
X166158477Y-95774131D01*
X166715852Y-95885000D01*
X167284148Y-95885000D01*
X167841523Y-95774131D01*
X168366560Y-95556654D01*
X168839080Y-95240926D01*
X169240926Y-94839080D01*
X169556654Y-94366560D01*
X169774131Y-93841523D01*
X169885000Y-93284148D01*
X169885000Y-92715852D01*
X169774131Y-92158477D01*
X169556654Y-91633440D01*
X169240926Y-91160920D01*
X168839080Y-90759074D01*
X168366560Y-90443346D01*
X167841523Y-90225869D01*
X167284148Y-90115000D01*
X166715852Y-90115000D01*
X166158477Y-90225869D01*
X165633440Y-90443346D01*
X165160920Y-90759074D01*
X164759074Y-91160920D01*
X164443346Y-91633440D01*
X164225869Y-92158477D01*
X164115000Y-92715852D01*
X148031132Y-92715852D01*
X148042409Y-92541361D01*
X147997489Y-92202561D01*
X147887336Y-91879034D01*
X147781338Y-91680726D01*
X147506712Y-91572893D01*
X146479605Y-92600000D01*
X146120395Y-92600000D01*
X145093288Y-91572893D01*
X144818662Y-91680726D01*
X144667784Y-91987384D01*
X144579631Y-92317585D01*
X144557591Y-92658639D01*
X137435000Y-92658639D01*
X137435000Y-92429117D01*
X137368325Y-92093919D01*
X137237537Y-91778169D01*
X137047663Y-91494002D01*
X136946949Y-91393288D01*
X145272893Y-91393288D01*
X146300000Y-92420395D01*
X147327107Y-91393288D01*
X147219274Y-91118662D01*
X146912616Y-90967784D01*
X146582415Y-90879631D01*
X146241361Y-90857591D01*
X145902561Y-90902511D01*
X145579034Y-91012664D01*
X145380726Y-91118662D01*
X145272893Y-91393288D01*
X136946949Y-91393288D01*
X136805998Y-91252337D01*
X136521831Y-91062463D01*
X136206081Y-90931675D01*
X135870883Y-90865000D01*
X135529117Y-90865000D01*
X135193919Y-90931675D01*
X134878169Y-91062463D01*
X134594002Y-91252337D01*
X134352337Y-91494002D01*
X134162463Y-91778169D01*
X134031675Y-92093919D01*
X133965000Y-92429117D01*
X133965000Y-92770883D01*
X134031675Y-93106081D01*
X134162463Y-93421831D01*
X134352337Y-93705998D01*
X134594002Y-93947663D01*
X134878169Y-94137537D01*
X134915000Y-94152793D01*
X134915001Y-94947207D01*
X134878169Y-94962463D01*
X134594002Y-95152337D01*
X134352337Y-95394002D01*
X134162463Y-95678169D01*
X134147207Y-95715000D01*
X126438556Y-95715000D01*
X126400000Y-95711203D01*
X126361444Y-95715000D01*
X126361439Y-95715000D01*
X126321026Y-95718980D01*
X126246113Y-95726358D01*
X126098140Y-95771246D01*
X125961767Y-95844138D01*
X125842236Y-95942236D01*
X125817653Y-95972190D01*
X123472185Y-98317658D01*
X123442237Y-98342236D01*
X123417659Y-98372184D01*
X123417655Y-98372188D01*
X123384690Y-98412356D01*
X123344139Y-98461767D01*
X123305177Y-98534660D01*
X123271246Y-98598141D01*
X123226359Y-98746114D01*
X123211203Y-98900000D01*
X121127000Y-98900000D01*
X121127000Y-92715852D01*
X122115000Y-92715852D01*
X122115000Y-93284148D01*
X122225869Y-93841523D01*
X122443346Y-94366560D01*
X122759074Y-94839080D01*
X123160920Y-95240926D01*
X123633440Y-95556654D01*
X124158477Y-95774131D01*
X124715852Y-95885000D01*
X125284148Y-95885000D01*
X125841523Y-95774131D01*
X126366560Y-95556654D01*
X126839080Y-95240926D01*
X127240926Y-94839080D01*
X127556654Y-94366560D01*
X127774131Y-93841523D01*
X127885000Y-93284148D01*
X127885000Y-92715852D01*
X127774131Y-92158477D01*
X127556654Y-91633440D01*
X127240926Y-91160920D01*
X126839080Y-90759074D01*
X126366560Y-90443346D01*
X125841523Y-90225869D01*
X125284148Y-90115000D01*
X124715852Y-90115000D01*
X124158477Y-90225869D01*
X123633440Y-90443346D01*
X123160920Y-90759074D01*
X122759074Y-91160920D01*
X122443346Y-91633440D01*
X122225869Y-92158477D01*
X122115000Y-92715852D01*
X121127000Y-92715852D01*
X121127000Y-89127000D01*
X170873000Y-89127000D01*
X170873000Y-120873000D01*
G37*
%TD.AperFunction*%
%TD*%
M02*
