%TF.GenerationSoftware,KiCad,Pcbnew,(5.1.12)-1*%
%TF.CreationDate,2023-06-26T22:50:23-03:00*%
%TF.ProjectId,P230523C10 - Fonte,50323330-3532-4334-9331-30202d20466f,rev?*%
%TF.SameCoordinates,Original*%
%TF.FileFunction,Soldermask,Bot*%
%TF.FilePolarity,Negative*%
%FSLAX46Y46*%
G04 Gerber Fmt 4.6, Leading zero omitted, Abs format (unit mm)*
G04 Created by KiCad (PCBNEW (5.1.12)-1) date 2023-06-26 22:50:23*
%MOMM*%
%LPD*%
G01*
G04 APERTURE LIST*
%ADD10C,2.000000*%
%ADD11C,1.600000*%
%ADD12C,2.800000*%
%ADD13C,2.400000*%
%ADD14C,1.700000*%
G04 APERTURE END LIST*
%TO.C,CI2*%
G36*
G01*
X166200000Y-104000000D02*
X167800000Y-104000000D01*
G75*
G02*
X168300000Y-104500000I0J-500000D01*
G01*
X168300000Y-105500000D01*
G75*
G02*
X167800000Y-106000000I-500000J0D01*
G01*
X166200000Y-106000000D01*
G75*
G02*
X165700000Y-105500000I0J500000D01*
G01*
X165700000Y-104500000D01*
G75*
G02*
X166200000Y-104000000I500000J0D01*
G01*
G37*
G36*
G01*
X166200000Y-101460000D02*
X167800000Y-101460000D01*
G75*
G02*
X168300000Y-101960000I0J-500000D01*
G01*
X168300000Y-102960000D01*
G75*
G02*
X167800000Y-103460000I-500000J0D01*
G01*
X166200000Y-103460000D01*
G75*
G02*
X165700000Y-102960000I0J500000D01*
G01*
X165700000Y-101960000D01*
G75*
G02*
X166200000Y-101460000I500000J0D01*
G01*
G37*
G36*
G01*
X166200000Y-106540000D02*
X167800000Y-106540000D01*
G75*
G02*
X168300000Y-107040000I0J-500000D01*
G01*
X168300000Y-108040000D01*
G75*
G02*
X167800000Y-108540000I-500000J0D01*
G01*
X166200000Y-108540000D01*
G75*
G02*
X165700000Y-108040000I0J500000D01*
G01*
X165700000Y-107040000D01*
G75*
G02*
X166200000Y-106540000I500000J0D01*
G01*
G37*
%TD*%
D10*
%TO.C,C3*%
X154500000Y-105000000D03*
X159500000Y-105000000D03*
%TD*%
D11*
%TO.C,C7*%
X156000000Y-114000000D03*
X158050000Y-114000000D03*
%TD*%
D12*
%TO.C,CN4*%
X127000000Y-103500000D03*
X127000000Y-108500000D03*
%TD*%
D13*
%TO.C,D3*%
X146300000Y-100600000D03*
X135700000Y-100600000D03*
%TD*%
%TO.C,D4*%
X135700000Y-96500000D03*
X146300000Y-96500000D03*
%TD*%
%TO.C,D5*%
X132300000Y-114400000D03*
X142900000Y-114400000D03*
%TD*%
%TO.C,D6*%
X146300000Y-92600000D03*
X135700000Y-92600000D03*
%TD*%
D11*
%TO.C,LD3*%
X142930000Y-108800000D03*
X145470000Y-108800000D03*
%TD*%
D14*
%TO.C,R8*%
X149800000Y-108800000D03*
X149800000Y-101800000D03*
%TD*%
M02*
