M48
; DRILL file {KiCad (5.1.12)-1} date 06/26/23 22:50:16
; FORMAT={-:-/ absolute / inch / decimal}
; #@! TF.CreationDate,2023-06-26T22:50:16-03:00
; #@! TF.GenerationSoftware,Kicad,Pcbnew,(5.1.12)-1
; #@! TF.FileFunction,Plated,1,2,PTH
FMAT,2
INCH
T1C0.0236
T2C0.0276
T3C0.0315
T4C0.0433
T5C0.0512
T6C0.1575
%
G90
G05
T1
X6.1417Y-4.4882
X6.2224Y-4.4882
T2
X5.8976Y-4.0079
X5.8976Y-4.2835
T3
X5.6272Y-4.2835
X5.7272Y-4.2835
X6.0827Y-4.1339
X6.2795Y-4.1339
T4
X5.2087Y-4.5039
X5.3425Y-3.6457
X5.3425Y-3.7992
X5.3425Y-3.9606
X5.626Y-4.5039
X5.7598Y-3.6457
X5.7598Y-3.7992
X5.7598Y-3.9606
T5
X5.0Y-4.0748
X5.0Y-4.2717
X6.5748Y-4.0339
X6.5748Y-4.1339
X6.5748Y-4.2339
T6
X4.9213Y-3.6614
X4.9213Y-4.6063
X6.5748Y-3.6614
X6.5748Y-4.6063
T0
M30
