G04 #@! TF.GenerationSoftware,KiCad,Pcbnew,(5.1.2)-2*
G04 #@! TF.CreationDate,2023-06-26T22:41:16-03:00*
G04 #@! TF.ProjectId,PRJ230523 - Haste de led,50524a32-3330-4353-9233-202d20486173,rev?*
G04 #@! TF.SameCoordinates,Original*
G04 #@! TF.FileFunction,Copper,L2,Bot*
G04 #@! TF.FilePolarity,Positive*
%FSLAX46Y46*%
G04 Gerber Fmt 4.6, Leading zero omitted, Abs format (unit mm)*
G04 Created by KiCad (PCBNEW (5.1.2)-2) date 2023-06-26 22:41:16*
%MOMM*%
%LPD*%
G04 APERTURE LIST*
%ADD10C,1.500000*%
%ADD11C,1.400000*%
%ADD12C,1.700000*%
%ADD13C,0.100000*%
%ADD14C,1.800000*%
%ADD15C,1.600000*%
%ADD16C,6.000000*%
%ADD17C,0.300000*%
%ADD18C,1.000000*%
%ADD19C,0.254000*%
G04 APERTURE END LIST*
D10*
X138860000Y-101650000D03*
X138860000Y-99110000D03*
X131240000Y-88950000D03*
X131240000Y-91490000D03*
X138860000Y-96570000D03*
X138860000Y-94030000D03*
X131240000Y-96570000D03*
X131240000Y-94030000D03*
X138860000Y-91490000D03*
X138860000Y-88950000D03*
X138860000Y-86410000D03*
X131240000Y-83870000D03*
X131240000Y-86410000D03*
X138860000Y-83870000D03*
X131240000Y-101650000D03*
X131240000Y-99110000D03*
D11*
X126700000Y-119350000D03*
X126700000Y-116150000D03*
X125100000Y-117750000D03*
D12*
X149950000Y-125250000D03*
X147410000Y-125250000D03*
D10*
X161800000Y-101350000D03*
X159300000Y-101350000D03*
D11*
X156900000Y-91250000D03*
X161900000Y-91250000D03*
D13*
G36*
X166594108Y-111752167D02*
G01*
X166637791Y-111758647D01*
X166680628Y-111769377D01*
X166722208Y-111784254D01*
X166762129Y-111803135D01*
X166800007Y-111825839D01*
X166835477Y-111852145D01*
X166868198Y-111881802D01*
X166897855Y-111914523D01*
X166924161Y-111949993D01*
X166946865Y-111987871D01*
X166965746Y-112027792D01*
X166980623Y-112069372D01*
X166991353Y-112112209D01*
X166997833Y-112155892D01*
X167000000Y-112200000D01*
X167000000Y-113100000D01*
X166997833Y-113144108D01*
X166991353Y-113187791D01*
X166980623Y-113230628D01*
X166965746Y-113272208D01*
X166946865Y-113312129D01*
X166924161Y-113350007D01*
X166897855Y-113385477D01*
X166868198Y-113418198D01*
X166835477Y-113447855D01*
X166800007Y-113474161D01*
X166762129Y-113496865D01*
X166722208Y-113515746D01*
X166680628Y-113530623D01*
X166637791Y-113541353D01*
X166594108Y-113547833D01*
X166550000Y-113550000D01*
X165050000Y-113550000D01*
X165005892Y-113547833D01*
X164962209Y-113541353D01*
X164919372Y-113530623D01*
X164877792Y-113515746D01*
X164837871Y-113496865D01*
X164799993Y-113474161D01*
X164764523Y-113447855D01*
X164731802Y-113418198D01*
X164702145Y-113385477D01*
X164675839Y-113350007D01*
X164653135Y-113312129D01*
X164634254Y-113272208D01*
X164619377Y-113230628D01*
X164608647Y-113187791D01*
X164602167Y-113144108D01*
X164600000Y-113100000D01*
X164600000Y-112200000D01*
X164602167Y-112155892D01*
X164608647Y-112112209D01*
X164619377Y-112069372D01*
X164634254Y-112027792D01*
X164653135Y-111987871D01*
X164675839Y-111949993D01*
X164702145Y-111914523D01*
X164731802Y-111881802D01*
X164764523Y-111852145D01*
X164799993Y-111825839D01*
X164837871Y-111803135D01*
X164877792Y-111784254D01*
X164919372Y-111769377D01*
X164962209Y-111758647D01*
X165005892Y-111752167D01*
X165050000Y-111750000D01*
X166550000Y-111750000D01*
X166594108Y-111752167D01*
X166594108Y-111752167D01*
G37*
D14*
X165800000Y-112650000D03*
D13*
G36*
X166594108Y-114292167D02*
G01*
X166637791Y-114298647D01*
X166680628Y-114309377D01*
X166722208Y-114324254D01*
X166762129Y-114343135D01*
X166800007Y-114365839D01*
X166835477Y-114392145D01*
X166868198Y-114421802D01*
X166897855Y-114454523D01*
X166924161Y-114489993D01*
X166946865Y-114527871D01*
X166965746Y-114567792D01*
X166980623Y-114609372D01*
X166991353Y-114652209D01*
X166997833Y-114695892D01*
X167000000Y-114740000D01*
X167000000Y-115640000D01*
X166997833Y-115684108D01*
X166991353Y-115727791D01*
X166980623Y-115770628D01*
X166965746Y-115812208D01*
X166946865Y-115852129D01*
X166924161Y-115890007D01*
X166897855Y-115925477D01*
X166868198Y-115958198D01*
X166835477Y-115987855D01*
X166800007Y-116014161D01*
X166762129Y-116036865D01*
X166722208Y-116055746D01*
X166680628Y-116070623D01*
X166637791Y-116081353D01*
X166594108Y-116087833D01*
X166550000Y-116090000D01*
X165050000Y-116090000D01*
X165005892Y-116087833D01*
X164962209Y-116081353D01*
X164919372Y-116070623D01*
X164877792Y-116055746D01*
X164837871Y-116036865D01*
X164799993Y-116014161D01*
X164764523Y-115987855D01*
X164731802Y-115958198D01*
X164702145Y-115925477D01*
X164675839Y-115890007D01*
X164653135Y-115852129D01*
X164634254Y-115812208D01*
X164619377Y-115770628D01*
X164608647Y-115727791D01*
X164602167Y-115684108D01*
X164600000Y-115640000D01*
X164600000Y-114740000D01*
X164602167Y-114695892D01*
X164608647Y-114652209D01*
X164619377Y-114609372D01*
X164634254Y-114567792D01*
X164653135Y-114527871D01*
X164675839Y-114489993D01*
X164702145Y-114454523D01*
X164731802Y-114421802D01*
X164764523Y-114392145D01*
X164799993Y-114365839D01*
X164837871Y-114343135D01*
X164877792Y-114324254D01*
X164919372Y-114309377D01*
X164962209Y-114298647D01*
X165005892Y-114292167D01*
X165050000Y-114290000D01*
X166550000Y-114290000D01*
X166594108Y-114292167D01*
X166594108Y-114292167D01*
G37*
D14*
X165800000Y-115190000D03*
D13*
G36*
X166594108Y-109212167D02*
G01*
X166637791Y-109218647D01*
X166680628Y-109229377D01*
X166722208Y-109244254D01*
X166762129Y-109263135D01*
X166800007Y-109285839D01*
X166835477Y-109312145D01*
X166868198Y-109341802D01*
X166897855Y-109374523D01*
X166924161Y-109409993D01*
X166946865Y-109447871D01*
X166965746Y-109487792D01*
X166980623Y-109529372D01*
X166991353Y-109572209D01*
X166997833Y-109615892D01*
X167000000Y-109660000D01*
X167000000Y-110560000D01*
X166997833Y-110604108D01*
X166991353Y-110647791D01*
X166980623Y-110690628D01*
X166965746Y-110732208D01*
X166946865Y-110772129D01*
X166924161Y-110810007D01*
X166897855Y-110845477D01*
X166868198Y-110878198D01*
X166835477Y-110907855D01*
X166800007Y-110934161D01*
X166762129Y-110956865D01*
X166722208Y-110975746D01*
X166680628Y-110990623D01*
X166637791Y-111001353D01*
X166594108Y-111007833D01*
X166550000Y-111010000D01*
X165050000Y-111010000D01*
X165005892Y-111007833D01*
X164962209Y-111001353D01*
X164919372Y-110990623D01*
X164877792Y-110975746D01*
X164837871Y-110956865D01*
X164799993Y-110934161D01*
X164764523Y-110907855D01*
X164731802Y-110878198D01*
X164702145Y-110845477D01*
X164675839Y-110810007D01*
X164653135Y-110772129D01*
X164634254Y-110732208D01*
X164619377Y-110690628D01*
X164608647Y-110647791D01*
X164602167Y-110604108D01*
X164600000Y-110560000D01*
X164600000Y-109660000D01*
X164602167Y-109615892D01*
X164608647Y-109572209D01*
X164619377Y-109529372D01*
X164634254Y-109487792D01*
X164653135Y-109447871D01*
X164675839Y-109409993D01*
X164702145Y-109374523D01*
X164731802Y-109341802D01*
X164764523Y-109312145D01*
X164799993Y-109285839D01*
X164837871Y-109263135D01*
X164877792Y-109244254D01*
X164919372Y-109229377D01*
X164962209Y-109218647D01*
X165005892Y-109212167D01*
X165050000Y-109210000D01*
X166550000Y-109210000D01*
X166594108Y-109212167D01*
X166594108Y-109212167D01*
G37*
D14*
X165800000Y-110110000D03*
D12*
X153710000Y-125150000D03*
X156250000Y-125150000D03*
X134110000Y-125250000D03*
X136650000Y-125250000D03*
X129200000Y-125200000D03*
X126660000Y-125200000D03*
X143300000Y-125250000D03*
X140760000Y-125250000D03*
X111900000Y-105200000D03*
D15*
X164650000Y-96300000D03*
X156850000Y-96300000D03*
X124850000Y-94650000D03*
X124850000Y-102450000D03*
X152200000Y-101250000D03*
X152200000Y-93450000D03*
D11*
X148350000Y-119400000D03*
X148350000Y-116200000D03*
X146750000Y-117800000D03*
X152850000Y-117850000D03*
X154450000Y-116250000D03*
X154450000Y-119450000D03*
X132550000Y-117800000D03*
X134150000Y-116200000D03*
X134150000Y-119400000D03*
X141950000Y-119350000D03*
X141950000Y-116150000D03*
X140350000Y-117750000D03*
D10*
X159400000Y-125000000D03*
X159400000Y-118000000D03*
X146300000Y-112500000D03*
X146300000Y-105500000D03*
X150450000Y-105500000D03*
X150450000Y-112500000D03*
X136000000Y-112400000D03*
X136000000Y-105400000D03*
X131550000Y-105450000D03*
X131550000Y-112450000D03*
X142200000Y-105400000D03*
X142200000Y-112400000D03*
X124950000Y-84450000D03*
X124950000Y-91450000D03*
D16*
X165000000Y-125000000D03*
X115000000Y-125000000D03*
X165000000Y-84000000D03*
X115000000Y-84000000D03*
D17*
X165800000Y-105350000D02*
X161800000Y-101350000D01*
X165800000Y-110110000D02*
X165800000Y-105350000D01*
X161800000Y-99150000D02*
X164650000Y-96300000D01*
X161800000Y-101350000D02*
X161800000Y-99150000D01*
D18*
X156850000Y-96300000D02*
X159700000Y-96300000D01*
X161900000Y-94100000D02*
X161900000Y-91250000D01*
X159700000Y-96300000D02*
X161900000Y-94100000D01*
X155500000Y-97650000D02*
X156850000Y-96300000D01*
X155500000Y-106650000D02*
X155500000Y-97650000D01*
X152700000Y-109450000D02*
X155500000Y-106650000D01*
X130490001Y-102399999D02*
X130490001Y-102509999D01*
X131240000Y-101650000D02*
X130490001Y-102399999D01*
X130490001Y-102509999D02*
X126950000Y-106050000D01*
X126950000Y-106050000D02*
X126950000Y-108100000D01*
X126950000Y-108100000D02*
X128300000Y-109450000D01*
X128300000Y-109450000D02*
X152700000Y-109450000D01*
D17*
X159400000Y-118000000D02*
X159400000Y-114700000D01*
X161450000Y-112650000D02*
X165800000Y-112650000D01*
X159400000Y-114700000D02*
X161450000Y-112650000D01*
X165800000Y-118600000D02*
X159400000Y-125000000D01*
X165800000Y-115190000D02*
X165800000Y-118600000D01*
X149950000Y-125250000D02*
X149950000Y-128350000D01*
X149950000Y-128350000D02*
X143350000Y-128350000D01*
X159450000Y-125050000D02*
X159400000Y-125000000D01*
X156950000Y-127950000D02*
X158950000Y-127950000D01*
X158950000Y-127950000D02*
X159450000Y-127450000D01*
X159450000Y-127450000D02*
X159450000Y-125050000D01*
X156250000Y-127250000D02*
X156950000Y-127950000D01*
X156250000Y-125150000D02*
X156250000Y-127250000D01*
X156700000Y-128200000D02*
X156950000Y-127950000D01*
X149950000Y-128350000D02*
X156550000Y-128350000D01*
X156550000Y-128350000D02*
X156700000Y-128200000D01*
X136650000Y-128350000D02*
X136650000Y-125250000D01*
X143250000Y-128350000D02*
X136650000Y-128350000D01*
X127700000Y-126700000D02*
X129200000Y-125200000D01*
X127700000Y-127750000D02*
X127700000Y-126700000D01*
X136600000Y-128350000D02*
X128300000Y-128350000D01*
X128300000Y-128350000D02*
X127700000Y-127750000D01*
X143300000Y-125250000D02*
X143300000Y-128350000D01*
X138860000Y-101650000D02*
X138860000Y-104810000D01*
X141139340Y-105400000D02*
X142200000Y-105400000D01*
X139450000Y-105400000D02*
X141139340Y-105400000D01*
X138860000Y-104810000D02*
X139450000Y-105400000D01*
X144750000Y-105500000D02*
X146300000Y-105500000D01*
X138860000Y-99110000D02*
X138860000Y-99610000D01*
X138860000Y-99610000D02*
X144750000Y-105500000D01*
X149000000Y-105500000D02*
X150450000Y-105500000D01*
X144000000Y-100500000D02*
X149000000Y-105500000D01*
X144000000Y-98850000D02*
X144000000Y-100500000D01*
X138860000Y-94030000D02*
X139180000Y-94030000D01*
X139180000Y-94030000D02*
X144000000Y-98850000D01*
X142440000Y-91490000D02*
X152200000Y-101250000D01*
X138860000Y-91490000D02*
X142440000Y-91490000D01*
X131550000Y-105450000D02*
X134400000Y-102600000D01*
X134400000Y-89570000D02*
X134400000Y-102600000D01*
X131240000Y-86410000D02*
X134400000Y-89570000D01*
X124950000Y-94550000D02*
X124850000Y-94650000D01*
X124950000Y-91450000D02*
X124950000Y-94550000D01*
X128160000Y-99110000D02*
X131240000Y-99110000D01*
X127800000Y-98750000D02*
X128160000Y-99110000D01*
X124850000Y-94650000D02*
X127800000Y-97600000D01*
X127800000Y-97600000D02*
X127800000Y-98750000D01*
X139350000Y-80600000D02*
X152200000Y-93450000D01*
X131200000Y-80600000D02*
X139350000Y-80600000D01*
X128850000Y-82950000D02*
X131200000Y-80600000D01*
X131240000Y-99110000D02*
X128850000Y-96720000D01*
X128850000Y-96720000D02*
X128850000Y-82950000D01*
X148350000Y-119400000D02*
X147360051Y-119400000D01*
X146000000Y-123840000D02*
X147410000Y-125250000D01*
X146000000Y-120760051D02*
X146000000Y-123840000D01*
X147360051Y-119400000D02*
X146000000Y-120760051D01*
X154450000Y-119450000D02*
X152550000Y-121350000D01*
X152550000Y-123990000D02*
X153710000Y-125150000D01*
X152550000Y-121350000D02*
X152550000Y-123990000D01*
X134150000Y-125210000D02*
X134110000Y-125250000D01*
X134150000Y-119400000D02*
X134150000Y-125210000D01*
X126700000Y-125160000D02*
X126660000Y-125200000D01*
X126700000Y-119350000D02*
X126700000Y-125160000D01*
X140760000Y-124047919D02*
X140760000Y-125250000D01*
X140760000Y-119550051D02*
X140760000Y-124047919D01*
X140960051Y-119350000D02*
X140760000Y-119550051D01*
X141950000Y-119350000D02*
X140960051Y-119350000D01*
X123750000Y-103550000D02*
X124850000Y-102450000D01*
X122050000Y-105250000D02*
X123750000Y-103550000D01*
X111900000Y-105200000D02*
X111950000Y-105250000D01*
X111950000Y-105250000D02*
X122050000Y-105250000D01*
X145200000Y-116250000D02*
X146750000Y-117800000D01*
X146300000Y-112500000D02*
X145200000Y-113600000D01*
X145200000Y-113600000D02*
X145200000Y-116250000D01*
X152850000Y-116500000D02*
X152850000Y-117850000D01*
X150450000Y-112500000D02*
X150450000Y-114100000D01*
X150450000Y-114100000D02*
X152850000Y-116500000D01*
X135900000Y-112300000D02*
X136000000Y-112400000D01*
X134750000Y-112300000D02*
X135900000Y-112300000D01*
X132550000Y-117800000D02*
X132550000Y-114500000D01*
X132550000Y-114500000D02*
X134750000Y-112300000D01*
X125100000Y-117750000D02*
X125100000Y-114150000D01*
X125100000Y-114150000D02*
X126800000Y-112450000D01*
X126800000Y-112450000D02*
X131550000Y-112450000D01*
X139650000Y-117750000D02*
X140350000Y-117750000D01*
X138650000Y-116750000D02*
X139650000Y-117750000D01*
X142200000Y-112400000D02*
X138650000Y-115950000D01*
X138650000Y-115950000D02*
X138650000Y-116750000D01*
X137490000Y-86410000D02*
X138860000Y-86410000D01*
X136050000Y-87850000D02*
X137490000Y-86410000D01*
X136000000Y-105400000D02*
X136050000Y-105350000D01*
X136050000Y-105350000D02*
X136050000Y-87850000D01*
D19*
G36*
X169340000Y-129340000D02*
G01*
X110659352Y-129340000D01*
X110654742Y-124641984D01*
X111365000Y-124641984D01*
X111365000Y-125358016D01*
X111504691Y-126060290D01*
X111778705Y-126721818D01*
X112176511Y-127317177D01*
X112682823Y-127823489D01*
X113278182Y-128221295D01*
X113939710Y-128495309D01*
X114641984Y-128635000D01*
X115358016Y-128635000D01*
X116060290Y-128495309D01*
X116721818Y-128221295D01*
X117317177Y-127823489D01*
X117823489Y-127317177D01*
X118221295Y-126721818D01*
X118495309Y-126060290D01*
X118635000Y-125358016D01*
X118635000Y-124641984D01*
X118495309Y-123939710D01*
X118221295Y-123278182D01*
X117823489Y-122682823D01*
X117317177Y-122176511D01*
X116721818Y-121778705D01*
X116060290Y-121504691D01*
X115358016Y-121365000D01*
X114641984Y-121365000D01*
X113939710Y-121504691D01*
X113278182Y-121778705D01*
X112682823Y-122176511D01*
X112176511Y-122682823D01*
X111778705Y-123278182D01*
X111504691Y-123939710D01*
X111365000Y-124641984D01*
X110654742Y-124641984D01*
X110647850Y-117618514D01*
X123765000Y-117618514D01*
X123765000Y-117881486D01*
X123816304Y-118139405D01*
X123916939Y-118382359D01*
X124063038Y-118601013D01*
X124248987Y-118786962D01*
X124467641Y-118933061D01*
X124710595Y-119033696D01*
X124968514Y-119085000D01*
X125231486Y-119085000D01*
X125398152Y-119051848D01*
X125365000Y-119218514D01*
X125365000Y-119481486D01*
X125416304Y-119739405D01*
X125516939Y-119982359D01*
X125663038Y-120201013D01*
X125848987Y-120386962D01*
X125915000Y-120431070D01*
X125915001Y-123911798D01*
X125713368Y-124046525D01*
X125506525Y-124253368D01*
X125344010Y-124496589D01*
X125232068Y-124766842D01*
X125175000Y-125053740D01*
X125175000Y-125346260D01*
X125232068Y-125633158D01*
X125344010Y-125903411D01*
X125506525Y-126146632D01*
X125713368Y-126353475D01*
X125956589Y-126515990D01*
X126226842Y-126627932D01*
X126513740Y-126685000D01*
X126806260Y-126685000D01*
X126914807Y-126663409D01*
X126911203Y-126700000D01*
X126915001Y-126738562D01*
X126915000Y-127711447D01*
X126911203Y-127750000D01*
X126915000Y-127788553D01*
X126915000Y-127788560D01*
X126926359Y-127903886D01*
X126971246Y-128051859D01*
X127044138Y-128188232D01*
X127142236Y-128307764D01*
X127172189Y-128332346D01*
X127717657Y-128877815D01*
X127742236Y-128907764D01*
X127772184Y-128932342D01*
X127772187Y-128932345D01*
X127801559Y-128956450D01*
X127861767Y-129005862D01*
X127998140Y-129078754D01*
X128146112Y-129123641D01*
X128160490Y-129125057D01*
X128261439Y-129135000D01*
X128261446Y-129135000D01*
X128299999Y-129138797D01*
X128338552Y-129135000D01*
X136611439Y-129135000D01*
X136650000Y-129138798D01*
X136688560Y-129135000D01*
X143261440Y-129135000D01*
X143300000Y-129138798D01*
X143338561Y-129135000D01*
X149911440Y-129135000D01*
X149950000Y-129138798D01*
X149988561Y-129135000D01*
X156511447Y-129135000D01*
X156550000Y-129138797D01*
X156588553Y-129135000D01*
X156588561Y-129135000D01*
X156703887Y-129123641D01*
X156851860Y-129078754D01*
X156988233Y-129005862D01*
X157107764Y-128907764D01*
X157132347Y-128877810D01*
X157275157Y-128735000D01*
X158911447Y-128735000D01*
X158950000Y-128738797D01*
X158988553Y-128735000D01*
X158988561Y-128735000D01*
X159103887Y-128723641D01*
X159251860Y-128678754D01*
X159388233Y-128605862D01*
X159507764Y-128507764D01*
X159532347Y-128477810D01*
X159977806Y-128032350D01*
X160007764Y-128007764D01*
X160105862Y-127888233D01*
X160178754Y-127751860D01*
X160198055Y-127688233D01*
X160223642Y-127603887D01*
X160232714Y-127511767D01*
X160235000Y-127488561D01*
X160235000Y-127488556D01*
X160238797Y-127450000D01*
X160235000Y-127411444D01*
X160235000Y-126107795D01*
X160282886Y-126075799D01*
X160475799Y-125882886D01*
X160627371Y-125656043D01*
X160731775Y-125403989D01*
X160785000Y-125136411D01*
X160785000Y-124863589D01*
X160762032Y-124748125D01*
X161488364Y-124021793D01*
X161365000Y-124641984D01*
X161365000Y-125358016D01*
X161504691Y-126060290D01*
X161778705Y-126721818D01*
X162176511Y-127317177D01*
X162682823Y-127823489D01*
X163278182Y-128221295D01*
X163939710Y-128495309D01*
X164641984Y-128635000D01*
X165358016Y-128635000D01*
X166060290Y-128495309D01*
X166721818Y-128221295D01*
X167317177Y-127823489D01*
X167823489Y-127317177D01*
X168221295Y-126721818D01*
X168495309Y-126060290D01*
X168635000Y-125358016D01*
X168635000Y-124641984D01*
X168495309Y-123939710D01*
X168221295Y-123278182D01*
X167823489Y-122682823D01*
X167317177Y-122176511D01*
X166721818Y-121778705D01*
X166060290Y-121504691D01*
X165358016Y-121365000D01*
X164641984Y-121365000D01*
X164021793Y-121488364D01*
X166327810Y-119182347D01*
X166357764Y-119157764D01*
X166455862Y-119038233D01*
X166528754Y-118901860D01*
X166548441Y-118836962D01*
X166573642Y-118753887D01*
X166583296Y-118655862D01*
X166585000Y-118638561D01*
X166585000Y-118638556D01*
X166588797Y-118600000D01*
X166585000Y-118561444D01*
X166585000Y-116724625D01*
X166762272Y-116707165D01*
X166966387Y-116645247D01*
X167154500Y-116544699D01*
X167319383Y-116409383D01*
X167454699Y-116244500D01*
X167555247Y-116056387D01*
X167617165Y-115852272D01*
X167638072Y-115640000D01*
X167638072Y-114740000D01*
X167617165Y-114527728D01*
X167555247Y-114323613D01*
X167454699Y-114135500D01*
X167319383Y-113970617D01*
X167257706Y-113920000D01*
X167319383Y-113869383D01*
X167454699Y-113704500D01*
X167555247Y-113516387D01*
X167617165Y-113312272D01*
X167638072Y-113100000D01*
X167638072Y-112200000D01*
X167617165Y-111987728D01*
X167555247Y-111783613D01*
X167454699Y-111595500D01*
X167319383Y-111430617D01*
X167257706Y-111380000D01*
X167319383Y-111329383D01*
X167454699Y-111164500D01*
X167555247Y-110976387D01*
X167617165Y-110772272D01*
X167638072Y-110560000D01*
X167638072Y-109660000D01*
X167617165Y-109447728D01*
X167555247Y-109243613D01*
X167454699Y-109055500D01*
X167319383Y-108890617D01*
X167154500Y-108755301D01*
X166966387Y-108654753D01*
X166762272Y-108592835D01*
X166585000Y-108575375D01*
X166585000Y-105388552D01*
X166588797Y-105349999D01*
X166585000Y-105311446D01*
X166585000Y-105311439D01*
X166573641Y-105196113D01*
X166528754Y-105048140D01*
X166455862Y-104911767D01*
X166403989Y-104848561D01*
X166382345Y-104822187D01*
X166382342Y-104822184D01*
X166357764Y-104792236D01*
X166327816Y-104767658D01*
X163162033Y-101601875D01*
X163185000Y-101486411D01*
X163185000Y-101213589D01*
X163131775Y-100946011D01*
X163027371Y-100693957D01*
X162875799Y-100467114D01*
X162682886Y-100274201D01*
X162585000Y-100208796D01*
X162585000Y-99475157D01*
X164355603Y-97704554D01*
X164508665Y-97735000D01*
X164791335Y-97735000D01*
X165068574Y-97679853D01*
X165329727Y-97571680D01*
X165564759Y-97414637D01*
X165764637Y-97214759D01*
X165921680Y-96979727D01*
X166029853Y-96718574D01*
X166085000Y-96441335D01*
X166085000Y-96158665D01*
X166029853Y-95881426D01*
X165921680Y-95620273D01*
X165764637Y-95385241D01*
X165564759Y-95185363D01*
X165329727Y-95028320D01*
X165068574Y-94920147D01*
X164791335Y-94865000D01*
X164508665Y-94865000D01*
X164231426Y-94920147D01*
X163970273Y-95028320D01*
X163735241Y-95185363D01*
X163535363Y-95385241D01*
X163378320Y-95620273D01*
X163270147Y-95881426D01*
X163215000Y-96158665D01*
X163215000Y-96441335D01*
X163245446Y-96594397D01*
X161272185Y-98567658D01*
X161242237Y-98592236D01*
X161217659Y-98622184D01*
X161217655Y-98622188D01*
X161184690Y-98662356D01*
X161144139Y-98711767D01*
X161113774Y-98768577D01*
X161071246Y-98848141D01*
X161026359Y-98996114D01*
X161011203Y-99150000D01*
X161015001Y-99188563D01*
X161015001Y-100208795D01*
X160917114Y-100274201D01*
X160724201Y-100467114D01*
X160572629Y-100693957D01*
X160552139Y-100743426D01*
X160495860Y-100638137D01*
X160256993Y-100572612D01*
X159479605Y-101350000D01*
X160256993Y-102127388D01*
X160495860Y-102061863D01*
X160548918Y-101948799D01*
X160572629Y-102006043D01*
X160724201Y-102232886D01*
X160917114Y-102425799D01*
X161143957Y-102577371D01*
X161396011Y-102681775D01*
X161663589Y-102735000D01*
X161936411Y-102735000D01*
X162051875Y-102712033D01*
X165015001Y-105675159D01*
X165015000Y-108575375D01*
X164837728Y-108592835D01*
X164633613Y-108654753D01*
X164445500Y-108755301D01*
X164280617Y-108890617D01*
X164145301Y-109055500D01*
X164044753Y-109243613D01*
X163982835Y-109447728D01*
X163961928Y-109660000D01*
X163961928Y-110560000D01*
X163982835Y-110772272D01*
X164044753Y-110976387D01*
X164145301Y-111164500D01*
X164280617Y-111329383D01*
X164342294Y-111380000D01*
X164280617Y-111430617D01*
X164145301Y-111595500D01*
X164044753Y-111783613D01*
X164020064Y-111865000D01*
X161488556Y-111865000D01*
X161450000Y-111861203D01*
X161411444Y-111865000D01*
X161411439Y-111865000D01*
X161371026Y-111868980D01*
X161296113Y-111876358D01*
X161159978Y-111917655D01*
X161148140Y-111921246D01*
X161011767Y-111994138D01*
X160892236Y-112092236D01*
X160867653Y-112122190D01*
X158872185Y-114117658D01*
X158842237Y-114142236D01*
X158817659Y-114172184D01*
X158817655Y-114172188D01*
X158796357Y-114198140D01*
X158744139Y-114261767D01*
X158721626Y-114303886D01*
X158671246Y-114398141D01*
X158626359Y-114546114D01*
X158611203Y-114700000D01*
X158615001Y-114738563D01*
X158615000Y-116858795D01*
X158517114Y-116924201D01*
X158324201Y-117117114D01*
X158172629Y-117343957D01*
X158068225Y-117596011D01*
X158015000Y-117863589D01*
X158015000Y-118136411D01*
X158068225Y-118403989D01*
X158172629Y-118656043D01*
X158324201Y-118882886D01*
X158517114Y-119075799D01*
X158743957Y-119227371D01*
X158996011Y-119331775D01*
X159263589Y-119385000D01*
X159536411Y-119385000D01*
X159803989Y-119331775D01*
X160056043Y-119227371D01*
X160282886Y-119075799D01*
X160475799Y-118882886D01*
X160627371Y-118656043D01*
X160731775Y-118403989D01*
X160785000Y-118136411D01*
X160785000Y-117863589D01*
X160731775Y-117596011D01*
X160627371Y-117343957D01*
X160475799Y-117117114D01*
X160282886Y-116924201D01*
X160185000Y-116858796D01*
X160185000Y-115025157D01*
X161775157Y-113435000D01*
X164020064Y-113435000D01*
X164044753Y-113516387D01*
X164145301Y-113704500D01*
X164280617Y-113869383D01*
X164342294Y-113920000D01*
X164280617Y-113970617D01*
X164145301Y-114135500D01*
X164044753Y-114323613D01*
X163982835Y-114527728D01*
X163961928Y-114740000D01*
X163961928Y-115640000D01*
X163982835Y-115852272D01*
X164044753Y-116056387D01*
X164145301Y-116244500D01*
X164280617Y-116409383D01*
X164445500Y-116544699D01*
X164633613Y-116645247D01*
X164837728Y-116707165D01*
X165015000Y-116724625D01*
X165015001Y-118274842D01*
X159651875Y-123637968D01*
X159536411Y-123615000D01*
X159263589Y-123615000D01*
X158996011Y-123668225D01*
X158743957Y-123772629D01*
X158517114Y-123924201D01*
X158324201Y-124117114D01*
X158172629Y-124343957D01*
X158068225Y-124596011D01*
X158015000Y-124863589D01*
X158015000Y-125136411D01*
X158068225Y-125403989D01*
X158172629Y-125656043D01*
X158324201Y-125882886D01*
X158517114Y-126075799D01*
X158665001Y-126174614D01*
X158665000Y-127124843D01*
X158624843Y-127165000D01*
X157275158Y-127165000D01*
X157035000Y-126924843D01*
X157035000Y-126411474D01*
X157196632Y-126303475D01*
X157403475Y-126096632D01*
X157565990Y-125853411D01*
X157677932Y-125583158D01*
X157735000Y-125296260D01*
X157735000Y-125003740D01*
X157677932Y-124716842D01*
X157565990Y-124446589D01*
X157403475Y-124203368D01*
X157196632Y-123996525D01*
X156953411Y-123834010D01*
X156683158Y-123722068D01*
X156396260Y-123665000D01*
X156103740Y-123665000D01*
X155816842Y-123722068D01*
X155546589Y-123834010D01*
X155303368Y-123996525D01*
X155096525Y-124203368D01*
X154980000Y-124377760D01*
X154863475Y-124203368D01*
X154656632Y-123996525D01*
X154413411Y-123834010D01*
X154143158Y-123722068D01*
X153856260Y-123665000D01*
X153563740Y-123665000D01*
X153373082Y-123702925D01*
X153335000Y-123664843D01*
X153335000Y-121675157D01*
X154240646Y-120769511D01*
X154318514Y-120785000D01*
X154581486Y-120785000D01*
X154839405Y-120733696D01*
X155082359Y-120633061D01*
X155301013Y-120486962D01*
X155486962Y-120301013D01*
X155633061Y-120082359D01*
X155733696Y-119839405D01*
X155785000Y-119581486D01*
X155785000Y-119318514D01*
X155733696Y-119060595D01*
X155633061Y-118817641D01*
X155486962Y-118598987D01*
X155301013Y-118413038D01*
X155082359Y-118266939D01*
X154839405Y-118166304D01*
X154581486Y-118115000D01*
X154318514Y-118115000D01*
X154151848Y-118148152D01*
X154185000Y-117981486D01*
X154185000Y-117718514D01*
X154151756Y-117551387D01*
X154261740Y-117578183D01*
X154524473Y-117589390D01*
X154784344Y-117549125D01*
X155031366Y-117458935D01*
X155132203Y-117405037D01*
X155191664Y-117171269D01*
X154450000Y-116429605D01*
X154435858Y-116443748D01*
X154256253Y-116264143D01*
X154270395Y-116250000D01*
X154629605Y-116250000D01*
X155371269Y-116991664D01*
X155605037Y-116932203D01*
X155715934Y-116693758D01*
X155778183Y-116438260D01*
X155789390Y-116175527D01*
X155749125Y-115915656D01*
X155658935Y-115668634D01*
X155605037Y-115567797D01*
X155371269Y-115508336D01*
X154629605Y-116250000D01*
X154270395Y-116250000D01*
X153528731Y-115508336D01*
X153294963Y-115567797D01*
X153210202Y-115750045D01*
X152788888Y-115328731D01*
X153708336Y-115328731D01*
X154450000Y-116070395D01*
X155191664Y-115328731D01*
X155132203Y-115094963D01*
X154893758Y-114984066D01*
X154638260Y-114921817D01*
X154375527Y-114910610D01*
X154115656Y-114950875D01*
X153868634Y-115041065D01*
X153767797Y-115094963D01*
X153708336Y-115328731D01*
X152788888Y-115328731D01*
X151235000Y-113774843D01*
X151235000Y-113641204D01*
X151332886Y-113575799D01*
X151525799Y-113382886D01*
X151677371Y-113156043D01*
X151781775Y-112903989D01*
X151835000Y-112636411D01*
X151835000Y-112363589D01*
X151781775Y-112096011D01*
X151677371Y-111843957D01*
X151525799Y-111617114D01*
X151332886Y-111424201D01*
X151106043Y-111272629D01*
X150853989Y-111168225D01*
X150586411Y-111115000D01*
X150313589Y-111115000D01*
X150046011Y-111168225D01*
X149793957Y-111272629D01*
X149567114Y-111424201D01*
X149374201Y-111617114D01*
X149222629Y-111843957D01*
X149118225Y-112096011D01*
X149065000Y-112363589D01*
X149065000Y-112636411D01*
X149118225Y-112903989D01*
X149222629Y-113156043D01*
X149374201Y-113382886D01*
X149567114Y-113575799D01*
X149665001Y-113641205D01*
X149665001Y-114061438D01*
X149661203Y-114100000D01*
X149676359Y-114253886D01*
X149721246Y-114401859D01*
X149747972Y-114451859D01*
X149794139Y-114538233D01*
X149834690Y-114587644D01*
X149867655Y-114627812D01*
X149867659Y-114627816D01*
X149892237Y-114657764D01*
X149922185Y-114682342D01*
X152031294Y-116791451D01*
X151998987Y-116813038D01*
X151813038Y-116998987D01*
X151666939Y-117217641D01*
X151566304Y-117460595D01*
X151515000Y-117718514D01*
X151515000Y-117981486D01*
X151566304Y-118239405D01*
X151666939Y-118482359D01*
X151813038Y-118701013D01*
X151998987Y-118886962D01*
X152217641Y-119033061D01*
X152460595Y-119133696D01*
X152718514Y-119185000D01*
X152981486Y-119185000D01*
X153148152Y-119151848D01*
X153115000Y-119318514D01*
X153115000Y-119581486D01*
X153130489Y-119659354D01*
X152022190Y-120767653D01*
X151992236Y-120792236D01*
X151894138Y-120911768D01*
X151821246Y-121048141D01*
X151776359Y-121196114D01*
X151765000Y-121311440D01*
X151765000Y-121311447D01*
X151761203Y-121350000D01*
X151765000Y-121388553D01*
X151765001Y-123951437D01*
X151761203Y-123990000D01*
X151776359Y-124143886D01*
X151821246Y-124291859D01*
X151821247Y-124291860D01*
X151894139Y-124428233D01*
X151933636Y-124476359D01*
X151967655Y-124517812D01*
X151967659Y-124517816D01*
X151992237Y-124547764D01*
X152022185Y-124572342D01*
X152262925Y-124813082D01*
X152225000Y-125003740D01*
X152225000Y-125296260D01*
X152282068Y-125583158D01*
X152394010Y-125853411D01*
X152556525Y-126096632D01*
X152763368Y-126303475D01*
X153006589Y-126465990D01*
X153276842Y-126577932D01*
X153563740Y-126635000D01*
X153856260Y-126635000D01*
X154143158Y-126577932D01*
X154413411Y-126465990D01*
X154656632Y-126303475D01*
X154863475Y-126096632D01*
X154980000Y-125922240D01*
X155096525Y-126096632D01*
X155303368Y-126303475D01*
X155465001Y-126411474D01*
X155465001Y-127211437D01*
X155461203Y-127250000D01*
X155476359Y-127403886D01*
X155521246Y-127551859D01*
X155521247Y-127551860D01*
X155528270Y-127565000D01*
X150735000Y-127565000D01*
X150735000Y-126511474D01*
X150896632Y-126403475D01*
X151103475Y-126196632D01*
X151265990Y-125953411D01*
X151377932Y-125683158D01*
X151435000Y-125396260D01*
X151435000Y-125103740D01*
X151377932Y-124816842D01*
X151265990Y-124546589D01*
X151103475Y-124303368D01*
X150896632Y-124096525D01*
X150653411Y-123934010D01*
X150383158Y-123822068D01*
X150096260Y-123765000D01*
X149803740Y-123765000D01*
X149516842Y-123822068D01*
X149246589Y-123934010D01*
X149003368Y-124096525D01*
X148796525Y-124303368D01*
X148680000Y-124477760D01*
X148563475Y-124303368D01*
X148356632Y-124096525D01*
X148113411Y-123934010D01*
X147843158Y-123822068D01*
X147556260Y-123765000D01*
X147263740Y-123765000D01*
X147073082Y-123802925D01*
X146785000Y-123514843D01*
X146785000Y-121085208D01*
X147466117Y-120404092D01*
X147498987Y-120436962D01*
X147717641Y-120583061D01*
X147960595Y-120683696D01*
X148218514Y-120735000D01*
X148481486Y-120735000D01*
X148739405Y-120683696D01*
X148982359Y-120583061D01*
X149201013Y-120436962D01*
X149386962Y-120251013D01*
X149533061Y-120032359D01*
X149633696Y-119789405D01*
X149685000Y-119531486D01*
X149685000Y-119268514D01*
X149633696Y-119010595D01*
X149533061Y-118767641D01*
X149386962Y-118548987D01*
X149201013Y-118363038D01*
X148982359Y-118216939D01*
X148739405Y-118116304D01*
X148481486Y-118065000D01*
X148218514Y-118065000D01*
X148051848Y-118098152D01*
X148085000Y-117931486D01*
X148085000Y-117668514D01*
X148051756Y-117501387D01*
X148161740Y-117528183D01*
X148424473Y-117539390D01*
X148684344Y-117499125D01*
X148931366Y-117408935D01*
X149032203Y-117355037D01*
X149091664Y-117121269D01*
X148350000Y-116379605D01*
X148335858Y-116393748D01*
X148156253Y-116214143D01*
X148170395Y-116200000D01*
X148529605Y-116200000D01*
X149271269Y-116941664D01*
X149505037Y-116882203D01*
X149615934Y-116643758D01*
X149678183Y-116388260D01*
X149689390Y-116125527D01*
X149649125Y-115865656D01*
X149558935Y-115618634D01*
X149505037Y-115517797D01*
X149271269Y-115458336D01*
X148529605Y-116200000D01*
X148170395Y-116200000D01*
X147428731Y-115458336D01*
X147194963Y-115517797D01*
X147084066Y-115756242D01*
X147021817Y-116011740D01*
X147010610Y-116274473D01*
X147045176Y-116497560D01*
X146881486Y-116465000D01*
X146618514Y-116465000D01*
X146540647Y-116480489D01*
X145985000Y-115924843D01*
X145985000Y-115278731D01*
X147608336Y-115278731D01*
X148350000Y-116020395D01*
X149091664Y-115278731D01*
X149032203Y-115044963D01*
X148793758Y-114934066D01*
X148538260Y-114871817D01*
X148275527Y-114860610D01*
X148015656Y-114900875D01*
X147768634Y-114991065D01*
X147667797Y-115044963D01*
X147608336Y-115278731D01*
X145985000Y-115278731D01*
X145985000Y-113925157D01*
X146048125Y-113862033D01*
X146163589Y-113885000D01*
X146436411Y-113885000D01*
X146703989Y-113831775D01*
X146956043Y-113727371D01*
X147182886Y-113575799D01*
X147375799Y-113382886D01*
X147527371Y-113156043D01*
X147631775Y-112903989D01*
X147685000Y-112636411D01*
X147685000Y-112363589D01*
X147631775Y-112096011D01*
X147527371Y-111843957D01*
X147375799Y-111617114D01*
X147182886Y-111424201D01*
X146956043Y-111272629D01*
X146703989Y-111168225D01*
X146436411Y-111115000D01*
X146163589Y-111115000D01*
X145896011Y-111168225D01*
X145643957Y-111272629D01*
X145417114Y-111424201D01*
X145224201Y-111617114D01*
X145072629Y-111843957D01*
X144968225Y-112096011D01*
X144915000Y-112363589D01*
X144915000Y-112636411D01*
X144937967Y-112751875D01*
X144672190Y-113017653D01*
X144642236Y-113042236D01*
X144544138Y-113161768D01*
X144471246Y-113298141D01*
X144426359Y-113446114D01*
X144415000Y-113561440D01*
X144415000Y-113561447D01*
X144411203Y-113600000D01*
X144415000Y-113638553D01*
X144415001Y-116211437D01*
X144411203Y-116250000D01*
X144426359Y-116403886D01*
X144471246Y-116551859D01*
X144488610Y-116584344D01*
X144544139Y-116688233D01*
X144573198Y-116723641D01*
X144617655Y-116777812D01*
X144617659Y-116777816D01*
X144642237Y-116807764D01*
X144672185Y-116832342D01*
X145430489Y-117590647D01*
X145415000Y-117668514D01*
X145415000Y-117931486D01*
X145466304Y-118189405D01*
X145566939Y-118432359D01*
X145713038Y-118651013D01*
X145898987Y-118836962D01*
X146117641Y-118983061D01*
X146360595Y-119083696D01*
X146532086Y-119117808D01*
X145472190Y-120177704D01*
X145442236Y-120202287D01*
X145344138Y-120321819D01*
X145271246Y-120458192D01*
X145226359Y-120606165D01*
X145215000Y-120721491D01*
X145215000Y-120721498D01*
X145211203Y-120760051D01*
X145215000Y-120798604D01*
X145215001Y-123801437D01*
X145211203Y-123840000D01*
X145226359Y-123993886D01*
X145271246Y-124141859D01*
X145272330Y-124143887D01*
X145344139Y-124278233D01*
X145355322Y-124291859D01*
X145417655Y-124367812D01*
X145417659Y-124367816D01*
X145442237Y-124397764D01*
X145472185Y-124422342D01*
X145962925Y-124913082D01*
X145925000Y-125103740D01*
X145925000Y-125396260D01*
X145982068Y-125683158D01*
X146094010Y-125953411D01*
X146256525Y-126196632D01*
X146463368Y-126403475D01*
X146706589Y-126565990D01*
X146976842Y-126677932D01*
X147263740Y-126735000D01*
X147556260Y-126735000D01*
X147843158Y-126677932D01*
X148113411Y-126565990D01*
X148356632Y-126403475D01*
X148563475Y-126196632D01*
X148680000Y-126022240D01*
X148796525Y-126196632D01*
X149003368Y-126403475D01*
X149165000Y-126511474D01*
X149165001Y-127565000D01*
X144085000Y-127565000D01*
X144085000Y-126511474D01*
X144246632Y-126403475D01*
X144453475Y-126196632D01*
X144615990Y-125953411D01*
X144727932Y-125683158D01*
X144785000Y-125396260D01*
X144785000Y-125103740D01*
X144727932Y-124816842D01*
X144615990Y-124546589D01*
X144453475Y-124303368D01*
X144246632Y-124096525D01*
X144003411Y-123934010D01*
X143733158Y-123822068D01*
X143446260Y-123765000D01*
X143153740Y-123765000D01*
X142866842Y-123822068D01*
X142596589Y-123934010D01*
X142353368Y-124096525D01*
X142146525Y-124303368D01*
X142030000Y-124477760D01*
X141913475Y-124303368D01*
X141706632Y-124096525D01*
X141545000Y-123988526D01*
X141545000Y-120627236D01*
X141560595Y-120633696D01*
X141818514Y-120685000D01*
X142081486Y-120685000D01*
X142339405Y-120633696D01*
X142582359Y-120533061D01*
X142801013Y-120386962D01*
X142986962Y-120201013D01*
X143133061Y-119982359D01*
X143233696Y-119739405D01*
X143285000Y-119481486D01*
X143285000Y-119218514D01*
X143233696Y-118960595D01*
X143133061Y-118717641D01*
X142986962Y-118498987D01*
X142801013Y-118313038D01*
X142582359Y-118166939D01*
X142339405Y-118066304D01*
X142081486Y-118015000D01*
X141818514Y-118015000D01*
X141651848Y-118048152D01*
X141685000Y-117881486D01*
X141685000Y-117618514D01*
X141651756Y-117451387D01*
X141761740Y-117478183D01*
X142024473Y-117489390D01*
X142284344Y-117449125D01*
X142531366Y-117358935D01*
X142632203Y-117305037D01*
X142691664Y-117071269D01*
X141950000Y-116329605D01*
X141935858Y-116343748D01*
X141756253Y-116164143D01*
X141770395Y-116150000D01*
X142129605Y-116150000D01*
X142871269Y-116891664D01*
X143105037Y-116832203D01*
X143215934Y-116593758D01*
X143278183Y-116338260D01*
X143289390Y-116075527D01*
X143249125Y-115815656D01*
X143158935Y-115568634D01*
X143105037Y-115467797D01*
X142871269Y-115408336D01*
X142129605Y-116150000D01*
X141770395Y-116150000D01*
X141028731Y-115408336D01*
X140794963Y-115467797D01*
X140684066Y-115706242D01*
X140621817Y-115961740D01*
X140610610Y-116224473D01*
X140645176Y-116447560D01*
X140481486Y-116415000D01*
X140218514Y-116415000D01*
X139960595Y-116466304D01*
X139717641Y-116566939D01*
X139633390Y-116623233D01*
X139435000Y-116424843D01*
X139435000Y-116275157D01*
X140481426Y-115228731D01*
X141208336Y-115228731D01*
X141950000Y-115970395D01*
X142691664Y-115228731D01*
X142632203Y-114994963D01*
X142393758Y-114884066D01*
X142138260Y-114821817D01*
X141875527Y-114810610D01*
X141615656Y-114850875D01*
X141368634Y-114941065D01*
X141267797Y-114994963D01*
X141208336Y-115228731D01*
X140481426Y-115228731D01*
X141948125Y-113762033D01*
X142063589Y-113785000D01*
X142336411Y-113785000D01*
X142603989Y-113731775D01*
X142856043Y-113627371D01*
X143082886Y-113475799D01*
X143275799Y-113282886D01*
X143427371Y-113056043D01*
X143531775Y-112803989D01*
X143585000Y-112536411D01*
X143585000Y-112263589D01*
X143531775Y-111996011D01*
X143427371Y-111743957D01*
X143275799Y-111517114D01*
X143082886Y-111324201D01*
X142856043Y-111172629D01*
X142603989Y-111068225D01*
X142336411Y-111015000D01*
X142063589Y-111015000D01*
X141796011Y-111068225D01*
X141543957Y-111172629D01*
X141317114Y-111324201D01*
X141124201Y-111517114D01*
X140972629Y-111743957D01*
X140868225Y-111996011D01*
X140815000Y-112263589D01*
X140815000Y-112536411D01*
X140837967Y-112651875D01*
X138122190Y-115367653D01*
X138092236Y-115392236D01*
X137994138Y-115511768D01*
X137921246Y-115648141D01*
X137876359Y-115796114D01*
X137865000Y-115911440D01*
X137865000Y-115911447D01*
X137861203Y-115950000D01*
X137865000Y-115988553D01*
X137865000Y-116711447D01*
X137861203Y-116750000D01*
X137865000Y-116788553D01*
X137865000Y-116788561D01*
X137869299Y-116832203D01*
X137876359Y-116903886D01*
X137921246Y-117051859D01*
X137931621Y-117071269D01*
X137994139Y-117188233D01*
X138018274Y-117217641D01*
X138067655Y-117277812D01*
X138067659Y-117277816D01*
X138092237Y-117307764D01*
X138122185Y-117332342D01*
X139067653Y-118277810D01*
X139092236Y-118307764D01*
X139158601Y-118362229D01*
X139166939Y-118382359D01*
X139313038Y-118601013D01*
X139498987Y-118786962D01*
X139717641Y-118933061D01*
X139960595Y-119033696D01*
X140139110Y-119069205D01*
X140104138Y-119111819D01*
X140031246Y-119248192D01*
X139986359Y-119396165D01*
X139975000Y-119511491D01*
X139975000Y-119511498D01*
X139971203Y-119550051D01*
X139975000Y-119588604D01*
X139975001Y-123988525D01*
X139813368Y-124096525D01*
X139606525Y-124303368D01*
X139444010Y-124546589D01*
X139332068Y-124816842D01*
X139275000Y-125103740D01*
X139275000Y-125396260D01*
X139332068Y-125683158D01*
X139444010Y-125953411D01*
X139606525Y-126196632D01*
X139813368Y-126403475D01*
X140056589Y-126565990D01*
X140326842Y-126677932D01*
X140613740Y-126735000D01*
X140906260Y-126735000D01*
X141193158Y-126677932D01*
X141463411Y-126565990D01*
X141706632Y-126403475D01*
X141913475Y-126196632D01*
X142030000Y-126022240D01*
X142146525Y-126196632D01*
X142353368Y-126403475D01*
X142515000Y-126511474D01*
X142515001Y-127565000D01*
X137435000Y-127565000D01*
X137435000Y-126511474D01*
X137596632Y-126403475D01*
X137803475Y-126196632D01*
X137965990Y-125953411D01*
X138077932Y-125683158D01*
X138135000Y-125396260D01*
X138135000Y-125103740D01*
X138077932Y-124816842D01*
X137965990Y-124546589D01*
X137803475Y-124303368D01*
X137596632Y-124096525D01*
X137353411Y-123934010D01*
X137083158Y-123822068D01*
X136796260Y-123765000D01*
X136503740Y-123765000D01*
X136216842Y-123822068D01*
X135946589Y-123934010D01*
X135703368Y-124096525D01*
X135496525Y-124303368D01*
X135380000Y-124477760D01*
X135263475Y-124303368D01*
X135056632Y-124096525D01*
X134935000Y-124015253D01*
X134935000Y-120481070D01*
X135001013Y-120436962D01*
X135186962Y-120251013D01*
X135333061Y-120032359D01*
X135433696Y-119789405D01*
X135485000Y-119531486D01*
X135485000Y-119268514D01*
X135433696Y-119010595D01*
X135333061Y-118767641D01*
X135186962Y-118548987D01*
X135001013Y-118363038D01*
X134782359Y-118216939D01*
X134539405Y-118116304D01*
X134281486Y-118065000D01*
X134018514Y-118065000D01*
X133851848Y-118098152D01*
X133885000Y-117931486D01*
X133885000Y-117668514D01*
X133851756Y-117501387D01*
X133961740Y-117528183D01*
X134224473Y-117539390D01*
X134484344Y-117499125D01*
X134731366Y-117408935D01*
X134832203Y-117355037D01*
X134891664Y-117121269D01*
X134150000Y-116379605D01*
X134135858Y-116393748D01*
X133956253Y-116214143D01*
X133970395Y-116200000D01*
X134329605Y-116200000D01*
X135071269Y-116941664D01*
X135305037Y-116882203D01*
X135415934Y-116643758D01*
X135478183Y-116388260D01*
X135489390Y-116125527D01*
X135449125Y-115865656D01*
X135358935Y-115618634D01*
X135305037Y-115517797D01*
X135071269Y-115458336D01*
X134329605Y-116200000D01*
X133970395Y-116200000D01*
X133956253Y-116185858D01*
X134135858Y-116006253D01*
X134150000Y-116020395D01*
X134891664Y-115278731D01*
X134832203Y-115044963D01*
X134593758Y-114934066D01*
X134338260Y-114871817D01*
X134075527Y-114860610D01*
X133815656Y-114900875D01*
X133568634Y-114991065D01*
X133467797Y-115044963D01*
X133408337Y-115278729D01*
X133335000Y-115205392D01*
X133335000Y-114825157D01*
X134905403Y-113254754D01*
X134924201Y-113282886D01*
X135117114Y-113475799D01*
X135343957Y-113627371D01*
X135596011Y-113731775D01*
X135863589Y-113785000D01*
X136136411Y-113785000D01*
X136403989Y-113731775D01*
X136656043Y-113627371D01*
X136882886Y-113475799D01*
X137075799Y-113282886D01*
X137227371Y-113056043D01*
X137331775Y-112803989D01*
X137385000Y-112536411D01*
X137385000Y-112263589D01*
X137331775Y-111996011D01*
X137227371Y-111743957D01*
X137075799Y-111517114D01*
X136882886Y-111324201D01*
X136656043Y-111172629D01*
X136403989Y-111068225D01*
X136136411Y-111015000D01*
X135863589Y-111015000D01*
X135596011Y-111068225D01*
X135343957Y-111172629D01*
X135117114Y-111324201D01*
X134926315Y-111515000D01*
X134788556Y-111515000D01*
X134750000Y-111511203D01*
X134711444Y-111515000D01*
X134711439Y-111515000D01*
X134671026Y-111518980D01*
X134596113Y-111526358D01*
X134467916Y-111565247D01*
X134448140Y-111571246D01*
X134311767Y-111644138D01*
X134192236Y-111742236D01*
X134167653Y-111772190D01*
X132663741Y-113276102D01*
X132777371Y-113106043D01*
X132881775Y-112853989D01*
X132935000Y-112586411D01*
X132935000Y-112313589D01*
X132881775Y-112046011D01*
X132777371Y-111793957D01*
X132625799Y-111567114D01*
X132432886Y-111374201D01*
X132206043Y-111222629D01*
X131953989Y-111118225D01*
X131686411Y-111065000D01*
X131413589Y-111065000D01*
X131146011Y-111118225D01*
X130893957Y-111222629D01*
X130667114Y-111374201D01*
X130474201Y-111567114D01*
X130408796Y-111665000D01*
X126838552Y-111665000D01*
X126799999Y-111661203D01*
X126761446Y-111665000D01*
X126761439Y-111665000D01*
X126646113Y-111676359D01*
X126498140Y-111721246D01*
X126361767Y-111794138D01*
X126303160Y-111842236D01*
X126272187Y-111867655D01*
X126272184Y-111867658D01*
X126242236Y-111892236D01*
X126217658Y-111922184D01*
X124572185Y-113567658D01*
X124542237Y-113592236D01*
X124517659Y-113622184D01*
X124517655Y-113622188D01*
X124493248Y-113651928D01*
X124444139Y-113711767D01*
X124436340Y-113726359D01*
X124371246Y-113848141D01*
X124326359Y-113996114D01*
X124311203Y-114150000D01*
X124315001Y-114188563D01*
X124315000Y-116668930D01*
X124248987Y-116713038D01*
X124063038Y-116898987D01*
X123916939Y-117117641D01*
X123816304Y-117360595D01*
X123765000Y-117618514D01*
X110647850Y-117618514D01*
X110636429Y-105981862D01*
X110746525Y-106146632D01*
X110953368Y-106353475D01*
X111196589Y-106515990D01*
X111466842Y-106627932D01*
X111753740Y-106685000D01*
X112046260Y-106685000D01*
X112333158Y-106627932D01*
X112603411Y-106515990D01*
X112846632Y-106353475D01*
X113053475Y-106146632D01*
X113128065Y-106035000D01*
X122011447Y-106035000D01*
X122050000Y-106038797D01*
X122088553Y-106035000D01*
X122088561Y-106035000D01*
X122203887Y-106023641D01*
X122351860Y-105978754D01*
X122488233Y-105905862D01*
X122607764Y-105807764D01*
X122632347Y-105777810D01*
X124332345Y-104077813D01*
X124332349Y-104077808D01*
X124555603Y-103854554D01*
X124708665Y-103885000D01*
X124991335Y-103885000D01*
X125268574Y-103829853D01*
X125529727Y-103721680D01*
X125764759Y-103564637D01*
X125964637Y-103364759D01*
X126121680Y-103129727D01*
X126229853Y-102868574D01*
X126285000Y-102591335D01*
X126285000Y-102308665D01*
X126229853Y-102031426D01*
X126121680Y-101770273D01*
X125964637Y-101535241D01*
X125764759Y-101335363D01*
X125529727Y-101178320D01*
X125268574Y-101070147D01*
X124991335Y-101015000D01*
X124708665Y-101015000D01*
X124431426Y-101070147D01*
X124170273Y-101178320D01*
X123935241Y-101335363D01*
X123735363Y-101535241D01*
X123578320Y-101770273D01*
X123470147Y-102031426D01*
X123415000Y-102308665D01*
X123415000Y-102591335D01*
X123445446Y-102744397D01*
X123222192Y-102967651D01*
X123222187Y-102967655D01*
X121724843Y-104465000D01*
X113194883Y-104465000D01*
X113053475Y-104253368D01*
X112846632Y-104046525D01*
X112603411Y-103884010D01*
X112333158Y-103772068D01*
X112046260Y-103715000D01*
X111753740Y-103715000D01*
X111466842Y-103772068D01*
X111196589Y-103884010D01*
X110953368Y-104046525D01*
X110746525Y-104253368D01*
X110634897Y-104420431D01*
X110625171Y-94508665D01*
X123415000Y-94508665D01*
X123415000Y-94791335D01*
X123470147Y-95068574D01*
X123578320Y-95329727D01*
X123735363Y-95564759D01*
X123935241Y-95764637D01*
X124170273Y-95921680D01*
X124431426Y-96029853D01*
X124708665Y-96085000D01*
X124991335Y-96085000D01*
X125144396Y-96054554D01*
X127015000Y-97925158D01*
X127015001Y-98711438D01*
X127011203Y-98750000D01*
X127026359Y-98903886D01*
X127071246Y-99051859D01*
X127102323Y-99109999D01*
X127144139Y-99188233D01*
X127184690Y-99237644D01*
X127217655Y-99277812D01*
X127217659Y-99277816D01*
X127242237Y-99307764D01*
X127272186Y-99332343D01*
X127577649Y-99637805D01*
X127602236Y-99667764D01*
X127721767Y-99765862D01*
X127858138Y-99838753D01*
X127858140Y-99838754D01*
X128006113Y-99883642D01*
X128081026Y-99891020D01*
X128121439Y-99895000D01*
X128121444Y-99895000D01*
X128160000Y-99898797D01*
X128198556Y-99895000D01*
X130098796Y-99895000D01*
X130164201Y-99992886D01*
X130357114Y-100185799D01*
X130583957Y-100337371D01*
X130686873Y-100380000D01*
X130583957Y-100422629D01*
X130357114Y-100574201D01*
X130164201Y-100767114D01*
X130012629Y-100993957D01*
X129908225Y-101246011D01*
X129875788Y-101409081D01*
X129726866Y-101558003D01*
X129683552Y-101593550D01*
X129541717Y-101766376D01*
X129442078Y-101952790D01*
X126186865Y-105208004D01*
X126143551Y-105243551D01*
X126001716Y-105416377D01*
X125912313Y-105583641D01*
X125896324Y-105613554D01*
X125831423Y-105827502D01*
X125809509Y-106050000D01*
X125815000Y-106105752D01*
X125815001Y-108044239D01*
X125809509Y-108100000D01*
X125831423Y-108322498D01*
X125896324Y-108536446D01*
X125896325Y-108536447D01*
X126001717Y-108733623D01*
X126143552Y-108906449D01*
X126186860Y-108941991D01*
X127458008Y-110213140D01*
X127493551Y-110256449D01*
X127666377Y-110398284D01*
X127863553Y-110503676D01*
X128077501Y-110568577D01*
X128244248Y-110585000D01*
X128244257Y-110585000D01*
X128299999Y-110590490D01*
X128355741Y-110585000D01*
X152644249Y-110585000D01*
X152700000Y-110590491D01*
X152755751Y-110585000D01*
X152755752Y-110585000D01*
X152922499Y-110568577D01*
X153136447Y-110503676D01*
X153333623Y-110398284D01*
X153506449Y-110256449D01*
X153541996Y-110213135D01*
X156263141Y-107491991D01*
X156306449Y-107456449D01*
X156448284Y-107283623D01*
X156553676Y-107086447D01*
X156618577Y-106872499D01*
X156635000Y-106705752D01*
X156635000Y-106705751D01*
X156640491Y-106650000D01*
X156635000Y-106594249D01*
X156635000Y-102306993D01*
X158522612Y-102306993D01*
X158588137Y-102545860D01*
X158835116Y-102661760D01*
X159099960Y-102727250D01*
X159372492Y-102739812D01*
X159642238Y-102698965D01*
X159898832Y-102606277D01*
X160011863Y-102545860D01*
X160077388Y-102306993D01*
X159300000Y-101529605D01*
X158522612Y-102306993D01*
X156635000Y-102306993D01*
X156635000Y-101422492D01*
X157910188Y-101422492D01*
X157951035Y-101692238D01*
X158043723Y-101948832D01*
X158104140Y-102061863D01*
X158343007Y-102127388D01*
X159120395Y-101350000D01*
X158343007Y-100572612D01*
X158104140Y-100638137D01*
X157988240Y-100885116D01*
X157922750Y-101149960D01*
X157910188Y-101422492D01*
X156635000Y-101422492D01*
X156635000Y-100393007D01*
X158522612Y-100393007D01*
X159300000Y-101170395D01*
X160077388Y-100393007D01*
X160011863Y-100154140D01*
X159764884Y-100038240D01*
X159500040Y-99972750D01*
X159227508Y-99960188D01*
X158957762Y-100001035D01*
X158701168Y-100093723D01*
X158588137Y-100154140D01*
X158522612Y-100393007D01*
X156635000Y-100393007D01*
X156635000Y-98120131D01*
X157027282Y-97727850D01*
X157268574Y-97679853D01*
X157529727Y-97571680D01*
X157734284Y-97435000D01*
X159644249Y-97435000D01*
X159700000Y-97440491D01*
X159755751Y-97435000D01*
X159755752Y-97435000D01*
X159922499Y-97418577D01*
X160136447Y-97353676D01*
X160333623Y-97248284D01*
X160506449Y-97106449D01*
X160541996Y-97063135D01*
X162663141Y-94941991D01*
X162706449Y-94906449D01*
X162848284Y-94733623D01*
X162953676Y-94536447D01*
X163018577Y-94322499D01*
X163035000Y-94155752D01*
X163035000Y-94155751D01*
X163040491Y-94100000D01*
X163035000Y-94044248D01*
X163035000Y-91954288D01*
X163083061Y-91882359D01*
X163183696Y-91639405D01*
X163235000Y-91381486D01*
X163235000Y-91118514D01*
X163183696Y-90860595D01*
X163083061Y-90617641D01*
X162936962Y-90398987D01*
X162751013Y-90213038D01*
X162532359Y-90066939D01*
X162289405Y-89966304D01*
X162031486Y-89915000D01*
X161768514Y-89915000D01*
X161510595Y-89966304D01*
X161267641Y-90066939D01*
X161048987Y-90213038D01*
X160863038Y-90398987D01*
X160716939Y-90617641D01*
X160616304Y-90860595D01*
X160565000Y-91118514D01*
X160565000Y-91381486D01*
X160616304Y-91639405D01*
X160716939Y-91882359D01*
X160765001Y-91954289D01*
X160765000Y-93629868D01*
X159229869Y-95165000D01*
X157734284Y-95165000D01*
X157529727Y-95028320D01*
X157268574Y-94920147D01*
X156991335Y-94865000D01*
X156708665Y-94865000D01*
X156431426Y-94920147D01*
X156170273Y-95028320D01*
X155935241Y-95185363D01*
X155735363Y-95385241D01*
X155578320Y-95620273D01*
X155470147Y-95881426D01*
X155422150Y-96122718D01*
X154736860Y-96808009D01*
X154693552Y-96843551D01*
X154551717Y-97016377D01*
X154526720Y-97063144D01*
X154446324Y-97213554D01*
X154381423Y-97427502D01*
X154359509Y-97650000D01*
X154365001Y-97705761D01*
X154365000Y-106179868D01*
X152229869Y-108315000D01*
X128770132Y-108315000D01*
X128085000Y-107629869D01*
X128085000Y-106520131D01*
X131253142Y-103351990D01*
X131296450Y-103316448D01*
X131438285Y-103143622D01*
X131510612Y-103008305D01*
X131643989Y-102981775D01*
X131896043Y-102877371D01*
X132122886Y-102725799D01*
X132315799Y-102532886D01*
X132467371Y-102306043D01*
X132571775Y-102053989D01*
X132625000Y-101786411D01*
X132625000Y-101513589D01*
X132571775Y-101246011D01*
X132467371Y-100993957D01*
X132315799Y-100767114D01*
X132122886Y-100574201D01*
X131896043Y-100422629D01*
X131793127Y-100380000D01*
X131896043Y-100337371D01*
X132122886Y-100185799D01*
X132315799Y-99992886D01*
X132467371Y-99766043D01*
X132571775Y-99513989D01*
X132625000Y-99246411D01*
X132625000Y-98973589D01*
X132571775Y-98706011D01*
X132467371Y-98453957D01*
X132315799Y-98227114D01*
X132122886Y-98034201D01*
X131896043Y-97882629D01*
X131793127Y-97840000D01*
X131896043Y-97797371D01*
X132122886Y-97645799D01*
X132315799Y-97452886D01*
X132467371Y-97226043D01*
X132571775Y-96973989D01*
X132625000Y-96706411D01*
X132625000Y-96433589D01*
X132571775Y-96166011D01*
X132467371Y-95913957D01*
X132315799Y-95687114D01*
X132122886Y-95494201D01*
X131896043Y-95342629D01*
X131796721Y-95301489D01*
X131838832Y-95286277D01*
X131951863Y-95225860D01*
X132017388Y-94986993D01*
X131240000Y-94209605D01*
X130462612Y-94986993D01*
X130528137Y-95225860D01*
X130686477Y-95300164D01*
X130583957Y-95342629D01*
X130357114Y-95494201D01*
X130164201Y-95687114D01*
X130012629Y-95913957D01*
X129908225Y-96166011D01*
X129855000Y-96433589D01*
X129855000Y-96614843D01*
X129635000Y-96394843D01*
X129635000Y-94102492D01*
X129850188Y-94102492D01*
X129891035Y-94372238D01*
X129983723Y-94628832D01*
X130044140Y-94741863D01*
X130283007Y-94807388D01*
X131060395Y-94030000D01*
X131419605Y-94030000D01*
X132196993Y-94807388D01*
X132435860Y-94741863D01*
X132551760Y-94494884D01*
X132617250Y-94230040D01*
X132629812Y-93957508D01*
X132588965Y-93687762D01*
X132496277Y-93431168D01*
X132435860Y-93318137D01*
X132196993Y-93252612D01*
X131419605Y-94030000D01*
X131060395Y-94030000D01*
X130283007Y-93252612D01*
X130044140Y-93318137D01*
X129928240Y-93565116D01*
X129862750Y-93829960D01*
X129850188Y-94102492D01*
X129635000Y-94102492D01*
X129635000Y-83733589D01*
X129855000Y-83733589D01*
X129855000Y-84006411D01*
X129908225Y-84273989D01*
X130012629Y-84526043D01*
X130164201Y-84752886D01*
X130357114Y-84945799D01*
X130583957Y-85097371D01*
X130686873Y-85140000D01*
X130583957Y-85182629D01*
X130357114Y-85334201D01*
X130164201Y-85527114D01*
X130012629Y-85753957D01*
X129908225Y-86006011D01*
X129855000Y-86273589D01*
X129855000Y-86546411D01*
X129908225Y-86813989D01*
X130012629Y-87066043D01*
X130164201Y-87292886D01*
X130357114Y-87485799D01*
X130583957Y-87637371D01*
X130686873Y-87680000D01*
X130583957Y-87722629D01*
X130357114Y-87874201D01*
X130164201Y-88067114D01*
X130012629Y-88293957D01*
X129908225Y-88546011D01*
X129855000Y-88813589D01*
X129855000Y-89086411D01*
X129908225Y-89353989D01*
X130012629Y-89606043D01*
X130164201Y-89832886D01*
X130357114Y-90025799D01*
X130583957Y-90177371D01*
X130686873Y-90220000D01*
X130583957Y-90262629D01*
X130357114Y-90414201D01*
X130164201Y-90607114D01*
X130012629Y-90833957D01*
X129908225Y-91086011D01*
X129855000Y-91353589D01*
X129855000Y-91626411D01*
X129908225Y-91893989D01*
X130012629Y-92146043D01*
X130164201Y-92372886D01*
X130357114Y-92565799D01*
X130583957Y-92717371D01*
X130683279Y-92758511D01*
X130641168Y-92773723D01*
X130528137Y-92834140D01*
X130462612Y-93073007D01*
X131240000Y-93850395D01*
X132017388Y-93073007D01*
X131951863Y-92834140D01*
X131793523Y-92759836D01*
X131896043Y-92717371D01*
X132122886Y-92565799D01*
X132315799Y-92372886D01*
X132467371Y-92146043D01*
X132571775Y-91893989D01*
X132625000Y-91626411D01*
X132625000Y-91353589D01*
X132571775Y-91086011D01*
X132467371Y-90833957D01*
X132315799Y-90607114D01*
X132122886Y-90414201D01*
X131896043Y-90262629D01*
X131793127Y-90220000D01*
X131896043Y-90177371D01*
X132122886Y-90025799D01*
X132315799Y-89832886D01*
X132467371Y-89606043D01*
X132571775Y-89353989D01*
X132625000Y-89086411D01*
X132625000Y-88905157D01*
X133615000Y-89895157D01*
X133615001Y-102274842D01*
X131801875Y-104087968D01*
X131686411Y-104065000D01*
X131413589Y-104065000D01*
X131146011Y-104118225D01*
X130893957Y-104222629D01*
X130667114Y-104374201D01*
X130474201Y-104567114D01*
X130322629Y-104793957D01*
X130218225Y-105046011D01*
X130165000Y-105313589D01*
X130165000Y-105586411D01*
X130218225Y-105853989D01*
X130322629Y-106106043D01*
X130474201Y-106332886D01*
X130667114Y-106525799D01*
X130893957Y-106677371D01*
X131146011Y-106781775D01*
X131413589Y-106835000D01*
X131686411Y-106835000D01*
X131953989Y-106781775D01*
X132206043Y-106677371D01*
X132432886Y-106525799D01*
X132625799Y-106332886D01*
X132777371Y-106106043D01*
X132881775Y-105853989D01*
X132935000Y-105586411D01*
X132935000Y-105313589D01*
X132925055Y-105263589D01*
X134615000Y-105263589D01*
X134615000Y-105536411D01*
X134668225Y-105803989D01*
X134772629Y-106056043D01*
X134924201Y-106282886D01*
X135117114Y-106475799D01*
X135343957Y-106627371D01*
X135596011Y-106731775D01*
X135863589Y-106785000D01*
X136136411Y-106785000D01*
X136403989Y-106731775D01*
X136656043Y-106627371D01*
X136882886Y-106475799D01*
X137075799Y-106282886D01*
X137227371Y-106056043D01*
X137331775Y-105803989D01*
X137385000Y-105536411D01*
X137385000Y-105263589D01*
X137331775Y-104996011D01*
X137227371Y-104743957D01*
X137075799Y-104517114D01*
X136882886Y-104324201D01*
X136835000Y-104292205D01*
X136835000Y-88175157D01*
X137757393Y-87252764D01*
X137784201Y-87292886D01*
X137977114Y-87485799D01*
X138203957Y-87637371D01*
X138306873Y-87680000D01*
X138203957Y-87722629D01*
X137977114Y-87874201D01*
X137784201Y-88067114D01*
X137632629Y-88293957D01*
X137528225Y-88546011D01*
X137475000Y-88813589D01*
X137475000Y-89086411D01*
X137528225Y-89353989D01*
X137632629Y-89606043D01*
X137784201Y-89832886D01*
X137977114Y-90025799D01*
X138203957Y-90177371D01*
X138306873Y-90220000D01*
X138203957Y-90262629D01*
X137977114Y-90414201D01*
X137784201Y-90607114D01*
X137632629Y-90833957D01*
X137528225Y-91086011D01*
X137475000Y-91353589D01*
X137475000Y-91626411D01*
X137528225Y-91893989D01*
X137632629Y-92146043D01*
X137784201Y-92372886D01*
X137977114Y-92565799D01*
X138203957Y-92717371D01*
X138306873Y-92760000D01*
X138203957Y-92802629D01*
X137977114Y-92954201D01*
X137784201Y-93147114D01*
X137632629Y-93373957D01*
X137528225Y-93626011D01*
X137475000Y-93893589D01*
X137475000Y-94166411D01*
X137528225Y-94433989D01*
X137632629Y-94686043D01*
X137784201Y-94912886D01*
X137977114Y-95105799D01*
X138203957Y-95257371D01*
X138306873Y-95300000D01*
X138203957Y-95342629D01*
X137977114Y-95494201D01*
X137784201Y-95687114D01*
X137632629Y-95913957D01*
X137528225Y-96166011D01*
X137475000Y-96433589D01*
X137475000Y-96706411D01*
X137528225Y-96973989D01*
X137632629Y-97226043D01*
X137784201Y-97452886D01*
X137977114Y-97645799D01*
X138203957Y-97797371D01*
X138306873Y-97840000D01*
X138203957Y-97882629D01*
X137977114Y-98034201D01*
X137784201Y-98227114D01*
X137632629Y-98453957D01*
X137528225Y-98706011D01*
X137475000Y-98973589D01*
X137475000Y-99246411D01*
X137528225Y-99513989D01*
X137632629Y-99766043D01*
X137784201Y-99992886D01*
X137977114Y-100185799D01*
X138203957Y-100337371D01*
X138306873Y-100380000D01*
X138203957Y-100422629D01*
X137977114Y-100574201D01*
X137784201Y-100767114D01*
X137632629Y-100993957D01*
X137528225Y-101246011D01*
X137475000Y-101513589D01*
X137475000Y-101786411D01*
X137528225Y-102053989D01*
X137632629Y-102306043D01*
X137784201Y-102532886D01*
X137977114Y-102725799D01*
X138075000Y-102791205D01*
X138075001Y-104771437D01*
X138071203Y-104810000D01*
X138086359Y-104963886D01*
X138131246Y-105111859D01*
X138131247Y-105111860D01*
X138204139Y-105248233D01*
X138244690Y-105297644D01*
X138277655Y-105337812D01*
X138277659Y-105337816D01*
X138302237Y-105367764D01*
X138332185Y-105392342D01*
X138867657Y-105927815D01*
X138892236Y-105957764D01*
X138922184Y-105982342D01*
X138922187Y-105982345D01*
X138950843Y-106005862D01*
X139011767Y-106055862D01*
X139148140Y-106128754D01*
X139296113Y-106173641D01*
X139411439Y-106185000D01*
X139411446Y-106185000D01*
X139449999Y-106188797D01*
X139488552Y-106185000D01*
X141058796Y-106185000D01*
X141124201Y-106282886D01*
X141317114Y-106475799D01*
X141543957Y-106627371D01*
X141796011Y-106731775D01*
X142063589Y-106785000D01*
X142336411Y-106785000D01*
X142603989Y-106731775D01*
X142856043Y-106627371D01*
X143082886Y-106475799D01*
X143275799Y-106282886D01*
X143427371Y-106056043D01*
X143531775Y-105803989D01*
X143585000Y-105536411D01*
X143585000Y-105445157D01*
X144167653Y-106027810D01*
X144192236Y-106057764D01*
X144311767Y-106155862D01*
X144438574Y-106223641D01*
X144448140Y-106228754D01*
X144596113Y-106273642D01*
X144671026Y-106281020D01*
X144711439Y-106285000D01*
X144711444Y-106285000D01*
X144750000Y-106288797D01*
X144788556Y-106285000D01*
X145158796Y-106285000D01*
X145224201Y-106382886D01*
X145417114Y-106575799D01*
X145643957Y-106727371D01*
X145896011Y-106831775D01*
X146163589Y-106885000D01*
X146436411Y-106885000D01*
X146703989Y-106831775D01*
X146956043Y-106727371D01*
X147182886Y-106575799D01*
X147375799Y-106382886D01*
X147527371Y-106156043D01*
X147631775Y-105903989D01*
X147685000Y-105636411D01*
X147685000Y-105363589D01*
X147668008Y-105278165D01*
X148417653Y-106027810D01*
X148442236Y-106057764D01*
X148561767Y-106155862D01*
X148688574Y-106223641D01*
X148698140Y-106228754D01*
X148846113Y-106273642D01*
X148921026Y-106281020D01*
X148961439Y-106285000D01*
X148961444Y-106285000D01*
X149000000Y-106288797D01*
X149038556Y-106285000D01*
X149308796Y-106285000D01*
X149374201Y-106382886D01*
X149567114Y-106575799D01*
X149793957Y-106727371D01*
X150046011Y-106831775D01*
X150313589Y-106885000D01*
X150586411Y-106885000D01*
X150853989Y-106831775D01*
X151106043Y-106727371D01*
X151332886Y-106575799D01*
X151525799Y-106382886D01*
X151677371Y-106156043D01*
X151781775Y-105903989D01*
X151835000Y-105636411D01*
X151835000Y-105363589D01*
X151781775Y-105096011D01*
X151677371Y-104843957D01*
X151525799Y-104617114D01*
X151332886Y-104424201D01*
X151106043Y-104272629D01*
X150853989Y-104168225D01*
X150586411Y-104115000D01*
X150313589Y-104115000D01*
X150046011Y-104168225D01*
X149793957Y-104272629D01*
X149567114Y-104424201D01*
X149374201Y-104617114D01*
X149315349Y-104705192D01*
X144785000Y-100174843D01*
X144785000Y-98888552D01*
X144788797Y-98849999D01*
X144785000Y-98811446D01*
X144785000Y-98811439D01*
X144773641Y-98696113D01*
X144728754Y-98548140D01*
X144655862Y-98411767D01*
X144606450Y-98351559D01*
X144582345Y-98322187D01*
X144582342Y-98322184D01*
X144557764Y-98292236D01*
X144527817Y-98267659D01*
X140245000Y-93984843D01*
X140245000Y-93893589D01*
X140191775Y-93626011D01*
X140087371Y-93373957D01*
X139935799Y-93147114D01*
X139742886Y-92954201D01*
X139516043Y-92802629D01*
X139413127Y-92760000D01*
X139516043Y-92717371D01*
X139742886Y-92565799D01*
X139935799Y-92372886D01*
X140001204Y-92275000D01*
X142114843Y-92275000D01*
X150795446Y-100955604D01*
X150765000Y-101108665D01*
X150765000Y-101391335D01*
X150820147Y-101668574D01*
X150928320Y-101929727D01*
X151085363Y-102164759D01*
X151285241Y-102364637D01*
X151520273Y-102521680D01*
X151781426Y-102629853D01*
X152058665Y-102685000D01*
X152341335Y-102685000D01*
X152618574Y-102629853D01*
X152879727Y-102521680D01*
X153114759Y-102364637D01*
X153314637Y-102164759D01*
X153471680Y-101929727D01*
X153579853Y-101668574D01*
X153635000Y-101391335D01*
X153635000Y-101108665D01*
X153579853Y-100831426D01*
X153471680Y-100570273D01*
X153314637Y-100335241D01*
X153114759Y-100135363D01*
X152879727Y-99978320D01*
X152618574Y-99870147D01*
X152341335Y-99815000D01*
X152058665Y-99815000D01*
X151905604Y-99845446D01*
X143022347Y-90962190D01*
X142997764Y-90932236D01*
X142878233Y-90834138D01*
X142741860Y-90761246D01*
X142593887Y-90716359D01*
X142478561Y-90705000D01*
X142478553Y-90705000D01*
X142440000Y-90701203D01*
X142401447Y-90705000D01*
X140001204Y-90705000D01*
X139935799Y-90607114D01*
X139742886Y-90414201D01*
X139516043Y-90262629D01*
X139413127Y-90220000D01*
X139516043Y-90177371D01*
X139742886Y-90025799D01*
X139935799Y-89832886D01*
X140087371Y-89606043D01*
X140191775Y-89353989D01*
X140245000Y-89086411D01*
X140245000Y-88813589D01*
X140191775Y-88546011D01*
X140087371Y-88293957D01*
X139935799Y-88067114D01*
X139742886Y-87874201D01*
X139516043Y-87722629D01*
X139413127Y-87680000D01*
X139516043Y-87637371D01*
X139742886Y-87485799D01*
X139935799Y-87292886D01*
X140087371Y-87066043D01*
X140191775Y-86813989D01*
X140245000Y-86546411D01*
X140245000Y-86273589D01*
X140191775Y-86006011D01*
X140087371Y-85753957D01*
X139935799Y-85527114D01*
X139742886Y-85334201D01*
X139516043Y-85182629D01*
X139416721Y-85141489D01*
X139458832Y-85126277D01*
X139571863Y-85065860D01*
X139637388Y-84826993D01*
X138860000Y-84049605D01*
X138082612Y-84826993D01*
X138148137Y-85065860D01*
X138306477Y-85140164D01*
X138203957Y-85182629D01*
X137977114Y-85334201D01*
X137784201Y-85527114D01*
X137718796Y-85625000D01*
X137528556Y-85625000D01*
X137490000Y-85621203D01*
X137451444Y-85625000D01*
X137451439Y-85625000D01*
X137411026Y-85628980D01*
X137336113Y-85636358D01*
X137188140Y-85681246D01*
X137051767Y-85754138D01*
X136932236Y-85852236D01*
X136907653Y-85882190D01*
X135522185Y-87267658D01*
X135492237Y-87292236D01*
X135467659Y-87322184D01*
X135467655Y-87322188D01*
X135434690Y-87362356D01*
X135394139Y-87411767D01*
X135355177Y-87484660D01*
X135321246Y-87548141D01*
X135276359Y-87696114D01*
X135261203Y-87850000D01*
X135265001Y-87888563D01*
X135265000Y-104225386D01*
X135117114Y-104324201D01*
X134924201Y-104517114D01*
X134772629Y-104743957D01*
X134668225Y-104996011D01*
X134615000Y-105263589D01*
X132925055Y-105263589D01*
X132912032Y-105198125D01*
X134927810Y-103182347D01*
X134957764Y-103157764D01*
X135055862Y-103038233D01*
X135128754Y-102901860D01*
X135138851Y-102868574D01*
X135173642Y-102753887D01*
X135182715Y-102661760D01*
X135185000Y-102638561D01*
X135185000Y-102638556D01*
X135188797Y-102600000D01*
X135185000Y-102561444D01*
X135185000Y-89608556D01*
X135188797Y-89570000D01*
X135185000Y-89531440D01*
X135185000Y-89531439D01*
X135181020Y-89491026D01*
X135173642Y-89416113D01*
X135128754Y-89268140D01*
X135055862Y-89131767D01*
X134957764Y-89012236D01*
X134927811Y-88987654D01*
X132602032Y-86661875D01*
X132625000Y-86546411D01*
X132625000Y-86273589D01*
X132571775Y-86006011D01*
X132467371Y-85753957D01*
X132315799Y-85527114D01*
X132122886Y-85334201D01*
X131896043Y-85182629D01*
X131793127Y-85140000D01*
X131896043Y-85097371D01*
X132122886Y-84945799D01*
X132315799Y-84752886D01*
X132467371Y-84526043D01*
X132571775Y-84273989D01*
X132625000Y-84006411D01*
X132625000Y-83942492D01*
X137470188Y-83942492D01*
X137511035Y-84212238D01*
X137603723Y-84468832D01*
X137664140Y-84581863D01*
X137903007Y-84647388D01*
X138680395Y-83870000D01*
X139039605Y-83870000D01*
X139816993Y-84647388D01*
X140055860Y-84581863D01*
X140171760Y-84334884D01*
X140237250Y-84070040D01*
X140249812Y-83797508D01*
X140208965Y-83527762D01*
X140116277Y-83271168D01*
X140055860Y-83158137D01*
X139816993Y-83092612D01*
X139039605Y-83870000D01*
X138680395Y-83870000D01*
X137903007Y-83092612D01*
X137664140Y-83158137D01*
X137548240Y-83405116D01*
X137482750Y-83669960D01*
X137470188Y-83942492D01*
X132625000Y-83942492D01*
X132625000Y-83733589D01*
X132571775Y-83466011D01*
X132467371Y-83213957D01*
X132315799Y-82987114D01*
X132241692Y-82913007D01*
X138082612Y-82913007D01*
X138860000Y-83690395D01*
X139637388Y-82913007D01*
X139571863Y-82674140D01*
X139324884Y-82558240D01*
X139060040Y-82492750D01*
X138787508Y-82480188D01*
X138517762Y-82521035D01*
X138261168Y-82613723D01*
X138148137Y-82674140D01*
X138082612Y-82913007D01*
X132241692Y-82913007D01*
X132122886Y-82794201D01*
X131896043Y-82642629D01*
X131643989Y-82538225D01*
X131376411Y-82485000D01*
X131103589Y-82485000D01*
X130836011Y-82538225D01*
X130583957Y-82642629D01*
X130357114Y-82794201D01*
X130164201Y-82987114D01*
X130012629Y-83213957D01*
X129908225Y-83466011D01*
X129855000Y-83733589D01*
X129635000Y-83733589D01*
X129635000Y-83275157D01*
X131525157Y-81385000D01*
X139024843Y-81385000D01*
X150795446Y-93155604D01*
X150765000Y-93308665D01*
X150765000Y-93591335D01*
X150820147Y-93868574D01*
X150928320Y-94129727D01*
X151085363Y-94364759D01*
X151285241Y-94564637D01*
X151520273Y-94721680D01*
X151781426Y-94829853D01*
X152058665Y-94885000D01*
X152341335Y-94885000D01*
X152618574Y-94829853D01*
X152879727Y-94721680D01*
X153114759Y-94564637D01*
X153314637Y-94364759D01*
X153471680Y-94129727D01*
X153579853Y-93868574D01*
X153635000Y-93591335D01*
X153635000Y-93308665D01*
X153579853Y-93031426D01*
X153471680Y-92770273D01*
X153314637Y-92535241D01*
X153114759Y-92335363D01*
X152879727Y-92178320D01*
X152862705Y-92171269D01*
X156158336Y-92171269D01*
X156217797Y-92405037D01*
X156456242Y-92515934D01*
X156711740Y-92578183D01*
X156974473Y-92589390D01*
X157234344Y-92549125D01*
X157481366Y-92458935D01*
X157582203Y-92405037D01*
X157641664Y-92171269D01*
X156900000Y-91429605D01*
X156158336Y-92171269D01*
X152862705Y-92171269D01*
X152618574Y-92070147D01*
X152341335Y-92015000D01*
X152058665Y-92015000D01*
X151905604Y-92045446D01*
X151184631Y-91324473D01*
X155560610Y-91324473D01*
X155600875Y-91584344D01*
X155691065Y-91831366D01*
X155744963Y-91932203D01*
X155978731Y-91991664D01*
X156720395Y-91250000D01*
X157079605Y-91250000D01*
X157821269Y-91991664D01*
X158055037Y-91932203D01*
X158165934Y-91693758D01*
X158228183Y-91438260D01*
X158239390Y-91175527D01*
X158199125Y-90915656D01*
X158108935Y-90668634D01*
X158055037Y-90567797D01*
X157821269Y-90508336D01*
X157079605Y-91250000D01*
X156720395Y-91250000D01*
X155978731Y-90508336D01*
X155744963Y-90567797D01*
X155634066Y-90806242D01*
X155571817Y-91061740D01*
X155560610Y-91324473D01*
X151184631Y-91324473D01*
X150188889Y-90328731D01*
X156158336Y-90328731D01*
X156900000Y-91070395D01*
X157641664Y-90328731D01*
X157582203Y-90094963D01*
X157343758Y-89984066D01*
X157088260Y-89921817D01*
X156825527Y-89910610D01*
X156565656Y-89950875D01*
X156318634Y-90041065D01*
X156217797Y-90094963D01*
X156158336Y-90328731D01*
X150188889Y-90328731D01*
X143502142Y-83641984D01*
X161365000Y-83641984D01*
X161365000Y-84358016D01*
X161504691Y-85060290D01*
X161778705Y-85721818D01*
X162176511Y-86317177D01*
X162682823Y-86823489D01*
X163278182Y-87221295D01*
X163939710Y-87495309D01*
X164641984Y-87635000D01*
X165358016Y-87635000D01*
X166060290Y-87495309D01*
X166721818Y-87221295D01*
X167317177Y-86823489D01*
X167823489Y-86317177D01*
X168221295Y-85721818D01*
X168495309Y-85060290D01*
X168635000Y-84358016D01*
X168635000Y-83641984D01*
X168495309Y-82939710D01*
X168221295Y-82278182D01*
X167823489Y-81682823D01*
X167317177Y-81176511D01*
X166721818Y-80778705D01*
X166060290Y-80504691D01*
X165358016Y-80365000D01*
X164641984Y-80365000D01*
X163939710Y-80504691D01*
X163278182Y-80778705D01*
X162682823Y-81176511D01*
X162176511Y-81682823D01*
X161778705Y-82278182D01*
X161504691Y-82939710D01*
X161365000Y-83641984D01*
X143502142Y-83641984D01*
X139932347Y-80072190D01*
X139907764Y-80042236D01*
X139788233Y-79944138D01*
X139651860Y-79871246D01*
X139503887Y-79826359D01*
X139388561Y-79815000D01*
X139388553Y-79815000D01*
X139350000Y-79811203D01*
X139311447Y-79815000D01*
X131238556Y-79815000D01*
X131200000Y-79811203D01*
X131161444Y-79815000D01*
X131161439Y-79815000D01*
X131121026Y-79818980D01*
X131046113Y-79826358D01*
X130898140Y-79871246D01*
X130761767Y-79944138D01*
X130642236Y-80042236D01*
X130617653Y-80072190D01*
X128322185Y-82367658D01*
X128292237Y-82392236D01*
X128267659Y-82422184D01*
X128267655Y-82422188D01*
X128234690Y-82462356D01*
X128194139Y-82511767D01*
X128179997Y-82538225D01*
X128121246Y-82648141D01*
X128076359Y-82796114D01*
X128061203Y-82950000D01*
X128065001Y-82988563D01*
X128065000Y-96681447D01*
X128061203Y-96720000D01*
X128064595Y-96754437D01*
X126254554Y-94944396D01*
X126285000Y-94791335D01*
X126285000Y-94508665D01*
X126229853Y-94231426D01*
X126121680Y-93970273D01*
X125964637Y-93735241D01*
X125764759Y-93535363D01*
X125735000Y-93515479D01*
X125735000Y-92591204D01*
X125832886Y-92525799D01*
X126025799Y-92332886D01*
X126177371Y-92106043D01*
X126281775Y-91853989D01*
X126335000Y-91586411D01*
X126335000Y-91313589D01*
X126281775Y-91046011D01*
X126177371Y-90793957D01*
X126025799Y-90567114D01*
X125832886Y-90374201D01*
X125606043Y-90222629D01*
X125353989Y-90118225D01*
X125086411Y-90065000D01*
X124813589Y-90065000D01*
X124546011Y-90118225D01*
X124293957Y-90222629D01*
X124067114Y-90374201D01*
X123874201Y-90567114D01*
X123722629Y-90793957D01*
X123618225Y-91046011D01*
X123565000Y-91313589D01*
X123565000Y-91586411D01*
X123618225Y-91853989D01*
X123722629Y-92106043D01*
X123874201Y-92332886D01*
X124067114Y-92525799D01*
X124165000Y-92591205D01*
X124165001Y-93381843D01*
X123935241Y-93535363D01*
X123735363Y-93735241D01*
X123578320Y-93970273D01*
X123470147Y-94231426D01*
X123415000Y-94508665D01*
X110625171Y-94508665D01*
X110614506Y-83641984D01*
X111365000Y-83641984D01*
X111365000Y-84358016D01*
X111504691Y-85060290D01*
X111778705Y-85721818D01*
X112176511Y-86317177D01*
X112682823Y-86823489D01*
X113278182Y-87221295D01*
X113939710Y-87495309D01*
X114641984Y-87635000D01*
X115358016Y-87635000D01*
X116060290Y-87495309D01*
X116721818Y-87221295D01*
X117317177Y-86823489D01*
X117823489Y-86317177D01*
X118221295Y-85721818D01*
X118351699Y-85406993D01*
X124172612Y-85406993D01*
X124238137Y-85645860D01*
X124485116Y-85761760D01*
X124749960Y-85827250D01*
X125022492Y-85839812D01*
X125292238Y-85798965D01*
X125548832Y-85706277D01*
X125661863Y-85645860D01*
X125727388Y-85406993D01*
X124950000Y-84629605D01*
X124172612Y-85406993D01*
X118351699Y-85406993D01*
X118495309Y-85060290D01*
X118602283Y-84522492D01*
X123560188Y-84522492D01*
X123601035Y-84792238D01*
X123693723Y-85048832D01*
X123754140Y-85161863D01*
X123993007Y-85227388D01*
X124770395Y-84450000D01*
X125129605Y-84450000D01*
X125906993Y-85227388D01*
X126145860Y-85161863D01*
X126261760Y-84914884D01*
X126327250Y-84650040D01*
X126339812Y-84377508D01*
X126298965Y-84107762D01*
X126206277Y-83851168D01*
X126145860Y-83738137D01*
X125906993Y-83672612D01*
X125129605Y-84450000D01*
X124770395Y-84450000D01*
X123993007Y-83672612D01*
X123754140Y-83738137D01*
X123638240Y-83985116D01*
X123572750Y-84249960D01*
X123560188Y-84522492D01*
X118602283Y-84522492D01*
X118635000Y-84358016D01*
X118635000Y-83641984D01*
X118605367Y-83493007D01*
X124172612Y-83493007D01*
X124950000Y-84270395D01*
X125727388Y-83493007D01*
X125661863Y-83254140D01*
X125414884Y-83138240D01*
X125150040Y-83072750D01*
X124877508Y-83060188D01*
X124607762Y-83101035D01*
X124351168Y-83193723D01*
X124238137Y-83254140D01*
X124172612Y-83493007D01*
X118605367Y-83493007D01*
X118495309Y-82939710D01*
X118221295Y-82278182D01*
X117823489Y-81682823D01*
X117317177Y-81176511D01*
X116721818Y-80778705D01*
X116060290Y-80504691D01*
X115358016Y-80365000D01*
X114641984Y-80365000D01*
X113939710Y-80504691D01*
X113278182Y-80778705D01*
X112682823Y-81176511D01*
X112176511Y-81682823D01*
X111778705Y-82278182D01*
X111504691Y-82939710D01*
X111365000Y-83641984D01*
X110614506Y-83641984D01*
X110610647Y-79710000D01*
X169340001Y-79710000D01*
X169340000Y-129340000D01*
X169340000Y-129340000D01*
G37*
X169340000Y-129340000D02*
X110659352Y-129340000D01*
X110654742Y-124641984D01*
X111365000Y-124641984D01*
X111365000Y-125358016D01*
X111504691Y-126060290D01*
X111778705Y-126721818D01*
X112176511Y-127317177D01*
X112682823Y-127823489D01*
X113278182Y-128221295D01*
X113939710Y-128495309D01*
X114641984Y-128635000D01*
X115358016Y-128635000D01*
X116060290Y-128495309D01*
X116721818Y-128221295D01*
X117317177Y-127823489D01*
X117823489Y-127317177D01*
X118221295Y-126721818D01*
X118495309Y-126060290D01*
X118635000Y-125358016D01*
X118635000Y-124641984D01*
X118495309Y-123939710D01*
X118221295Y-123278182D01*
X117823489Y-122682823D01*
X117317177Y-122176511D01*
X116721818Y-121778705D01*
X116060290Y-121504691D01*
X115358016Y-121365000D01*
X114641984Y-121365000D01*
X113939710Y-121504691D01*
X113278182Y-121778705D01*
X112682823Y-122176511D01*
X112176511Y-122682823D01*
X111778705Y-123278182D01*
X111504691Y-123939710D01*
X111365000Y-124641984D01*
X110654742Y-124641984D01*
X110647850Y-117618514D01*
X123765000Y-117618514D01*
X123765000Y-117881486D01*
X123816304Y-118139405D01*
X123916939Y-118382359D01*
X124063038Y-118601013D01*
X124248987Y-118786962D01*
X124467641Y-118933061D01*
X124710595Y-119033696D01*
X124968514Y-119085000D01*
X125231486Y-119085000D01*
X125398152Y-119051848D01*
X125365000Y-119218514D01*
X125365000Y-119481486D01*
X125416304Y-119739405D01*
X125516939Y-119982359D01*
X125663038Y-120201013D01*
X125848987Y-120386962D01*
X125915000Y-120431070D01*
X125915001Y-123911798D01*
X125713368Y-124046525D01*
X125506525Y-124253368D01*
X125344010Y-124496589D01*
X125232068Y-124766842D01*
X125175000Y-125053740D01*
X125175000Y-125346260D01*
X125232068Y-125633158D01*
X125344010Y-125903411D01*
X125506525Y-126146632D01*
X125713368Y-126353475D01*
X125956589Y-126515990D01*
X126226842Y-126627932D01*
X126513740Y-126685000D01*
X126806260Y-126685000D01*
X126914807Y-126663409D01*
X126911203Y-126700000D01*
X126915001Y-126738562D01*
X126915000Y-127711447D01*
X126911203Y-127750000D01*
X126915000Y-127788553D01*
X126915000Y-127788560D01*
X126926359Y-127903886D01*
X126971246Y-128051859D01*
X127044138Y-128188232D01*
X127142236Y-128307764D01*
X127172189Y-128332346D01*
X127717657Y-128877815D01*
X127742236Y-128907764D01*
X127772184Y-128932342D01*
X127772187Y-128932345D01*
X127801559Y-128956450D01*
X127861767Y-129005862D01*
X127998140Y-129078754D01*
X128146112Y-129123641D01*
X128160490Y-129125057D01*
X128261439Y-129135000D01*
X128261446Y-129135000D01*
X128299999Y-129138797D01*
X128338552Y-129135000D01*
X136611439Y-129135000D01*
X136650000Y-129138798D01*
X136688560Y-129135000D01*
X143261440Y-129135000D01*
X143300000Y-129138798D01*
X143338561Y-129135000D01*
X149911440Y-129135000D01*
X149950000Y-129138798D01*
X149988561Y-129135000D01*
X156511447Y-129135000D01*
X156550000Y-129138797D01*
X156588553Y-129135000D01*
X156588561Y-129135000D01*
X156703887Y-129123641D01*
X156851860Y-129078754D01*
X156988233Y-129005862D01*
X157107764Y-128907764D01*
X157132347Y-128877810D01*
X157275157Y-128735000D01*
X158911447Y-128735000D01*
X158950000Y-128738797D01*
X158988553Y-128735000D01*
X158988561Y-128735000D01*
X159103887Y-128723641D01*
X159251860Y-128678754D01*
X159388233Y-128605862D01*
X159507764Y-128507764D01*
X159532347Y-128477810D01*
X159977806Y-128032350D01*
X160007764Y-128007764D01*
X160105862Y-127888233D01*
X160178754Y-127751860D01*
X160198055Y-127688233D01*
X160223642Y-127603887D01*
X160232714Y-127511767D01*
X160235000Y-127488561D01*
X160235000Y-127488556D01*
X160238797Y-127450000D01*
X160235000Y-127411444D01*
X160235000Y-126107795D01*
X160282886Y-126075799D01*
X160475799Y-125882886D01*
X160627371Y-125656043D01*
X160731775Y-125403989D01*
X160785000Y-125136411D01*
X160785000Y-124863589D01*
X160762032Y-124748125D01*
X161488364Y-124021793D01*
X161365000Y-124641984D01*
X161365000Y-125358016D01*
X161504691Y-126060290D01*
X161778705Y-126721818D01*
X162176511Y-127317177D01*
X162682823Y-127823489D01*
X163278182Y-128221295D01*
X163939710Y-128495309D01*
X164641984Y-128635000D01*
X165358016Y-128635000D01*
X166060290Y-128495309D01*
X166721818Y-128221295D01*
X167317177Y-127823489D01*
X167823489Y-127317177D01*
X168221295Y-126721818D01*
X168495309Y-126060290D01*
X168635000Y-125358016D01*
X168635000Y-124641984D01*
X168495309Y-123939710D01*
X168221295Y-123278182D01*
X167823489Y-122682823D01*
X167317177Y-122176511D01*
X166721818Y-121778705D01*
X166060290Y-121504691D01*
X165358016Y-121365000D01*
X164641984Y-121365000D01*
X164021793Y-121488364D01*
X166327810Y-119182347D01*
X166357764Y-119157764D01*
X166455862Y-119038233D01*
X166528754Y-118901860D01*
X166548441Y-118836962D01*
X166573642Y-118753887D01*
X166583296Y-118655862D01*
X166585000Y-118638561D01*
X166585000Y-118638556D01*
X166588797Y-118600000D01*
X166585000Y-118561444D01*
X166585000Y-116724625D01*
X166762272Y-116707165D01*
X166966387Y-116645247D01*
X167154500Y-116544699D01*
X167319383Y-116409383D01*
X167454699Y-116244500D01*
X167555247Y-116056387D01*
X167617165Y-115852272D01*
X167638072Y-115640000D01*
X167638072Y-114740000D01*
X167617165Y-114527728D01*
X167555247Y-114323613D01*
X167454699Y-114135500D01*
X167319383Y-113970617D01*
X167257706Y-113920000D01*
X167319383Y-113869383D01*
X167454699Y-113704500D01*
X167555247Y-113516387D01*
X167617165Y-113312272D01*
X167638072Y-113100000D01*
X167638072Y-112200000D01*
X167617165Y-111987728D01*
X167555247Y-111783613D01*
X167454699Y-111595500D01*
X167319383Y-111430617D01*
X167257706Y-111380000D01*
X167319383Y-111329383D01*
X167454699Y-111164500D01*
X167555247Y-110976387D01*
X167617165Y-110772272D01*
X167638072Y-110560000D01*
X167638072Y-109660000D01*
X167617165Y-109447728D01*
X167555247Y-109243613D01*
X167454699Y-109055500D01*
X167319383Y-108890617D01*
X167154500Y-108755301D01*
X166966387Y-108654753D01*
X166762272Y-108592835D01*
X166585000Y-108575375D01*
X166585000Y-105388552D01*
X166588797Y-105349999D01*
X166585000Y-105311446D01*
X166585000Y-105311439D01*
X166573641Y-105196113D01*
X166528754Y-105048140D01*
X166455862Y-104911767D01*
X166403989Y-104848561D01*
X166382345Y-104822187D01*
X166382342Y-104822184D01*
X166357764Y-104792236D01*
X166327816Y-104767658D01*
X163162033Y-101601875D01*
X163185000Y-101486411D01*
X163185000Y-101213589D01*
X163131775Y-100946011D01*
X163027371Y-100693957D01*
X162875799Y-100467114D01*
X162682886Y-100274201D01*
X162585000Y-100208796D01*
X162585000Y-99475157D01*
X164355603Y-97704554D01*
X164508665Y-97735000D01*
X164791335Y-97735000D01*
X165068574Y-97679853D01*
X165329727Y-97571680D01*
X165564759Y-97414637D01*
X165764637Y-97214759D01*
X165921680Y-96979727D01*
X166029853Y-96718574D01*
X166085000Y-96441335D01*
X166085000Y-96158665D01*
X166029853Y-95881426D01*
X165921680Y-95620273D01*
X165764637Y-95385241D01*
X165564759Y-95185363D01*
X165329727Y-95028320D01*
X165068574Y-94920147D01*
X164791335Y-94865000D01*
X164508665Y-94865000D01*
X164231426Y-94920147D01*
X163970273Y-95028320D01*
X163735241Y-95185363D01*
X163535363Y-95385241D01*
X163378320Y-95620273D01*
X163270147Y-95881426D01*
X163215000Y-96158665D01*
X163215000Y-96441335D01*
X163245446Y-96594397D01*
X161272185Y-98567658D01*
X161242237Y-98592236D01*
X161217659Y-98622184D01*
X161217655Y-98622188D01*
X161184690Y-98662356D01*
X161144139Y-98711767D01*
X161113774Y-98768577D01*
X161071246Y-98848141D01*
X161026359Y-98996114D01*
X161011203Y-99150000D01*
X161015001Y-99188563D01*
X161015001Y-100208795D01*
X160917114Y-100274201D01*
X160724201Y-100467114D01*
X160572629Y-100693957D01*
X160552139Y-100743426D01*
X160495860Y-100638137D01*
X160256993Y-100572612D01*
X159479605Y-101350000D01*
X160256993Y-102127388D01*
X160495860Y-102061863D01*
X160548918Y-101948799D01*
X160572629Y-102006043D01*
X160724201Y-102232886D01*
X160917114Y-102425799D01*
X161143957Y-102577371D01*
X161396011Y-102681775D01*
X161663589Y-102735000D01*
X161936411Y-102735000D01*
X162051875Y-102712033D01*
X165015001Y-105675159D01*
X165015000Y-108575375D01*
X164837728Y-108592835D01*
X164633613Y-108654753D01*
X164445500Y-108755301D01*
X164280617Y-108890617D01*
X164145301Y-109055500D01*
X164044753Y-109243613D01*
X163982835Y-109447728D01*
X163961928Y-109660000D01*
X163961928Y-110560000D01*
X163982835Y-110772272D01*
X164044753Y-110976387D01*
X164145301Y-111164500D01*
X164280617Y-111329383D01*
X164342294Y-111380000D01*
X164280617Y-111430617D01*
X164145301Y-111595500D01*
X164044753Y-111783613D01*
X164020064Y-111865000D01*
X161488556Y-111865000D01*
X161450000Y-111861203D01*
X161411444Y-111865000D01*
X161411439Y-111865000D01*
X161371026Y-111868980D01*
X161296113Y-111876358D01*
X161159978Y-111917655D01*
X161148140Y-111921246D01*
X161011767Y-111994138D01*
X160892236Y-112092236D01*
X160867653Y-112122190D01*
X158872185Y-114117658D01*
X158842237Y-114142236D01*
X158817659Y-114172184D01*
X158817655Y-114172188D01*
X158796357Y-114198140D01*
X158744139Y-114261767D01*
X158721626Y-114303886D01*
X158671246Y-114398141D01*
X158626359Y-114546114D01*
X158611203Y-114700000D01*
X158615001Y-114738563D01*
X158615000Y-116858795D01*
X158517114Y-116924201D01*
X158324201Y-117117114D01*
X158172629Y-117343957D01*
X158068225Y-117596011D01*
X158015000Y-117863589D01*
X158015000Y-118136411D01*
X158068225Y-118403989D01*
X158172629Y-118656043D01*
X158324201Y-118882886D01*
X158517114Y-119075799D01*
X158743957Y-119227371D01*
X158996011Y-119331775D01*
X159263589Y-119385000D01*
X159536411Y-119385000D01*
X159803989Y-119331775D01*
X160056043Y-119227371D01*
X160282886Y-119075799D01*
X160475799Y-118882886D01*
X160627371Y-118656043D01*
X160731775Y-118403989D01*
X160785000Y-118136411D01*
X160785000Y-117863589D01*
X160731775Y-117596011D01*
X160627371Y-117343957D01*
X160475799Y-117117114D01*
X160282886Y-116924201D01*
X160185000Y-116858796D01*
X160185000Y-115025157D01*
X161775157Y-113435000D01*
X164020064Y-113435000D01*
X164044753Y-113516387D01*
X164145301Y-113704500D01*
X164280617Y-113869383D01*
X164342294Y-113920000D01*
X164280617Y-113970617D01*
X164145301Y-114135500D01*
X164044753Y-114323613D01*
X163982835Y-114527728D01*
X163961928Y-114740000D01*
X163961928Y-115640000D01*
X163982835Y-115852272D01*
X164044753Y-116056387D01*
X164145301Y-116244500D01*
X164280617Y-116409383D01*
X164445500Y-116544699D01*
X164633613Y-116645247D01*
X164837728Y-116707165D01*
X165015000Y-116724625D01*
X165015001Y-118274842D01*
X159651875Y-123637968D01*
X159536411Y-123615000D01*
X159263589Y-123615000D01*
X158996011Y-123668225D01*
X158743957Y-123772629D01*
X158517114Y-123924201D01*
X158324201Y-124117114D01*
X158172629Y-124343957D01*
X158068225Y-124596011D01*
X158015000Y-124863589D01*
X158015000Y-125136411D01*
X158068225Y-125403989D01*
X158172629Y-125656043D01*
X158324201Y-125882886D01*
X158517114Y-126075799D01*
X158665001Y-126174614D01*
X158665000Y-127124843D01*
X158624843Y-127165000D01*
X157275158Y-127165000D01*
X157035000Y-126924843D01*
X157035000Y-126411474D01*
X157196632Y-126303475D01*
X157403475Y-126096632D01*
X157565990Y-125853411D01*
X157677932Y-125583158D01*
X157735000Y-125296260D01*
X157735000Y-125003740D01*
X157677932Y-124716842D01*
X157565990Y-124446589D01*
X157403475Y-124203368D01*
X157196632Y-123996525D01*
X156953411Y-123834010D01*
X156683158Y-123722068D01*
X156396260Y-123665000D01*
X156103740Y-123665000D01*
X155816842Y-123722068D01*
X155546589Y-123834010D01*
X155303368Y-123996525D01*
X155096525Y-124203368D01*
X154980000Y-124377760D01*
X154863475Y-124203368D01*
X154656632Y-123996525D01*
X154413411Y-123834010D01*
X154143158Y-123722068D01*
X153856260Y-123665000D01*
X153563740Y-123665000D01*
X153373082Y-123702925D01*
X153335000Y-123664843D01*
X153335000Y-121675157D01*
X154240646Y-120769511D01*
X154318514Y-120785000D01*
X154581486Y-120785000D01*
X154839405Y-120733696D01*
X155082359Y-120633061D01*
X155301013Y-120486962D01*
X155486962Y-120301013D01*
X155633061Y-120082359D01*
X155733696Y-119839405D01*
X155785000Y-119581486D01*
X155785000Y-119318514D01*
X155733696Y-119060595D01*
X155633061Y-118817641D01*
X155486962Y-118598987D01*
X155301013Y-118413038D01*
X155082359Y-118266939D01*
X154839405Y-118166304D01*
X154581486Y-118115000D01*
X154318514Y-118115000D01*
X154151848Y-118148152D01*
X154185000Y-117981486D01*
X154185000Y-117718514D01*
X154151756Y-117551387D01*
X154261740Y-117578183D01*
X154524473Y-117589390D01*
X154784344Y-117549125D01*
X155031366Y-117458935D01*
X155132203Y-117405037D01*
X155191664Y-117171269D01*
X154450000Y-116429605D01*
X154435858Y-116443748D01*
X154256253Y-116264143D01*
X154270395Y-116250000D01*
X154629605Y-116250000D01*
X155371269Y-116991664D01*
X155605037Y-116932203D01*
X155715934Y-116693758D01*
X155778183Y-116438260D01*
X155789390Y-116175527D01*
X155749125Y-115915656D01*
X155658935Y-115668634D01*
X155605037Y-115567797D01*
X155371269Y-115508336D01*
X154629605Y-116250000D01*
X154270395Y-116250000D01*
X153528731Y-115508336D01*
X153294963Y-115567797D01*
X153210202Y-115750045D01*
X152788888Y-115328731D01*
X153708336Y-115328731D01*
X154450000Y-116070395D01*
X155191664Y-115328731D01*
X155132203Y-115094963D01*
X154893758Y-114984066D01*
X154638260Y-114921817D01*
X154375527Y-114910610D01*
X154115656Y-114950875D01*
X153868634Y-115041065D01*
X153767797Y-115094963D01*
X153708336Y-115328731D01*
X152788888Y-115328731D01*
X151235000Y-113774843D01*
X151235000Y-113641204D01*
X151332886Y-113575799D01*
X151525799Y-113382886D01*
X151677371Y-113156043D01*
X151781775Y-112903989D01*
X151835000Y-112636411D01*
X151835000Y-112363589D01*
X151781775Y-112096011D01*
X151677371Y-111843957D01*
X151525799Y-111617114D01*
X151332886Y-111424201D01*
X151106043Y-111272629D01*
X150853989Y-111168225D01*
X150586411Y-111115000D01*
X150313589Y-111115000D01*
X150046011Y-111168225D01*
X149793957Y-111272629D01*
X149567114Y-111424201D01*
X149374201Y-111617114D01*
X149222629Y-111843957D01*
X149118225Y-112096011D01*
X149065000Y-112363589D01*
X149065000Y-112636411D01*
X149118225Y-112903989D01*
X149222629Y-113156043D01*
X149374201Y-113382886D01*
X149567114Y-113575799D01*
X149665001Y-113641205D01*
X149665001Y-114061438D01*
X149661203Y-114100000D01*
X149676359Y-114253886D01*
X149721246Y-114401859D01*
X149747972Y-114451859D01*
X149794139Y-114538233D01*
X149834690Y-114587644D01*
X149867655Y-114627812D01*
X149867659Y-114627816D01*
X149892237Y-114657764D01*
X149922185Y-114682342D01*
X152031294Y-116791451D01*
X151998987Y-116813038D01*
X151813038Y-116998987D01*
X151666939Y-117217641D01*
X151566304Y-117460595D01*
X151515000Y-117718514D01*
X151515000Y-117981486D01*
X151566304Y-118239405D01*
X151666939Y-118482359D01*
X151813038Y-118701013D01*
X151998987Y-118886962D01*
X152217641Y-119033061D01*
X152460595Y-119133696D01*
X152718514Y-119185000D01*
X152981486Y-119185000D01*
X153148152Y-119151848D01*
X153115000Y-119318514D01*
X153115000Y-119581486D01*
X153130489Y-119659354D01*
X152022190Y-120767653D01*
X151992236Y-120792236D01*
X151894138Y-120911768D01*
X151821246Y-121048141D01*
X151776359Y-121196114D01*
X151765000Y-121311440D01*
X151765000Y-121311447D01*
X151761203Y-121350000D01*
X151765000Y-121388553D01*
X151765001Y-123951437D01*
X151761203Y-123990000D01*
X151776359Y-124143886D01*
X151821246Y-124291859D01*
X151821247Y-124291860D01*
X151894139Y-124428233D01*
X151933636Y-124476359D01*
X151967655Y-124517812D01*
X151967659Y-124517816D01*
X151992237Y-124547764D01*
X152022185Y-124572342D01*
X152262925Y-124813082D01*
X152225000Y-125003740D01*
X152225000Y-125296260D01*
X152282068Y-125583158D01*
X152394010Y-125853411D01*
X152556525Y-126096632D01*
X152763368Y-126303475D01*
X153006589Y-126465990D01*
X153276842Y-126577932D01*
X153563740Y-126635000D01*
X153856260Y-126635000D01*
X154143158Y-126577932D01*
X154413411Y-126465990D01*
X154656632Y-126303475D01*
X154863475Y-126096632D01*
X154980000Y-125922240D01*
X155096525Y-126096632D01*
X155303368Y-126303475D01*
X155465001Y-126411474D01*
X155465001Y-127211437D01*
X155461203Y-127250000D01*
X155476359Y-127403886D01*
X155521246Y-127551859D01*
X155521247Y-127551860D01*
X155528270Y-127565000D01*
X150735000Y-127565000D01*
X150735000Y-126511474D01*
X150896632Y-126403475D01*
X151103475Y-126196632D01*
X151265990Y-125953411D01*
X151377932Y-125683158D01*
X151435000Y-125396260D01*
X151435000Y-125103740D01*
X151377932Y-124816842D01*
X151265990Y-124546589D01*
X151103475Y-124303368D01*
X150896632Y-124096525D01*
X150653411Y-123934010D01*
X150383158Y-123822068D01*
X150096260Y-123765000D01*
X149803740Y-123765000D01*
X149516842Y-123822068D01*
X149246589Y-123934010D01*
X149003368Y-124096525D01*
X148796525Y-124303368D01*
X148680000Y-124477760D01*
X148563475Y-124303368D01*
X148356632Y-124096525D01*
X148113411Y-123934010D01*
X147843158Y-123822068D01*
X147556260Y-123765000D01*
X147263740Y-123765000D01*
X147073082Y-123802925D01*
X146785000Y-123514843D01*
X146785000Y-121085208D01*
X147466117Y-120404092D01*
X147498987Y-120436962D01*
X147717641Y-120583061D01*
X147960595Y-120683696D01*
X148218514Y-120735000D01*
X148481486Y-120735000D01*
X148739405Y-120683696D01*
X148982359Y-120583061D01*
X149201013Y-120436962D01*
X149386962Y-120251013D01*
X149533061Y-120032359D01*
X149633696Y-119789405D01*
X149685000Y-119531486D01*
X149685000Y-119268514D01*
X149633696Y-119010595D01*
X149533061Y-118767641D01*
X149386962Y-118548987D01*
X149201013Y-118363038D01*
X148982359Y-118216939D01*
X148739405Y-118116304D01*
X148481486Y-118065000D01*
X148218514Y-118065000D01*
X148051848Y-118098152D01*
X148085000Y-117931486D01*
X148085000Y-117668514D01*
X148051756Y-117501387D01*
X148161740Y-117528183D01*
X148424473Y-117539390D01*
X148684344Y-117499125D01*
X148931366Y-117408935D01*
X149032203Y-117355037D01*
X149091664Y-117121269D01*
X148350000Y-116379605D01*
X148335858Y-116393748D01*
X148156253Y-116214143D01*
X148170395Y-116200000D01*
X148529605Y-116200000D01*
X149271269Y-116941664D01*
X149505037Y-116882203D01*
X149615934Y-116643758D01*
X149678183Y-116388260D01*
X149689390Y-116125527D01*
X149649125Y-115865656D01*
X149558935Y-115618634D01*
X149505037Y-115517797D01*
X149271269Y-115458336D01*
X148529605Y-116200000D01*
X148170395Y-116200000D01*
X147428731Y-115458336D01*
X147194963Y-115517797D01*
X147084066Y-115756242D01*
X147021817Y-116011740D01*
X147010610Y-116274473D01*
X147045176Y-116497560D01*
X146881486Y-116465000D01*
X146618514Y-116465000D01*
X146540647Y-116480489D01*
X145985000Y-115924843D01*
X145985000Y-115278731D01*
X147608336Y-115278731D01*
X148350000Y-116020395D01*
X149091664Y-115278731D01*
X149032203Y-115044963D01*
X148793758Y-114934066D01*
X148538260Y-114871817D01*
X148275527Y-114860610D01*
X148015656Y-114900875D01*
X147768634Y-114991065D01*
X147667797Y-115044963D01*
X147608336Y-115278731D01*
X145985000Y-115278731D01*
X145985000Y-113925157D01*
X146048125Y-113862033D01*
X146163589Y-113885000D01*
X146436411Y-113885000D01*
X146703989Y-113831775D01*
X146956043Y-113727371D01*
X147182886Y-113575799D01*
X147375799Y-113382886D01*
X147527371Y-113156043D01*
X147631775Y-112903989D01*
X147685000Y-112636411D01*
X147685000Y-112363589D01*
X147631775Y-112096011D01*
X147527371Y-111843957D01*
X147375799Y-111617114D01*
X147182886Y-111424201D01*
X146956043Y-111272629D01*
X146703989Y-111168225D01*
X146436411Y-111115000D01*
X146163589Y-111115000D01*
X145896011Y-111168225D01*
X145643957Y-111272629D01*
X145417114Y-111424201D01*
X145224201Y-111617114D01*
X145072629Y-111843957D01*
X144968225Y-112096011D01*
X144915000Y-112363589D01*
X144915000Y-112636411D01*
X144937967Y-112751875D01*
X144672190Y-113017653D01*
X144642236Y-113042236D01*
X144544138Y-113161768D01*
X144471246Y-113298141D01*
X144426359Y-113446114D01*
X144415000Y-113561440D01*
X144415000Y-113561447D01*
X144411203Y-113600000D01*
X144415000Y-113638553D01*
X144415001Y-116211437D01*
X144411203Y-116250000D01*
X144426359Y-116403886D01*
X144471246Y-116551859D01*
X144488610Y-116584344D01*
X144544139Y-116688233D01*
X144573198Y-116723641D01*
X144617655Y-116777812D01*
X144617659Y-116777816D01*
X144642237Y-116807764D01*
X144672185Y-116832342D01*
X145430489Y-117590647D01*
X145415000Y-117668514D01*
X145415000Y-117931486D01*
X145466304Y-118189405D01*
X145566939Y-118432359D01*
X145713038Y-118651013D01*
X145898987Y-118836962D01*
X146117641Y-118983061D01*
X146360595Y-119083696D01*
X146532086Y-119117808D01*
X145472190Y-120177704D01*
X145442236Y-120202287D01*
X145344138Y-120321819D01*
X145271246Y-120458192D01*
X145226359Y-120606165D01*
X145215000Y-120721491D01*
X145215000Y-120721498D01*
X145211203Y-120760051D01*
X145215000Y-120798604D01*
X145215001Y-123801437D01*
X145211203Y-123840000D01*
X145226359Y-123993886D01*
X145271246Y-124141859D01*
X145272330Y-124143887D01*
X145344139Y-124278233D01*
X145355322Y-124291859D01*
X145417655Y-124367812D01*
X145417659Y-124367816D01*
X145442237Y-124397764D01*
X145472185Y-124422342D01*
X145962925Y-124913082D01*
X145925000Y-125103740D01*
X145925000Y-125396260D01*
X145982068Y-125683158D01*
X146094010Y-125953411D01*
X146256525Y-126196632D01*
X146463368Y-126403475D01*
X146706589Y-126565990D01*
X146976842Y-126677932D01*
X147263740Y-126735000D01*
X147556260Y-126735000D01*
X147843158Y-126677932D01*
X148113411Y-126565990D01*
X148356632Y-126403475D01*
X148563475Y-126196632D01*
X148680000Y-126022240D01*
X148796525Y-126196632D01*
X149003368Y-126403475D01*
X149165000Y-126511474D01*
X149165001Y-127565000D01*
X144085000Y-127565000D01*
X144085000Y-126511474D01*
X144246632Y-126403475D01*
X144453475Y-126196632D01*
X144615990Y-125953411D01*
X144727932Y-125683158D01*
X144785000Y-125396260D01*
X144785000Y-125103740D01*
X144727932Y-124816842D01*
X144615990Y-124546589D01*
X144453475Y-124303368D01*
X144246632Y-124096525D01*
X144003411Y-123934010D01*
X143733158Y-123822068D01*
X143446260Y-123765000D01*
X143153740Y-123765000D01*
X142866842Y-123822068D01*
X142596589Y-123934010D01*
X142353368Y-124096525D01*
X142146525Y-124303368D01*
X142030000Y-124477760D01*
X141913475Y-124303368D01*
X141706632Y-124096525D01*
X141545000Y-123988526D01*
X141545000Y-120627236D01*
X141560595Y-120633696D01*
X141818514Y-120685000D01*
X142081486Y-120685000D01*
X142339405Y-120633696D01*
X142582359Y-120533061D01*
X142801013Y-120386962D01*
X142986962Y-120201013D01*
X143133061Y-119982359D01*
X143233696Y-119739405D01*
X143285000Y-119481486D01*
X143285000Y-119218514D01*
X143233696Y-118960595D01*
X143133061Y-118717641D01*
X142986962Y-118498987D01*
X142801013Y-118313038D01*
X142582359Y-118166939D01*
X142339405Y-118066304D01*
X142081486Y-118015000D01*
X141818514Y-118015000D01*
X141651848Y-118048152D01*
X141685000Y-117881486D01*
X141685000Y-117618514D01*
X141651756Y-117451387D01*
X141761740Y-117478183D01*
X142024473Y-117489390D01*
X142284344Y-117449125D01*
X142531366Y-117358935D01*
X142632203Y-117305037D01*
X142691664Y-117071269D01*
X141950000Y-116329605D01*
X141935858Y-116343748D01*
X141756253Y-116164143D01*
X141770395Y-116150000D01*
X142129605Y-116150000D01*
X142871269Y-116891664D01*
X143105037Y-116832203D01*
X143215934Y-116593758D01*
X143278183Y-116338260D01*
X143289390Y-116075527D01*
X143249125Y-115815656D01*
X143158935Y-115568634D01*
X143105037Y-115467797D01*
X142871269Y-115408336D01*
X142129605Y-116150000D01*
X141770395Y-116150000D01*
X141028731Y-115408336D01*
X140794963Y-115467797D01*
X140684066Y-115706242D01*
X140621817Y-115961740D01*
X140610610Y-116224473D01*
X140645176Y-116447560D01*
X140481486Y-116415000D01*
X140218514Y-116415000D01*
X139960595Y-116466304D01*
X139717641Y-116566939D01*
X139633390Y-116623233D01*
X139435000Y-116424843D01*
X139435000Y-116275157D01*
X140481426Y-115228731D01*
X141208336Y-115228731D01*
X141950000Y-115970395D01*
X142691664Y-115228731D01*
X142632203Y-114994963D01*
X142393758Y-114884066D01*
X142138260Y-114821817D01*
X141875527Y-114810610D01*
X141615656Y-114850875D01*
X141368634Y-114941065D01*
X141267797Y-114994963D01*
X141208336Y-115228731D01*
X140481426Y-115228731D01*
X141948125Y-113762033D01*
X142063589Y-113785000D01*
X142336411Y-113785000D01*
X142603989Y-113731775D01*
X142856043Y-113627371D01*
X143082886Y-113475799D01*
X143275799Y-113282886D01*
X143427371Y-113056043D01*
X143531775Y-112803989D01*
X143585000Y-112536411D01*
X143585000Y-112263589D01*
X143531775Y-111996011D01*
X143427371Y-111743957D01*
X143275799Y-111517114D01*
X143082886Y-111324201D01*
X142856043Y-111172629D01*
X142603989Y-111068225D01*
X142336411Y-111015000D01*
X142063589Y-111015000D01*
X141796011Y-111068225D01*
X141543957Y-111172629D01*
X141317114Y-111324201D01*
X141124201Y-111517114D01*
X140972629Y-111743957D01*
X140868225Y-111996011D01*
X140815000Y-112263589D01*
X140815000Y-112536411D01*
X140837967Y-112651875D01*
X138122190Y-115367653D01*
X138092236Y-115392236D01*
X137994138Y-115511768D01*
X137921246Y-115648141D01*
X137876359Y-115796114D01*
X137865000Y-115911440D01*
X137865000Y-115911447D01*
X137861203Y-115950000D01*
X137865000Y-115988553D01*
X137865000Y-116711447D01*
X137861203Y-116750000D01*
X137865000Y-116788553D01*
X137865000Y-116788561D01*
X137869299Y-116832203D01*
X137876359Y-116903886D01*
X137921246Y-117051859D01*
X137931621Y-117071269D01*
X137994139Y-117188233D01*
X138018274Y-117217641D01*
X138067655Y-117277812D01*
X138067659Y-117277816D01*
X138092237Y-117307764D01*
X138122185Y-117332342D01*
X139067653Y-118277810D01*
X139092236Y-118307764D01*
X139158601Y-118362229D01*
X139166939Y-118382359D01*
X139313038Y-118601013D01*
X139498987Y-118786962D01*
X139717641Y-118933061D01*
X139960595Y-119033696D01*
X140139110Y-119069205D01*
X140104138Y-119111819D01*
X140031246Y-119248192D01*
X139986359Y-119396165D01*
X139975000Y-119511491D01*
X139975000Y-119511498D01*
X139971203Y-119550051D01*
X139975000Y-119588604D01*
X139975001Y-123988525D01*
X139813368Y-124096525D01*
X139606525Y-124303368D01*
X139444010Y-124546589D01*
X139332068Y-124816842D01*
X139275000Y-125103740D01*
X139275000Y-125396260D01*
X139332068Y-125683158D01*
X139444010Y-125953411D01*
X139606525Y-126196632D01*
X139813368Y-126403475D01*
X140056589Y-126565990D01*
X140326842Y-126677932D01*
X140613740Y-126735000D01*
X140906260Y-126735000D01*
X141193158Y-126677932D01*
X141463411Y-126565990D01*
X141706632Y-126403475D01*
X141913475Y-126196632D01*
X142030000Y-126022240D01*
X142146525Y-126196632D01*
X142353368Y-126403475D01*
X142515000Y-126511474D01*
X142515001Y-127565000D01*
X137435000Y-127565000D01*
X137435000Y-126511474D01*
X137596632Y-126403475D01*
X137803475Y-126196632D01*
X137965990Y-125953411D01*
X138077932Y-125683158D01*
X138135000Y-125396260D01*
X138135000Y-125103740D01*
X138077932Y-124816842D01*
X137965990Y-124546589D01*
X137803475Y-124303368D01*
X137596632Y-124096525D01*
X137353411Y-123934010D01*
X137083158Y-123822068D01*
X136796260Y-123765000D01*
X136503740Y-123765000D01*
X136216842Y-123822068D01*
X135946589Y-123934010D01*
X135703368Y-124096525D01*
X135496525Y-124303368D01*
X135380000Y-124477760D01*
X135263475Y-124303368D01*
X135056632Y-124096525D01*
X134935000Y-124015253D01*
X134935000Y-120481070D01*
X135001013Y-120436962D01*
X135186962Y-120251013D01*
X135333061Y-120032359D01*
X135433696Y-119789405D01*
X135485000Y-119531486D01*
X135485000Y-119268514D01*
X135433696Y-119010595D01*
X135333061Y-118767641D01*
X135186962Y-118548987D01*
X135001013Y-118363038D01*
X134782359Y-118216939D01*
X134539405Y-118116304D01*
X134281486Y-118065000D01*
X134018514Y-118065000D01*
X133851848Y-118098152D01*
X133885000Y-117931486D01*
X133885000Y-117668514D01*
X133851756Y-117501387D01*
X133961740Y-117528183D01*
X134224473Y-117539390D01*
X134484344Y-117499125D01*
X134731366Y-117408935D01*
X134832203Y-117355037D01*
X134891664Y-117121269D01*
X134150000Y-116379605D01*
X134135858Y-116393748D01*
X133956253Y-116214143D01*
X133970395Y-116200000D01*
X134329605Y-116200000D01*
X135071269Y-116941664D01*
X135305037Y-116882203D01*
X135415934Y-116643758D01*
X135478183Y-116388260D01*
X135489390Y-116125527D01*
X135449125Y-115865656D01*
X135358935Y-115618634D01*
X135305037Y-115517797D01*
X135071269Y-115458336D01*
X134329605Y-116200000D01*
X133970395Y-116200000D01*
X133956253Y-116185858D01*
X134135858Y-116006253D01*
X134150000Y-116020395D01*
X134891664Y-115278731D01*
X134832203Y-115044963D01*
X134593758Y-114934066D01*
X134338260Y-114871817D01*
X134075527Y-114860610D01*
X133815656Y-114900875D01*
X133568634Y-114991065D01*
X133467797Y-115044963D01*
X133408337Y-115278729D01*
X133335000Y-115205392D01*
X133335000Y-114825157D01*
X134905403Y-113254754D01*
X134924201Y-113282886D01*
X135117114Y-113475799D01*
X135343957Y-113627371D01*
X135596011Y-113731775D01*
X135863589Y-113785000D01*
X136136411Y-113785000D01*
X136403989Y-113731775D01*
X136656043Y-113627371D01*
X136882886Y-113475799D01*
X137075799Y-113282886D01*
X137227371Y-113056043D01*
X137331775Y-112803989D01*
X137385000Y-112536411D01*
X137385000Y-112263589D01*
X137331775Y-111996011D01*
X137227371Y-111743957D01*
X137075799Y-111517114D01*
X136882886Y-111324201D01*
X136656043Y-111172629D01*
X136403989Y-111068225D01*
X136136411Y-111015000D01*
X135863589Y-111015000D01*
X135596011Y-111068225D01*
X135343957Y-111172629D01*
X135117114Y-111324201D01*
X134926315Y-111515000D01*
X134788556Y-111515000D01*
X134750000Y-111511203D01*
X134711444Y-111515000D01*
X134711439Y-111515000D01*
X134671026Y-111518980D01*
X134596113Y-111526358D01*
X134467916Y-111565247D01*
X134448140Y-111571246D01*
X134311767Y-111644138D01*
X134192236Y-111742236D01*
X134167653Y-111772190D01*
X132663741Y-113276102D01*
X132777371Y-113106043D01*
X132881775Y-112853989D01*
X132935000Y-112586411D01*
X132935000Y-112313589D01*
X132881775Y-112046011D01*
X132777371Y-111793957D01*
X132625799Y-111567114D01*
X132432886Y-111374201D01*
X132206043Y-111222629D01*
X131953989Y-111118225D01*
X131686411Y-111065000D01*
X131413589Y-111065000D01*
X131146011Y-111118225D01*
X130893957Y-111222629D01*
X130667114Y-111374201D01*
X130474201Y-111567114D01*
X130408796Y-111665000D01*
X126838552Y-111665000D01*
X126799999Y-111661203D01*
X126761446Y-111665000D01*
X126761439Y-111665000D01*
X126646113Y-111676359D01*
X126498140Y-111721246D01*
X126361767Y-111794138D01*
X126303160Y-111842236D01*
X126272187Y-111867655D01*
X126272184Y-111867658D01*
X126242236Y-111892236D01*
X126217658Y-111922184D01*
X124572185Y-113567658D01*
X124542237Y-113592236D01*
X124517659Y-113622184D01*
X124517655Y-113622188D01*
X124493248Y-113651928D01*
X124444139Y-113711767D01*
X124436340Y-113726359D01*
X124371246Y-113848141D01*
X124326359Y-113996114D01*
X124311203Y-114150000D01*
X124315001Y-114188563D01*
X124315000Y-116668930D01*
X124248987Y-116713038D01*
X124063038Y-116898987D01*
X123916939Y-117117641D01*
X123816304Y-117360595D01*
X123765000Y-117618514D01*
X110647850Y-117618514D01*
X110636429Y-105981862D01*
X110746525Y-106146632D01*
X110953368Y-106353475D01*
X111196589Y-106515990D01*
X111466842Y-106627932D01*
X111753740Y-106685000D01*
X112046260Y-106685000D01*
X112333158Y-106627932D01*
X112603411Y-106515990D01*
X112846632Y-106353475D01*
X113053475Y-106146632D01*
X113128065Y-106035000D01*
X122011447Y-106035000D01*
X122050000Y-106038797D01*
X122088553Y-106035000D01*
X122088561Y-106035000D01*
X122203887Y-106023641D01*
X122351860Y-105978754D01*
X122488233Y-105905862D01*
X122607764Y-105807764D01*
X122632347Y-105777810D01*
X124332345Y-104077813D01*
X124332349Y-104077808D01*
X124555603Y-103854554D01*
X124708665Y-103885000D01*
X124991335Y-103885000D01*
X125268574Y-103829853D01*
X125529727Y-103721680D01*
X125764759Y-103564637D01*
X125964637Y-103364759D01*
X126121680Y-103129727D01*
X126229853Y-102868574D01*
X126285000Y-102591335D01*
X126285000Y-102308665D01*
X126229853Y-102031426D01*
X126121680Y-101770273D01*
X125964637Y-101535241D01*
X125764759Y-101335363D01*
X125529727Y-101178320D01*
X125268574Y-101070147D01*
X124991335Y-101015000D01*
X124708665Y-101015000D01*
X124431426Y-101070147D01*
X124170273Y-101178320D01*
X123935241Y-101335363D01*
X123735363Y-101535241D01*
X123578320Y-101770273D01*
X123470147Y-102031426D01*
X123415000Y-102308665D01*
X123415000Y-102591335D01*
X123445446Y-102744397D01*
X123222192Y-102967651D01*
X123222187Y-102967655D01*
X121724843Y-104465000D01*
X113194883Y-104465000D01*
X113053475Y-104253368D01*
X112846632Y-104046525D01*
X112603411Y-103884010D01*
X112333158Y-103772068D01*
X112046260Y-103715000D01*
X111753740Y-103715000D01*
X111466842Y-103772068D01*
X111196589Y-103884010D01*
X110953368Y-104046525D01*
X110746525Y-104253368D01*
X110634897Y-104420431D01*
X110625171Y-94508665D01*
X123415000Y-94508665D01*
X123415000Y-94791335D01*
X123470147Y-95068574D01*
X123578320Y-95329727D01*
X123735363Y-95564759D01*
X123935241Y-95764637D01*
X124170273Y-95921680D01*
X124431426Y-96029853D01*
X124708665Y-96085000D01*
X124991335Y-96085000D01*
X125144396Y-96054554D01*
X127015000Y-97925158D01*
X127015001Y-98711438D01*
X127011203Y-98750000D01*
X127026359Y-98903886D01*
X127071246Y-99051859D01*
X127102323Y-99109999D01*
X127144139Y-99188233D01*
X127184690Y-99237644D01*
X127217655Y-99277812D01*
X127217659Y-99277816D01*
X127242237Y-99307764D01*
X127272186Y-99332343D01*
X127577649Y-99637805D01*
X127602236Y-99667764D01*
X127721767Y-99765862D01*
X127858138Y-99838753D01*
X127858140Y-99838754D01*
X128006113Y-99883642D01*
X128081026Y-99891020D01*
X128121439Y-99895000D01*
X128121444Y-99895000D01*
X128160000Y-99898797D01*
X128198556Y-99895000D01*
X130098796Y-99895000D01*
X130164201Y-99992886D01*
X130357114Y-100185799D01*
X130583957Y-100337371D01*
X130686873Y-100380000D01*
X130583957Y-100422629D01*
X130357114Y-100574201D01*
X130164201Y-100767114D01*
X130012629Y-100993957D01*
X129908225Y-101246011D01*
X129875788Y-101409081D01*
X129726866Y-101558003D01*
X129683552Y-101593550D01*
X129541717Y-101766376D01*
X129442078Y-101952790D01*
X126186865Y-105208004D01*
X126143551Y-105243551D01*
X126001716Y-105416377D01*
X125912313Y-105583641D01*
X125896324Y-105613554D01*
X125831423Y-105827502D01*
X125809509Y-106050000D01*
X125815000Y-106105752D01*
X125815001Y-108044239D01*
X125809509Y-108100000D01*
X125831423Y-108322498D01*
X125896324Y-108536446D01*
X125896325Y-108536447D01*
X126001717Y-108733623D01*
X126143552Y-108906449D01*
X126186860Y-108941991D01*
X127458008Y-110213140D01*
X127493551Y-110256449D01*
X127666377Y-110398284D01*
X127863553Y-110503676D01*
X128077501Y-110568577D01*
X128244248Y-110585000D01*
X128244257Y-110585000D01*
X128299999Y-110590490D01*
X128355741Y-110585000D01*
X152644249Y-110585000D01*
X152700000Y-110590491D01*
X152755751Y-110585000D01*
X152755752Y-110585000D01*
X152922499Y-110568577D01*
X153136447Y-110503676D01*
X153333623Y-110398284D01*
X153506449Y-110256449D01*
X153541996Y-110213135D01*
X156263141Y-107491991D01*
X156306449Y-107456449D01*
X156448284Y-107283623D01*
X156553676Y-107086447D01*
X156618577Y-106872499D01*
X156635000Y-106705752D01*
X156635000Y-106705751D01*
X156640491Y-106650000D01*
X156635000Y-106594249D01*
X156635000Y-102306993D01*
X158522612Y-102306993D01*
X158588137Y-102545860D01*
X158835116Y-102661760D01*
X159099960Y-102727250D01*
X159372492Y-102739812D01*
X159642238Y-102698965D01*
X159898832Y-102606277D01*
X160011863Y-102545860D01*
X160077388Y-102306993D01*
X159300000Y-101529605D01*
X158522612Y-102306993D01*
X156635000Y-102306993D01*
X156635000Y-101422492D01*
X157910188Y-101422492D01*
X157951035Y-101692238D01*
X158043723Y-101948832D01*
X158104140Y-102061863D01*
X158343007Y-102127388D01*
X159120395Y-101350000D01*
X158343007Y-100572612D01*
X158104140Y-100638137D01*
X157988240Y-100885116D01*
X157922750Y-101149960D01*
X157910188Y-101422492D01*
X156635000Y-101422492D01*
X156635000Y-100393007D01*
X158522612Y-100393007D01*
X159300000Y-101170395D01*
X160077388Y-100393007D01*
X160011863Y-100154140D01*
X159764884Y-100038240D01*
X159500040Y-99972750D01*
X159227508Y-99960188D01*
X158957762Y-100001035D01*
X158701168Y-100093723D01*
X158588137Y-100154140D01*
X158522612Y-100393007D01*
X156635000Y-100393007D01*
X156635000Y-98120131D01*
X157027282Y-97727850D01*
X157268574Y-97679853D01*
X157529727Y-97571680D01*
X157734284Y-97435000D01*
X159644249Y-97435000D01*
X159700000Y-97440491D01*
X159755751Y-97435000D01*
X159755752Y-97435000D01*
X159922499Y-97418577D01*
X160136447Y-97353676D01*
X160333623Y-97248284D01*
X160506449Y-97106449D01*
X160541996Y-97063135D01*
X162663141Y-94941991D01*
X162706449Y-94906449D01*
X162848284Y-94733623D01*
X162953676Y-94536447D01*
X163018577Y-94322499D01*
X163035000Y-94155752D01*
X163035000Y-94155751D01*
X163040491Y-94100000D01*
X163035000Y-94044248D01*
X163035000Y-91954288D01*
X163083061Y-91882359D01*
X163183696Y-91639405D01*
X163235000Y-91381486D01*
X163235000Y-91118514D01*
X163183696Y-90860595D01*
X163083061Y-90617641D01*
X162936962Y-90398987D01*
X162751013Y-90213038D01*
X162532359Y-90066939D01*
X162289405Y-89966304D01*
X162031486Y-89915000D01*
X161768514Y-89915000D01*
X161510595Y-89966304D01*
X161267641Y-90066939D01*
X161048987Y-90213038D01*
X160863038Y-90398987D01*
X160716939Y-90617641D01*
X160616304Y-90860595D01*
X160565000Y-91118514D01*
X160565000Y-91381486D01*
X160616304Y-91639405D01*
X160716939Y-91882359D01*
X160765001Y-91954289D01*
X160765000Y-93629868D01*
X159229869Y-95165000D01*
X157734284Y-95165000D01*
X157529727Y-95028320D01*
X157268574Y-94920147D01*
X156991335Y-94865000D01*
X156708665Y-94865000D01*
X156431426Y-94920147D01*
X156170273Y-95028320D01*
X155935241Y-95185363D01*
X155735363Y-95385241D01*
X155578320Y-95620273D01*
X155470147Y-95881426D01*
X155422150Y-96122718D01*
X154736860Y-96808009D01*
X154693552Y-96843551D01*
X154551717Y-97016377D01*
X154526720Y-97063144D01*
X154446324Y-97213554D01*
X154381423Y-97427502D01*
X154359509Y-97650000D01*
X154365001Y-97705761D01*
X154365000Y-106179868D01*
X152229869Y-108315000D01*
X128770132Y-108315000D01*
X128085000Y-107629869D01*
X128085000Y-106520131D01*
X131253142Y-103351990D01*
X131296450Y-103316448D01*
X131438285Y-103143622D01*
X131510612Y-103008305D01*
X131643989Y-102981775D01*
X131896043Y-102877371D01*
X132122886Y-102725799D01*
X132315799Y-102532886D01*
X132467371Y-102306043D01*
X132571775Y-102053989D01*
X132625000Y-101786411D01*
X132625000Y-101513589D01*
X132571775Y-101246011D01*
X132467371Y-100993957D01*
X132315799Y-100767114D01*
X132122886Y-100574201D01*
X131896043Y-100422629D01*
X131793127Y-100380000D01*
X131896043Y-100337371D01*
X132122886Y-100185799D01*
X132315799Y-99992886D01*
X132467371Y-99766043D01*
X132571775Y-99513989D01*
X132625000Y-99246411D01*
X132625000Y-98973589D01*
X132571775Y-98706011D01*
X132467371Y-98453957D01*
X132315799Y-98227114D01*
X132122886Y-98034201D01*
X131896043Y-97882629D01*
X131793127Y-97840000D01*
X131896043Y-97797371D01*
X132122886Y-97645799D01*
X132315799Y-97452886D01*
X132467371Y-97226043D01*
X132571775Y-96973989D01*
X132625000Y-96706411D01*
X132625000Y-96433589D01*
X132571775Y-96166011D01*
X132467371Y-95913957D01*
X132315799Y-95687114D01*
X132122886Y-95494201D01*
X131896043Y-95342629D01*
X131796721Y-95301489D01*
X131838832Y-95286277D01*
X131951863Y-95225860D01*
X132017388Y-94986993D01*
X131240000Y-94209605D01*
X130462612Y-94986993D01*
X130528137Y-95225860D01*
X130686477Y-95300164D01*
X130583957Y-95342629D01*
X130357114Y-95494201D01*
X130164201Y-95687114D01*
X130012629Y-95913957D01*
X129908225Y-96166011D01*
X129855000Y-96433589D01*
X129855000Y-96614843D01*
X129635000Y-96394843D01*
X129635000Y-94102492D01*
X129850188Y-94102492D01*
X129891035Y-94372238D01*
X129983723Y-94628832D01*
X130044140Y-94741863D01*
X130283007Y-94807388D01*
X131060395Y-94030000D01*
X131419605Y-94030000D01*
X132196993Y-94807388D01*
X132435860Y-94741863D01*
X132551760Y-94494884D01*
X132617250Y-94230040D01*
X132629812Y-93957508D01*
X132588965Y-93687762D01*
X132496277Y-93431168D01*
X132435860Y-93318137D01*
X132196993Y-93252612D01*
X131419605Y-94030000D01*
X131060395Y-94030000D01*
X130283007Y-93252612D01*
X130044140Y-93318137D01*
X129928240Y-93565116D01*
X129862750Y-93829960D01*
X129850188Y-94102492D01*
X129635000Y-94102492D01*
X129635000Y-83733589D01*
X129855000Y-83733589D01*
X129855000Y-84006411D01*
X129908225Y-84273989D01*
X130012629Y-84526043D01*
X130164201Y-84752886D01*
X130357114Y-84945799D01*
X130583957Y-85097371D01*
X130686873Y-85140000D01*
X130583957Y-85182629D01*
X130357114Y-85334201D01*
X130164201Y-85527114D01*
X130012629Y-85753957D01*
X129908225Y-86006011D01*
X129855000Y-86273589D01*
X129855000Y-86546411D01*
X129908225Y-86813989D01*
X130012629Y-87066043D01*
X130164201Y-87292886D01*
X130357114Y-87485799D01*
X130583957Y-87637371D01*
X130686873Y-87680000D01*
X130583957Y-87722629D01*
X130357114Y-87874201D01*
X130164201Y-88067114D01*
X130012629Y-88293957D01*
X129908225Y-88546011D01*
X129855000Y-88813589D01*
X129855000Y-89086411D01*
X129908225Y-89353989D01*
X130012629Y-89606043D01*
X130164201Y-89832886D01*
X130357114Y-90025799D01*
X130583957Y-90177371D01*
X130686873Y-90220000D01*
X130583957Y-90262629D01*
X130357114Y-90414201D01*
X130164201Y-90607114D01*
X130012629Y-90833957D01*
X129908225Y-91086011D01*
X129855000Y-91353589D01*
X129855000Y-91626411D01*
X129908225Y-91893989D01*
X130012629Y-92146043D01*
X130164201Y-92372886D01*
X130357114Y-92565799D01*
X130583957Y-92717371D01*
X130683279Y-92758511D01*
X130641168Y-92773723D01*
X130528137Y-92834140D01*
X130462612Y-93073007D01*
X131240000Y-93850395D01*
X132017388Y-93073007D01*
X131951863Y-92834140D01*
X131793523Y-92759836D01*
X131896043Y-92717371D01*
X132122886Y-92565799D01*
X132315799Y-92372886D01*
X132467371Y-92146043D01*
X132571775Y-91893989D01*
X132625000Y-91626411D01*
X132625000Y-91353589D01*
X132571775Y-91086011D01*
X132467371Y-90833957D01*
X132315799Y-90607114D01*
X132122886Y-90414201D01*
X131896043Y-90262629D01*
X131793127Y-90220000D01*
X131896043Y-90177371D01*
X132122886Y-90025799D01*
X132315799Y-89832886D01*
X132467371Y-89606043D01*
X132571775Y-89353989D01*
X132625000Y-89086411D01*
X132625000Y-88905157D01*
X133615000Y-89895157D01*
X133615001Y-102274842D01*
X131801875Y-104087968D01*
X131686411Y-104065000D01*
X131413589Y-104065000D01*
X131146011Y-104118225D01*
X130893957Y-104222629D01*
X130667114Y-104374201D01*
X130474201Y-104567114D01*
X130322629Y-104793957D01*
X130218225Y-105046011D01*
X130165000Y-105313589D01*
X130165000Y-105586411D01*
X130218225Y-105853989D01*
X130322629Y-106106043D01*
X130474201Y-106332886D01*
X130667114Y-106525799D01*
X130893957Y-106677371D01*
X131146011Y-106781775D01*
X131413589Y-106835000D01*
X131686411Y-106835000D01*
X131953989Y-106781775D01*
X132206043Y-106677371D01*
X132432886Y-106525799D01*
X132625799Y-106332886D01*
X132777371Y-106106043D01*
X132881775Y-105853989D01*
X132935000Y-105586411D01*
X132935000Y-105313589D01*
X132925055Y-105263589D01*
X134615000Y-105263589D01*
X134615000Y-105536411D01*
X134668225Y-105803989D01*
X134772629Y-106056043D01*
X134924201Y-106282886D01*
X135117114Y-106475799D01*
X135343957Y-106627371D01*
X135596011Y-106731775D01*
X135863589Y-106785000D01*
X136136411Y-106785000D01*
X136403989Y-106731775D01*
X136656043Y-106627371D01*
X136882886Y-106475799D01*
X137075799Y-106282886D01*
X137227371Y-106056043D01*
X137331775Y-105803989D01*
X137385000Y-105536411D01*
X137385000Y-105263589D01*
X137331775Y-104996011D01*
X137227371Y-104743957D01*
X137075799Y-104517114D01*
X136882886Y-104324201D01*
X136835000Y-104292205D01*
X136835000Y-88175157D01*
X137757393Y-87252764D01*
X137784201Y-87292886D01*
X137977114Y-87485799D01*
X138203957Y-87637371D01*
X138306873Y-87680000D01*
X138203957Y-87722629D01*
X137977114Y-87874201D01*
X137784201Y-88067114D01*
X137632629Y-88293957D01*
X137528225Y-88546011D01*
X137475000Y-88813589D01*
X137475000Y-89086411D01*
X137528225Y-89353989D01*
X137632629Y-89606043D01*
X137784201Y-89832886D01*
X137977114Y-90025799D01*
X138203957Y-90177371D01*
X138306873Y-90220000D01*
X138203957Y-90262629D01*
X137977114Y-90414201D01*
X137784201Y-90607114D01*
X137632629Y-90833957D01*
X137528225Y-91086011D01*
X137475000Y-91353589D01*
X137475000Y-91626411D01*
X137528225Y-91893989D01*
X137632629Y-92146043D01*
X137784201Y-92372886D01*
X137977114Y-92565799D01*
X138203957Y-92717371D01*
X138306873Y-92760000D01*
X138203957Y-92802629D01*
X137977114Y-92954201D01*
X137784201Y-93147114D01*
X137632629Y-93373957D01*
X137528225Y-93626011D01*
X137475000Y-93893589D01*
X137475000Y-94166411D01*
X137528225Y-94433989D01*
X137632629Y-94686043D01*
X137784201Y-94912886D01*
X137977114Y-95105799D01*
X138203957Y-95257371D01*
X138306873Y-95300000D01*
X138203957Y-95342629D01*
X137977114Y-95494201D01*
X137784201Y-95687114D01*
X137632629Y-95913957D01*
X137528225Y-96166011D01*
X137475000Y-96433589D01*
X137475000Y-96706411D01*
X137528225Y-96973989D01*
X137632629Y-97226043D01*
X137784201Y-97452886D01*
X137977114Y-97645799D01*
X138203957Y-97797371D01*
X138306873Y-97840000D01*
X138203957Y-97882629D01*
X137977114Y-98034201D01*
X137784201Y-98227114D01*
X137632629Y-98453957D01*
X137528225Y-98706011D01*
X137475000Y-98973589D01*
X137475000Y-99246411D01*
X137528225Y-99513989D01*
X137632629Y-99766043D01*
X137784201Y-99992886D01*
X137977114Y-100185799D01*
X138203957Y-100337371D01*
X138306873Y-100380000D01*
X138203957Y-100422629D01*
X137977114Y-100574201D01*
X137784201Y-100767114D01*
X137632629Y-100993957D01*
X137528225Y-101246011D01*
X137475000Y-101513589D01*
X137475000Y-101786411D01*
X137528225Y-102053989D01*
X137632629Y-102306043D01*
X137784201Y-102532886D01*
X137977114Y-102725799D01*
X138075000Y-102791205D01*
X138075001Y-104771437D01*
X138071203Y-104810000D01*
X138086359Y-104963886D01*
X138131246Y-105111859D01*
X138131247Y-105111860D01*
X138204139Y-105248233D01*
X138244690Y-105297644D01*
X138277655Y-105337812D01*
X138277659Y-105337816D01*
X138302237Y-105367764D01*
X138332185Y-105392342D01*
X138867657Y-105927815D01*
X138892236Y-105957764D01*
X138922184Y-105982342D01*
X138922187Y-105982345D01*
X138950843Y-106005862D01*
X139011767Y-106055862D01*
X139148140Y-106128754D01*
X139296113Y-106173641D01*
X139411439Y-106185000D01*
X139411446Y-106185000D01*
X139449999Y-106188797D01*
X139488552Y-106185000D01*
X141058796Y-106185000D01*
X141124201Y-106282886D01*
X141317114Y-106475799D01*
X141543957Y-106627371D01*
X141796011Y-106731775D01*
X142063589Y-106785000D01*
X142336411Y-106785000D01*
X142603989Y-106731775D01*
X142856043Y-106627371D01*
X143082886Y-106475799D01*
X143275799Y-106282886D01*
X143427371Y-106056043D01*
X143531775Y-105803989D01*
X143585000Y-105536411D01*
X143585000Y-105445157D01*
X144167653Y-106027810D01*
X144192236Y-106057764D01*
X144311767Y-106155862D01*
X144438574Y-106223641D01*
X144448140Y-106228754D01*
X144596113Y-106273642D01*
X144671026Y-106281020D01*
X144711439Y-106285000D01*
X144711444Y-106285000D01*
X144750000Y-106288797D01*
X144788556Y-106285000D01*
X145158796Y-106285000D01*
X145224201Y-106382886D01*
X145417114Y-106575799D01*
X145643957Y-106727371D01*
X145896011Y-106831775D01*
X146163589Y-106885000D01*
X146436411Y-106885000D01*
X146703989Y-106831775D01*
X146956043Y-106727371D01*
X147182886Y-106575799D01*
X147375799Y-106382886D01*
X147527371Y-106156043D01*
X147631775Y-105903989D01*
X147685000Y-105636411D01*
X147685000Y-105363589D01*
X147668008Y-105278165D01*
X148417653Y-106027810D01*
X148442236Y-106057764D01*
X148561767Y-106155862D01*
X148688574Y-106223641D01*
X148698140Y-106228754D01*
X148846113Y-106273642D01*
X148921026Y-106281020D01*
X148961439Y-106285000D01*
X148961444Y-106285000D01*
X149000000Y-106288797D01*
X149038556Y-106285000D01*
X149308796Y-106285000D01*
X149374201Y-106382886D01*
X149567114Y-106575799D01*
X149793957Y-106727371D01*
X150046011Y-106831775D01*
X150313589Y-106885000D01*
X150586411Y-106885000D01*
X150853989Y-106831775D01*
X151106043Y-106727371D01*
X151332886Y-106575799D01*
X151525799Y-106382886D01*
X151677371Y-106156043D01*
X151781775Y-105903989D01*
X151835000Y-105636411D01*
X151835000Y-105363589D01*
X151781775Y-105096011D01*
X151677371Y-104843957D01*
X151525799Y-104617114D01*
X151332886Y-104424201D01*
X151106043Y-104272629D01*
X150853989Y-104168225D01*
X150586411Y-104115000D01*
X150313589Y-104115000D01*
X150046011Y-104168225D01*
X149793957Y-104272629D01*
X149567114Y-104424201D01*
X149374201Y-104617114D01*
X149315349Y-104705192D01*
X144785000Y-100174843D01*
X144785000Y-98888552D01*
X144788797Y-98849999D01*
X144785000Y-98811446D01*
X144785000Y-98811439D01*
X144773641Y-98696113D01*
X144728754Y-98548140D01*
X144655862Y-98411767D01*
X144606450Y-98351559D01*
X144582345Y-98322187D01*
X144582342Y-98322184D01*
X144557764Y-98292236D01*
X144527817Y-98267659D01*
X140245000Y-93984843D01*
X140245000Y-93893589D01*
X140191775Y-93626011D01*
X140087371Y-93373957D01*
X139935799Y-93147114D01*
X139742886Y-92954201D01*
X139516043Y-92802629D01*
X139413127Y-92760000D01*
X139516043Y-92717371D01*
X139742886Y-92565799D01*
X139935799Y-92372886D01*
X140001204Y-92275000D01*
X142114843Y-92275000D01*
X150795446Y-100955604D01*
X150765000Y-101108665D01*
X150765000Y-101391335D01*
X150820147Y-101668574D01*
X150928320Y-101929727D01*
X151085363Y-102164759D01*
X151285241Y-102364637D01*
X151520273Y-102521680D01*
X151781426Y-102629853D01*
X152058665Y-102685000D01*
X152341335Y-102685000D01*
X152618574Y-102629853D01*
X152879727Y-102521680D01*
X153114759Y-102364637D01*
X153314637Y-102164759D01*
X153471680Y-101929727D01*
X153579853Y-101668574D01*
X153635000Y-101391335D01*
X153635000Y-101108665D01*
X153579853Y-100831426D01*
X153471680Y-100570273D01*
X153314637Y-100335241D01*
X153114759Y-100135363D01*
X152879727Y-99978320D01*
X152618574Y-99870147D01*
X152341335Y-99815000D01*
X152058665Y-99815000D01*
X151905604Y-99845446D01*
X143022347Y-90962190D01*
X142997764Y-90932236D01*
X142878233Y-90834138D01*
X142741860Y-90761246D01*
X142593887Y-90716359D01*
X142478561Y-90705000D01*
X142478553Y-90705000D01*
X142440000Y-90701203D01*
X142401447Y-90705000D01*
X140001204Y-90705000D01*
X139935799Y-90607114D01*
X139742886Y-90414201D01*
X139516043Y-90262629D01*
X139413127Y-90220000D01*
X139516043Y-90177371D01*
X139742886Y-90025799D01*
X139935799Y-89832886D01*
X140087371Y-89606043D01*
X140191775Y-89353989D01*
X140245000Y-89086411D01*
X140245000Y-88813589D01*
X140191775Y-88546011D01*
X140087371Y-88293957D01*
X139935799Y-88067114D01*
X139742886Y-87874201D01*
X139516043Y-87722629D01*
X139413127Y-87680000D01*
X139516043Y-87637371D01*
X139742886Y-87485799D01*
X139935799Y-87292886D01*
X140087371Y-87066043D01*
X140191775Y-86813989D01*
X140245000Y-86546411D01*
X140245000Y-86273589D01*
X140191775Y-86006011D01*
X140087371Y-85753957D01*
X139935799Y-85527114D01*
X139742886Y-85334201D01*
X139516043Y-85182629D01*
X139416721Y-85141489D01*
X139458832Y-85126277D01*
X139571863Y-85065860D01*
X139637388Y-84826993D01*
X138860000Y-84049605D01*
X138082612Y-84826993D01*
X138148137Y-85065860D01*
X138306477Y-85140164D01*
X138203957Y-85182629D01*
X137977114Y-85334201D01*
X137784201Y-85527114D01*
X137718796Y-85625000D01*
X137528556Y-85625000D01*
X137490000Y-85621203D01*
X137451444Y-85625000D01*
X137451439Y-85625000D01*
X137411026Y-85628980D01*
X137336113Y-85636358D01*
X137188140Y-85681246D01*
X137051767Y-85754138D01*
X136932236Y-85852236D01*
X136907653Y-85882190D01*
X135522185Y-87267658D01*
X135492237Y-87292236D01*
X135467659Y-87322184D01*
X135467655Y-87322188D01*
X135434690Y-87362356D01*
X135394139Y-87411767D01*
X135355177Y-87484660D01*
X135321246Y-87548141D01*
X135276359Y-87696114D01*
X135261203Y-87850000D01*
X135265001Y-87888563D01*
X135265000Y-104225386D01*
X135117114Y-104324201D01*
X134924201Y-104517114D01*
X134772629Y-104743957D01*
X134668225Y-104996011D01*
X134615000Y-105263589D01*
X132925055Y-105263589D01*
X132912032Y-105198125D01*
X134927810Y-103182347D01*
X134957764Y-103157764D01*
X135055862Y-103038233D01*
X135128754Y-102901860D01*
X135138851Y-102868574D01*
X135173642Y-102753887D01*
X135182715Y-102661760D01*
X135185000Y-102638561D01*
X135185000Y-102638556D01*
X135188797Y-102600000D01*
X135185000Y-102561444D01*
X135185000Y-89608556D01*
X135188797Y-89570000D01*
X135185000Y-89531440D01*
X135185000Y-89531439D01*
X135181020Y-89491026D01*
X135173642Y-89416113D01*
X135128754Y-89268140D01*
X135055862Y-89131767D01*
X134957764Y-89012236D01*
X134927811Y-88987654D01*
X132602032Y-86661875D01*
X132625000Y-86546411D01*
X132625000Y-86273589D01*
X132571775Y-86006011D01*
X132467371Y-85753957D01*
X132315799Y-85527114D01*
X132122886Y-85334201D01*
X131896043Y-85182629D01*
X131793127Y-85140000D01*
X131896043Y-85097371D01*
X132122886Y-84945799D01*
X132315799Y-84752886D01*
X132467371Y-84526043D01*
X132571775Y-84273989D01*
X132625000Y-84006411D01*
X132625000Y-83942492D01*
X137470188Y-83942492D01*
X137511035Y-84212238D01*
X137603723Y-84468832D01*
X137664140Y-84581863D01*
X137903007Y-84647388D01*
X138680395Y-83870000D01*
X139039605Y-83870000D01*
X139816993Y-84647388D01*
X140055860Y-84581863D01*
X140171760Y-84334884D01*
X140237250Y-84070040D01*
X140249812Y-83797508D01*
X140208965Y-83527762D01*
X140116277Y-83271168D01*
X140055860Y-83158137D01*
X139816993Y-83092612D01*
X139039605Y-83870000D01*
X138680395Y-83870000D01*
X137903007Y-83092612D01*
X137664140Y-83158137D01*
X137548240Y-83405116D01*
X137482750Y-83669960D01*
X137470188Y-83942492D01*
X132625000Y-83942492D01*
X132625000Y-83733589D01*
X132571775Y-83466011D01*
X132467371Y-83213957D01*
X132315799Y-82987114D01*
X132241692Y-82913007D01*
X138082612Y-82913007D01*
X138860000Y-83690395D01*
X139637388Y-82913007D01*
X139571863Y-82674140D01*
X139324884Y-82558240D01*
X139060040Y-82492750D01*
X138787508Y-82480188D01*
X138517762Y-82521035D01*
X138261168Y-82613723D01*
X138148137Y-82674140D01*
X138082612Y-82913007D01*
X132241692Y-82913007D01*
X132122886Y-82794201D01*
X131896043Y-82642629D01*
X131643989Y-82538225D01*
X131376411Y-82485000D01*
X131103589Y-82485000D01*
X130836011Y-82538225D01*
X130583957Y-82642629D01*
X130357114Y-82794201D01*
X130164201Y-82987114D01*
X130012629Y-83213957D01*
X129908225Y-83466011D01*
X129855000Y-83733589D01*
X129635000Y-83733589D01*
X129635000Y-83275157D01*
X131525157Y-81385000D01*
X139024843Y-81385000D01*
X150795446Y-93155604D01*
X150765000Y-93308665D01*
X150765000Y-93591335D01*
X150820147Y-93868574D01*
X150928320Y-94129727D01*
X151085363Y-94364759D01*
X151285241Y-94564637D01*
X151520273Y-94721680D01*
X151781426Y-94829853D01*
X152058665Y-94885000D01*
X152341335Y-94885000D01*
X152618574Y-94829853D01*
X152879727Y-94721680D01*
X153114759Y-94564637D01*
X153314637Y-94364759D01*
X153471680Y-94129727D01*
X153579853Y-93868574D01*
X153635000Y-93591335D01*
X153635000Y-93308665D01*
X153579853Y-93031426D01*
X153471680Y-92770273D01*
X153314637Y-92535241D01*
X153114759Y-92335363D01*
X152879727Y-92178320D01*
X152862705Y-92171269D01*
X156158336Y-92171269D01*
X156217797Y-92405037D01*
X156456242Y-92515934D01*
X156711740Y-92578183D01*
X156974473Y-92589390D01*
X157234344Y-92549125D01*
X157481366Y-92458935D01*
X157582203Y-92405037D01*
X157641664Y-92171269D01*
X156900000Y-91429605D01*
X156158336Y-92171269D01*
X152862705Y-92171269D01*
X152618574Y-92070147D01*
X152341335Y-92015000D01*
X152058665Y-92015000D01*
X151905604Y-92045446D01*
X151184631Y-91324473D01*
X155560610Y-91324473D01*
X155600875Y-91584344D01*
X155691065Y-91831366D01*
X155744963Y-91932203D01*
X155978731Y-91991664D01*
X156720395Y-91250000D01*
X157079605Y-91250000D01*
X157821269Y-91991664D01*
X158055037Y-91932203D01*
X158165934Y-91693758D01*
X158228183Y-91438260D01*
X158239390Y-91175527D01*
X158199125Y-90915656D01*
X158108935Y-90668634D01*
X158055037Y-90567797D01*
X157821269Y-90508336D01*
X157079605Y-91250000D01*
X156720395Y-91250000D01*
X155978731Y-90508336D01*
X155744963Y-90567797D01*
X155634066Y-90806242D01*
X155571817Y-91061740D01*
X155560610Y-91324473D01*
X151184631Y-91324473D01*
X150188889Y-90328731D01*
X156158336Y-90328731D01*
X156900000Y-91070395D01*
X157641664Y-90328731D01*
X157582203Y-90094963D01*
X157343758Y-89984066D01*
X157088260Y-89921817D01*
X156825527Y-89910610D01*
X156565656Y-89950875D01*
X156318634Y-90041065D01*
X156217797Y-90094963D01*
X156158336Y-90328731D01*
X150188889Y-90328731D01*
X143502142Y-83641984D01*
X161365000Y-83641984D01*
X161365000Y-84358016D01*
X161504691Y-85060290D01*
X161778705Y-85721818D01*
X162176511Y-86317177D01*
X162682823Y-86823489D01*
X163278182Y-87221295D01*
X163939710Y-87495309D01*
X164641984Y-87635000D01*
X165358016Y-87635000D01*
X166060290Y-87495309D01*
X166721818Y-87221295D01*
X167317177Y-86823489D01*
X167823489Y-86317177D01*
X168221295Y-85721818D01*
X168495309Y-85060290D01*
X168635000Y-84358016D01*
X168635000Y-83641984D01*
X168495309Y-82939710D01*
X168221295Y-82278182D01*
X167823489Y-81682823D01*
X167317177Y-81176511D01*
X166721818Y-80778705D01*
X166060290Y-80504691D01*
X165358016Y-80365000D01*
X164641984Y-80365000D01*
X163939710Y-80504691D01*
X163278182Y-80778705D01*
X162682823Y-81176511D01*
X162176511Y-81682823D01*
X161778705Y-82278182D01*
X161504691Y-82939710D01*
X161365000Y-83641984D01*
X143502142Y-83641984D01*
X139932347Y-80072190D01*
X139907764Y-80042236D01*
X139788233Y-79944138D01*
X139651860Y-79871246D01*
X139503887Y-79826359D01*
X139388561Y-79815000D01*
X139388553Y-79815000D01*
X139350000Y-79811203D01*
X139311447Y-79815000D01*
X131238556Y-79815000D01*
X131200000Y-79811203D01*
X131161444Y-79815000D01*
X131161439Y-79815000D01*
X131121026Y-79818980D01*
X131046113Y-79826358D01*
X130898140Y-79871246D01*
X130761767Y-79944138D01*
X130642236Y-80042236D01*
X130617653Y-80072190D01*
X128322185Y-82367658D01*
X128292237Y-82392236D01*
X128267659Y-82422184D01*
X128267655Y-82422188D01*
X128234690Y-82462356D01*
X128194139Y-82511767D01*
X128179997Y-82538225D01*
X128121246Y-82648141D01*
X128076359Y-82796114D01*
X128061203Y-82950000D01*
X128065001Y-82988563D01*
X128065000Y-96681447D01*
X128061203Y-96720000D01*
X128064595Y-96754437D01*
X126254554Y-94944396D01*
X126285000Y-94791335D01*
X126285000Y-94508665D01*
X126229853Y-94231426D01*
X126121680Y-93970273D01*
X125964637Y-93735241D01*
X125764759Y-93535363D01*
X125735000Y-93515479D01*
X125735000Y-92591204D01*
X125832886Y-92525799D01*
X126025799Y-92332886D01*
X126177371Y-92106043D01*
X126281775Y-91853989D01*
X126335000Y-91586411D01*
X126335000Y-91313589D01*
X126281775Y-91046011D01*
X126177371Y-90793957D01*
X126025799Y-90567114D01*
X125832886Y-90374201D01*
X125606043Y-90222629D01*
X125353989Y-90118225D01*
X125086411Y-90065000D01*
X124813589Y-90065000D01*
X124546011Y-90118225D01*
X124293957Y-90222629D01*
X124067114Y-90374201D01*
X123874201Y-90567114D01*
X123722629Y-90793957D01*
X123618225Y-91046011D01*
X123565000Y-91313589D01*
X123565000Y-91586411D01*
X123618225Y-91853989D01*
X123722629Y-92106043D01*
X123874201Y-92332886D01*
X124067114Y-92525799D01*
X124165000Y-92591205D01*
X124165001Y-93381843D01*
X123935241Y-93535363D01*
X123735363Y-93735241D01*
X123578320Y-93970273D01*
X123470147Y-94231426D01*
X123415000Y-94508665D01*
X110625171Y-94508665D01*
X110614506Y-83641984D01*
X111365000Y-83641984D01*
X111365000Y-84358016D01*
X111504691Y-85060290D01*
X111778705Y-85721818D01*
X112176511Y-86317177D01*
X112682823Y-86823489D01*
X113278182Y-87221295D01*
X113939710Y-87495309D01*
X114641984Y-87635000D01*
X115358016Y-87635000D01*
X116060290Y-87495309D01*
X116721818Y-87221295D01*
X117317177Y-86823489D01*
X117823489Y-86317177D01*
X118221295Y-85721818D01*
X118351699Y-85406993D01*
X124172612Y-85406993D01*
X124238137Y-85645860D01*
X124485116Y-85761760D01*
X124749960Y-85827250D01*
X125022492Y-85839812D01*
X125292238Y-85798965D01*
X125548832Y-85706277D01*
X125661863Y-85645860D01*
X125727388Y-85406993D01*
X124950000Y-84629605D01*
X124172612Y-85406993D01*
X118351699Y-85406993D01*
X118495309Y-85060290D01*
X118602283Y-84522492D01*
X123560188Y-84522492D01*
X123601035Y-84792238D01*
X123693723Y-85048832D01*
X123754140Y-85161863D01*
X123993007Y-85227388D01*
X124770395Y-84450000D01*
X125129605Y-84450000D01*
X125906993Y-85227388D01*
X126145860Y-85161863D01*
X126261760Y-84914884D01*
X126327250Y-84650040D01*
X126339812Y-84377508D01*
X126298965Y-84107762D01*
X126206277Y-83851168D01*
X126145860Y-83738137D01*
X125906993Y-83672612D01*
X125129605Y-84450000D01*
X124770395Y-84450000D01*
X123993007Y-83672612D01*
X123754140Y-83738137D01*
X123638240Y-83985116D01*
X123572750Y-84249960D01*
X123560188Y-84522492D01*
X118602283Y-84522492D01*
X118635000Y-84358016D01*
X118635000Y-83641984D01*
X118605367Y-83493007D01*
X124172612Y-83493007D01*
X124950000Y-84270395D01*
X125727388Y-83493007D01*
X125661863Y-83254140D01*
X125414884Y-83138240D01*
X125150040Y-83072750D01*
X124877508Y-83060188D01*
X124607762Y-83101035D01*
X124351168Y-83193723D01*
X124238137Y-83254140D01*
X124172612Y-83493007D01*
X118605367Y-83493007D01*
X118495309Y-82939710D01*
X118221295Y-82278182D01*
X117823489Y-81682823D01*
X117317177Y-81176511D01*
X116721818Y-80778705D01*
X116060290Y-80504691D01*
X115358016Y-80365000D01*
X114641984Y-80365000D01*
X113939710Y-80504691D01*
X113278182Y-80778705D01*
X112682823Y-81176511D01*
X112176511Y-81682823D01*
X111778705Y-82278182D01*
X111504691Y-82939710D01*
X111365000Y-83641984D01*
X110614506Y-83641984D01*
X110610647Y-79710000D01*
X169340001Y-79710000D01*
X169340000Y-129340000D01*
G36*
X130474201Y-113332886D02*
G01*
X130667114Y-113525799D01*
X130893957Y-113677371D01*
X131146011Y-113781775D01*
X131413589Y-113835000D01*
X131686411Y-113835000D01*
X131953989Y-113781775D01*
X132206043Y-113677371D01*
X132376102Y-113563741D01*
X132022185Y-113917658D01*
X131992237Y-113942236D01*
X131967659Y-113972184D01*
X131967655Y-113972188D01*
X131948020Y-113996114D01*
X131894139Y-114061767D01*
X131870899Y-114105247D01*
X131821246Y-114198141D01*
X131776359Y-114346114D01*
X131761203Y-114500000D01*
X131765001Y-114538563D01*
X131765000Y-116718930D01*
X131698987Y-116763038D01*
X131513038Y-116948987D01*
X131366939Y-117167641D01*
X131266304Y-117410595D01*
X131215000Y-117668514D01*
X131215000Y-117931486D01*
X131266304Y-118189405D01*
X131366939Y-118432359D01*
X131513038Y-118651013D01*
X131698987Y-118836962D01*
X131917641Y-118983061D01*
X132160595Y-119083696D01*
X132418514Y-119135000D01*
X132681486Y-119135000D01*
X132848152Y-119101848D01*
X132815000Y-119268514D01*
X132815000Y-119531486D01*
X132866304Y-119789405D01*
X132966939Y-120032359D01*
X133113038Y-120251013D01*
X133298987Y-120436962D01*
X133365000Y-120481070D01*
X133365001Y-123961798D01*
X133163368Y-124096525D01*
X132956525Y-124303368D01*
X132794010Y-124546589D01*
X132682068Y-124816842D01*
X132625000Y-125103740D01*
X132625000Y-125396260D01*
X132682068Y-125683158D01*
X132794010Y-125953411D01*
X132956525Y-126196632D01*
X133163368Y-126403475D01*
X133406589Y-126565990D01*
X133676842Y-126677932D01*
X133963740Y-126735000D01*
X134256260Y-126735000D01*
X134543158Y-126677932D01*
X134813411Y-126565990D01*
X135056632Y-126403475D01*
X135263475Y-126196632D01*
X135380000Y-126022240D01*
X135496525Y-126196632D01*
X135703368Y-126403475D01*
X135865001Y-126511474D01*
X135865000Y-127565000D01*
X128625158Y-127565000D01*
X128485000Y-127424843D01*
X128485000Y-127025157D01*
X128863082Y-126647075D01*
X129053740Y-126685000D01*
X129346260Y-126685000D01*
X129633158Y-126627932D01*
X129903411Y-126515990D01*
X130146632Y-126353475D01*
X130353475Y-126146632D01*
X130515990Y-125903411D01*
X130627932Y-125633158D01*
X130685000Y-125346260D01*
X130685000Y-125053740D01*
X130627932Y-124766842D01*
X130515990Y-124496589D01*
X130353475Y-124253368D01*
X130146632Y-124046525D01*
X129903411Y-123884010D01*
X129633158Y-123772068D01*
X129346260Y-123715000D01*
X129053740Y-123715000D01*
X128766842Y-123772068D01*
X128496589Y-123884010D01*
X128253368Y-124046525D01*
X128046525Y-124253368D01*
X127930000Y-124427760D01*
X127813475Y-124253368D01*
X127606632Y-124046525D01*
X127485000Y-123965253D01*
X127485000Y-120431070D01*
X127551013Y-120386962D01*
X127736962Y-120201013D01*
X127883061Y-119982359D01*
X127983696Y-119739405D01*
X128035000Y-119481486D01*
X128035000Y-119218514D01*
X127983696Y-118960595D01*
X127883061Y-118717641D01*
X127736962Y-118498987D01*
X127551013Y-118313038D01*
X127332359Y-118166939D01*
X127089405Y-118066304D01*
X126831486Y-118015000D01*
X126568514Y-118015000D01*
X126401848Y-118048152D01*
X126435000Y-117881486D01*
X126435000Y-117618514D01*
X126401756Y-117451387D01*
X126511740Y-117478183D01*
X126774473Y-117489390D01*
X127034344Y-117449125D01*
X127281366Y-117358935D01*
X127382203Y-117305037D01*
X127441664Y-117071269D01*
X126700000Y-116329605D01*
X126685858Y-116343748D01*
X126506253Y-116164143D01*
X126520395Y-116150000D01*
X126879605Y-116150000D01*
X127621269Y-116891664D01*
X127855037Y-116832203D01*
X127965934Y-116593758D01*
X128028183Y-116338260D01*
X128039390Y-116075527D01*
X127999125Y-115815656D01*
X127908935Y-115568634D01*
X127855037Y-115467797D01*
X127621269Y-115408336D01*
X126879605Y-116150000D01*
X126520395Y-116150000D01*
X126506253Y-116135858D01*
X126685858Y-115956253D01*
X126700000Y-115970395D01*
X127441664Y-115228731D01*
X127382203Y-114994963D01*
X127143758Y-114884066D01*
X126888260Y-114821817D01*
X126625527Y-114810610D01*
X126365656Y-114850875D01*
X126118634Y-114941065D01*
X126017797Y-114994963D01*
X125958337Y-115228729D01*
X125885000Y-115155392D01*
X125885000Y-114475157D01*
X127125158Y-113235000D01*
X130408796Y-113235000D01*
X130474201Y-113332886D01*
X130474201Y-113332886D01*
G37*
X130474201Y-113332886D02*
X130667114Y-113525799D01*
X130893957Y-113677371D01*
X131146011Y-113781775D01*
X131413589Y-113835000D01*
X131686411Y-113835000D01*
X131953989Y-113781775D01*
X132206043Y-113677371D01*
X132376102Y-113563741D01*
X132022185Y-113917658D01*
X131992237Y-113942236D01*
X131967659Y-113972184D01*
X131967655Y-113972188D01*
X131948020Y-113996114D01*
X131894139Y-114061767D01*
X131870899Y-114105247D01*
X131821246Y-114198141D01*
X131776359Y-114346114D01*
X131761203Y-114500000D01*
X131765001Y-114538563D01*
X131765000Y-116718930D01*
X131698987Y-116763038D01*
X131513038Y-116948987D01*
X131366939Y-117167641D01*
X131266304Y-117410595D01*
X131215000Y-117668514D01*
X131215000Y-117931486D01*
X131266304Y-118189405D01*
X131366939Y-118432359D01*
X131513038Y-118651013D01*
X131698987Y-118836962D01*
X131917641Y-118983061D01*
X132160595Y-119083696D01*
X132418514Y-119135000D01*
X132681486Y-119135000D01*
X132848152Y-119101848D01*
X132815000Y-119268514D01*
X132815000Y-119531486D01*
X132866304Y-119789405D01*
X132966939Y-120032359D01*
X133113038Y-120251013D01*
X133298987Y-120436962D01*
X133365000Y-120481070D01*
X133365001Y-123961798D01*
X133163368Y-124096525D01*
X132956525Y-124303368D01*
X132794010Y-124546589D01*
X132682068Y-124816842D01*
X132625000Y-125103740D01*
X132625000Y-125396260D01*
X132682068Y-125683158D01*
X132794010Y-125953411D01*
X132956525Y-126196632D01*
X133163368Y-126403475D01*
X133406589Y-126565990D01*
X133676842Y-126677932D01*
X133963740Y-126735000D01*
X134256260Y-126735000D01*
X134543158Y-126677932D01*
X134813411Y-126565990D01*
X135056632Y-126403475D01*
X135263475Y-126196632D01*
X135380000Y-126022240D01*
X135496525Y-126196632D01*
X135703368Y-126403475D01*
X135865001Y-126511474D01*
X135865000Y-127565000D01*
X128625158Y-127565000D01*
X128485000Y-127424843D01*
X128485000Y-127025157D01*
X128863082Y-126647075D01*
X129053740Y-126685000D01*
X129346260Y-126685000D01*
X129633158Y-126627932D01*
X129903411Y-126515990D01*
X130146632Y-126353475D01*
X130353475Y-126146632D01*
X130515990Y-125903411D01*
X130627932Y-125633158D01*
X130685000Y-125346260D01*
X130685000Y-125053740D01*
X130627932Y-124766842D01*
X130515990Y-124496589D01*
X130353475Y-124253368D01*
X130146632Y-124046525D01*
X129903411Y-123884010D01*
X129633158Y-123772068D01*
X129346260Y-123715000D01*
X129053740Y-123715000D01*
X128766842Y-123772068D01*
X128496589Y-123884010D01*
X128253368Y-124046525D01*
X128046525Y-124253368D01*
X127930000Y-124427760D01*
X127813475Y-124253368D01*
X127606632Y-124046525D01*
X127485000Y-123965253D01*
X127485000Y-120431070D01*
X127551013Y-120386962D01*
X127736962Y-120201013D01*
X127883061Y-119982359D01*
X127983696Y-119739405D01*
X128035000Y-119481486D01*
X128035000Y-119218514D01*
X127983696Y-118960595D01*
X127883061Y-118717641D01*
X127736962Y-118498987D01*
X127551013Y-118313038D01*
X127332359Y-118166939D01*
X127089405Y-118066304D01*
X126831486Y-118015000D01*
X126568514Y-118015000D01*
X126401848Y-118048152D01*
X126435000Y-117881486D01*
X126435000Y-117618514D01*
X126401756Y-117451387D01*
X126511740Y-117478183D01*
X126774473Y-117489390D01*
X127034344Y-117449125D01*
X127281366Y-117358935D01*
X127382203Y-117305037D01*
X127441664Y-117071269D01*
X126700000Y-116329605D01*
X126685858Y-116343748D01*
X126506253Y-116164143D01*
X126520395Y-116150000D01*
X126879605Y-116150000D01*
X127621269Y-116891664D01*
X127855037Y-116832203D01*
X127965934Y-116593758D01*
X128028183Y-116338260D01*
X128039390Y-116075527D01*
X127999125Y-115815656D01*
X127908935Y-115568634D01*
X127855037Y-115467797D01*
X127621269Y-115408336D01*
X126879605Y-116150000D01*
X126520395Y-116150000D01*
X126506253Y-116135858D01*
X126685858Y-115956253D01*
X126700000Y-115970395D01*
X127441664Y-115228731D01*
X127382203Y-114994963D01*
X127143758Y-114884066D01*
X126888260Y-114821817D01*
X126625527Y-114810610D01*
X126365656Y-114850875D01*
X126118634Y-114941065D01*
X126017797Y-114994963D01*
X125958337Y-115228729D01*
X125885000Y-115155392D01*
X125885000Y-114475157D01*
X127125158Y-113235000D01*
X130408796Y-113235000D01*
X130474201Y-113332886D01*
M02*
