M48
; DRILL file {KiCad (5.1.2)-2} date 26/06/2023 22:41:07
; FORMAT={-:-/ absolute / inch / decimal}
; #@! TF.CreationDate,2023-06-26T22:41:07-03:00
; #@! TF.GenerationSoftware,Kicad,Pcbnew,(5.1.2)-2
; #@! TF.FileFunction,Plated,1,2,PTH
FMAT,2
INCH
T1C0.0276
T2C0.0315
T3C0.0394
T4C0.0512
T5C0.1575
%
G90
G05
T1
X5.3543Y-4.4252
X5.9232Y-4.1535
X6.2756Y-4.6457
X6.2756Y-4.9213
X5.7598Y-4.1535
X5.7598Y-4.4291
X5.5984Y-4.1496
X5.5984Y-4.4252
X4.9193Y-3.3248
X4.9193Y-3.6004
X5.3543Y-4.1496
X5.9232Y-4.4291
X6.2717Y-3.9902
X6.3701Y-3.9902
X6.1772Y-3.5925
X6.374Y-3.5925
X5.1791Y-4.1516
X5.1791Y-4.4272
T2
X5.7776Y-4.6378
X5.8406Y-4.5748
X5.8406Y-4.7008
X4.9252Y-4.6358
X4.9882Y-4.5728
X4.9882Y-4.6988
X6.0177Y-4.6398
X6.0807Y-4.5768
X6.0807Y-4.7028
X6.1752Y-3.7913
X6.4823Y-3.7913
X5.2185Y-4.6378
X5.2815Y-4.5748
X5.2815Y-4.7008
X5.1669Y-3.302
X5.1669Y-3.402
X5.1669Y-3.502
X5.1669Y-3.602
X5.1669Y-3.702
X5.1669Y-3.802
X5.1669Y-3.902
X5.1669Y-4.002
X5.4669Y-3.302
X5.4669Y-3.402
X5.4669Y-3.502
X5.4669Y-3.602
X5.4669Y-3.702
X5.4669Y-3.802
X5.4669Y-3.902
X5.4669Y-4.002
X5.5256Y-4.6358
X5.5886Y-4.5728
X5.5886Y-4.6988
X5.9921Y-3.6791
X5.9921Y-3.9862
X4.9154Y-3.7264
X4.9154Y-4.0335
T3
X5.2799Y-4.9311
X5.3799Y-4.9311
X4.4055Y-4.1417
X4.9866Y-4.9291
X5.0866Y-4.9291
X5.8035Y-4.9311
X5.9035Y-4.9311
X6.0516Y-4.9272
X6.1516Y-4.9272
X5.5417Y-4.9311
X5.6417Y-4.9311
T4
X6.5276Y-4.335
X6.5276Y-4.435
X6.5276Y-4.535
T5
X4.5276Y-3.3071
X4.5276Y-4.9213
X6.4961Y-3.3071
X6.4961Y-4.9213
T0
M30
