G04 #@! TF.GenerationSoftware,KiCad,Pcbnew,(5.1.2)-2*
G04 #@! TF.CreationDate,2023-06-26T22:41:17-03:00*
G04 #@! TF.ProjectId,PRJ230523 - Haste de led,50524a32-3330-4353-9233-202d20486173,rev?*
G04 #@! TF.SameCoordinates,Original*
G04 #@! TF.FileFunction,Soldermask,Bot*
G04 #@! TF.FilePolarity,Negative*
%FSLAX46Y46*%
G04 Gerber Fmt 4.6, Leading zero omitted, Abs format (unit mm)*
G04 Created by KiCad (PCBNEW (5.1.2)-2) date 2023-06-26 22:41:17*
%MOMM*%
%LPD*%
G04 APERTURE LIST*
%ADD10C,0.100000*%
G04 APERTURE END LIST*
D10*
G36*
X140945336Y-124318254D02*
G01*
X141037105Y-124336508D01*
X141209994Y-124408121D01*
X141365590Y-124512087D01*
X141497913Y-124644410D01*
X141601879Y-124800006D01*
X141673492Y-124972895D01*
X141710000Y-125156433D01*
X141710000Y-125343567D01*
X141673492Y-125527105D01*
X141601879Y-125699994D01*
X141497913Y-125855590D01*
X141365590Y-125987913D01*
X141209994Y-126091879D01*
X141037105Y-126163492D01*
X140945336Y-126181746D01*
X140853568Y-126200000D01*
X140666432Y-126200000D01*
X140574664Y-126181746D01*
X140482895Y-126163492D01*
X140310006Y-126091879D01*
X140154410Y-125987913D01*
X140022087Y-125855590D01*
X139918121Y-125699994D01*
X139846508Y-125527105D01*
X139810000Y-125343567D01*
X139810000Y-125156433D01*
X139846508Y-124972895D01*
X139918121Y-124800006D01*
X140022087Y-124644410D01*
X140154410Y-124512087D01*
X140310006Y-124408121D01*
X140482895Y-124336508D01*
X140574664Y-124318254D01*
X140666432Y-124300000D01*
X140853568Y-124300000D01*
X140945336Y-124318254D01*
X140945336Y-124318254D01*
G37*
G36*
X147595336Y-124318254D02*
G01*
X147687105Y-124336508D01*
X147859994Y-124408121D01*
X148015590Y-124512087D01*
X148147913Y-124644410D01*
X148251879Y-124800006D01*
X148323492Y-124972895D01*
X148360000Y-125156433D01*
X148360000Y-125343567D01*
X148323492Y-125527105D01*
X148251879Y-125699994D01*
X148147913Y-125855590D01*
X148015590Y-125987913D01*
X147859994Y-126091879D01*
X147687105Y-126163492D01*
X147595336Y-126181746D01*
X147503568Y-126200000D01*
X147316432Y-126200000D01*
X147224664Y-126181746D01*
X147132895Y-126163492D01*
X146960006Y-126091879D01*
X146804410Y-125987913D01*
X146672087Y-125855590D01*
X146568121Y-125699994D01*
X146496508Y-125527105D01*
X146460000Y-125343567D01*
X146460000Y-125156433D01*
X146496508Y-124972895D01*
X146568121Y-124800006D01*
X146672087Y-124644410D01*
X146804410Y-124512087D01*
X146960006Y-124408121D01*
X147132895Y-124336508D01*
X147224664Y-124318254D01*
X147316432Y-124300000D01*
X147503568Y-124300000D01*
X147595336Y-124318254D01*
X147595336Y-124318254D01*
G37*
G36*
X134295336Y-124318254D02*
G01*
X134387105Y-124336508D01*
X134559994Y-124408121D01*
X134715590Y-124512087D01*
X134847913Y-124644410D01*
X134951879Y-124800006D01*
X135023492Y-124972895D01*
X135060000Y-125156433D01*
X135060000Y-125343567D01*
X135023492Y-125527105D01*
X134951879Y-125699994D01*
X134847913Y-125855590D01*
X134715590Y-125987913D01*
X134559994Y-126091879D01*
X134387105Y-126163492D01*
X134295336Y-126181746D01*
X134203568Y-126200000D01*
X134016432Y-126200000D01*
X133924664Y-126181746D01*
X133832895Y-126163492D01*
X133660006Y-126091879D01*
X133504410Y-125987913D01*
X133372087Y-125855590D01*
X133268121Y-125699994D01*
X133196508Y-125527105D01*
X133160000Y-125343567D01*
X133160000Y-125156433D01*
X133196508Y-124972895D01*
X133268121Y-124800006D01*
X133372087Y-124644410D01*
X133504410Y-124512087D01*
X133660006Y-124408121D01*
X133832895Y-124336508D01*
X133924664Y-124318254D01*
X134016432Y-124300000D01*
X134203568Y-124300000D01*
X134295336Y-124318254D01*
X134295336Y-124318254D01*
G37*
G36*
X136835336Y-124318254D02*
G01*
X136927105Y-124336508D01*
X137099994Y-124408121D01*
X137255590Y-124512087D01*
X137387913Y-124644410D01*
X137491879Y-124800006D01*
X137563492Y-124972895D01*
X137600000Y-125156433D01*
X137600000Y-125343567D01*
X137563492Y-125527105D01*
X137491879Y-125699994D01*
X137387913Y-125855590D01*
X137255590Y-125987913D01*
X137099994Y-126091879D01*
X136927105Y-126163492D01*
X136835336Y-126181746D01*
X136743568Y-126200000D01*
X136556432Y-126200000D01*
X136464664Y-126181746D01*
X136372895Y-126163492D01*
X136200006Y-126091879D01*
X136044410Y-125987913D01*
X135912087Y-125855590D01*
X135808121Y-125699994D01*
X135736508Y-125527105D01*
X135700000Y-125343567D01*
X135700000Y-125156433D01*
X135736508Y-124972895D01*
X135808121Y-124800006D01*
X135912087Y-124644410D01*
X136044410Y-124512087D01*
X136200006Y-124408121D01*
X136372895Y-124336508D01*
X136464664Y-124318254D01*
X136556432Y-124300000D01*
X136743568Y-124300000D01*
X136835336Y-124318254D01*
X136835336Y-124318254D01*
G37*
G36*
X150135336Y-124318254D02*
G01*
X150227105Y-124336508D01*
X150399994Y-124408121D01*
X150555590Y-124512087D01*
X150687913Y-124644410D01*
X150791879Y-124800006D01*
X150863492Y-124972895D01*
X150900000Y-125156433D01*
X150900000Y-125343567D01*
X150863492Y-125527105D01*
X150791879Y-125699994D01*
X150687913Y-125855590D01*
X150555590Y-125987913D01*
X150399994Y-126091879D01*
X150227105Y-126163492D01*
X150135336Y-126181746D01*
X150043568Y-126200000D01*
X149856432Y-126200000D01*
X149764664Y-126181746D01*
X149672895Y-126163492D01*
X149500006Y-126091879D01*
X149344410Y-125987913D01*
X149212087Y-125855590D01*
X149108121Y-125699994D01*
X149036508Y-125527105D01*
X149000000Y-125343567D01*
X149000000Y-125156433D01*
X149036508Y-124972895D01*
X149108121Y-124800006D01*
X149212087Y-124644410D01*
X149344410Y-124512087D01*
X149500006Y-124408121D01*
X149672895Y-124336508D01*
X149764664Y-124318254D01*
X149856432Y-124300000D01*
X150043568Y-124300000D01*
X150135336Y-124318254D01*
X150135336Y-124318254D01*
G37*
G36*
X143485336Y-124318254D02*
G01*
X143577105Y-124336508D01*
X143749994Y-124408121D01*
X143905590Y-124512087D01*
X144037913Y-124644410D01*
X144141879Y-124800006D01*
X144213492Y-124972895D01*
X144250000Y-125156433D01*
X144250000Y-125343567D01*
X144213492Y-125527105D01*
X144141879Y-125699994D01*
X144037913Y-125855590D01*
X143905590Y-125987913D01*
X143749994Y-126091879D01*
X143577105Y-126163492D01*
X143485336Y-126181746D01*
X143393568Y-126200000D01*
X143206432Y-126200000D01*
X143114664Y-126181746D01*
X143022895Y-126163492D01*
X142850006Y-126091879D01*
X142694410Y-125987913D01*
X142562087Y-125855590D01*
X142458121Y-125699994D01*
X142386508Y-125527105D01*
X142350000Y-125343567D01*
X142350000Y-125156433D01*
X142386508Y-124972895D01*
X142458121Y-124800006D01*
X142562087Y-124644410D01*
X142694410Y-124512087D01*
X142850006Y-124408121D01*
X143022895Y-124336508D01*
X143114664Y-124318254D01*
X143206432Y-124300000D01*
X143393568Y-124300000D01*
X143485336Y-124318254D01*
X143485336Y-124318254D01*
G37*
G36*
X126845336Y-124268254D02*
G01*
X126937105Y-124286508D01*
X127109994Y-124358121D01*
X127265590Y-124462087D01*
X127397913Y-124594410D01*
X127501879Y-124750006D01*
X127573492Y-124922895D01*
X127610000Y-125106433D01*
X127610000Y-125293567D01*
X127573492Y-125477105D01*
X127501879Y-125649994D01*
X127397913Y-125805590D01*
X127265590Y-125937913D01*
X127109994Y-126041879D01*
X126937105Y-126113492D01*
X126845336Y-126131746D01*
X126753568Y-126150000D01*
X126566432Y-126150000D01*
X126474664Y-126131746D01*
X126382895Y-126113492D01*
X126210006Y-126041879D01*
X126054410Y-125937913D01*
X125922087Y-125805590D01*
X125818121Y-125649994D01*
X125746508Y-125477105D01*
X125710000Y-125293567D01*
X125710000Y-125106433D01*
X125746508Y-124922895D01*
X125818121Y-124750006D01*
X125922087Y-124594410D01*
X126054410Y-124462087D01*
X126210006Y-124358121D01*
X126382895Y-124286508D01*
X126474664Y-124268254D01*
X126566432Y-124250000D01*
X126753568Y-124250000D01*
X126845336Y-124268254D01*
X126845336Y-124268254D01*
G37*
G36*
X129385336Y-124268254D02*
G01*
X129477105Y-124286508D01*
X129649994Y-124358121D01*
X129805590Y-124462087D01*
X129937913Y-124594410D01*
X130041879Y-124750006D01*
X130113492Y-124922895D01*
X130150000Y-125106433D01*
X130150000Y-125293567D01*
X130113492Y-125477105D01*
X130041879Y-125649994D01*
X129937913Y-125805590D01*
X129805590Y-125937913D01*
X129649994Y-126041879D01*
X129477105Y-126113492D01*
X129385336Y-126131746D01*
X129293568Y-126150000D01*
X129106432Y-126150000D01*
X129014664Y-126131746D01*
X128922895Y-126113492D01*
X128750006Y-126041879D01*
X128594410Y-125937913D01*
X128462087Y-125805590D01*
X128358121Y-125649994D01*
X128286508Y-125477105D01*
X128250000Y-125293567D01*
X128250000Y-125106433D01*
X128286508Y-124922895D01*
X128358121Y-124750006D01*
X128462087Y-124594410D01*
X128594410Y-124462087D01*
X128750006Y-124358121D01*
X128922895Y-124286508D01*
X129014664Y-124268254D01*
X129106432Y-124250000D01*
X129293568Y-124250000D01*
X129385336Y-124268254D01*
X129385336Y-124268254D01*
G37*
G36*
X153895336Y-124218254D02*
G01*
X153987105Y-124236508D01*
X154159994Y-124308121D01*
X154315590Y-124412087D01*
X154447913Y-124544410D01*
X154551879Y-124700006D01*
X154623492Y-124872895D01*
X154660000Y-125056433D01*
X154660000Y-125243567D01*
X154623492Y-125427105D01*
X154551879Y-125599994D01*
X154447913Y-125755590D01*
X154315590Y-125887913D01*
X154159994Y-125991879D01*
X153987105Y-126063492D01*
X153895336Y-126081746D01*
X153803568Y-126100000D01*
X153616432Y-126100000D01*
X153524664Y-126081746D01*
X153432895Y-126063492D01*
X153260006Y-125991879D01*
X153104410Y-125887913D01*
X152972087Y-125755590D01*
X152868121Y-125599994D01*
X152796508Y-125427105D01*
X152760000Y-125243567D01*
X152760000Y-125056433D01*
X152796508Y-124872895D01*
X152868121Y-124700006D01*
X152972087Y-124544410D01*
X153104410Y-124412087D01*
X153260006Y-124308121D01*
X153432895Y-124236508D01*
X153524664Y-124218254D01*
X153616432Y-124200000D01*
X153803568Y-124200000D01*
X153895336Y-124218254D01*
X153895336Y-124218254D01*
G37*
G36*
X156435336Y-124218254D02*
G01*
X156527105Y-124236508D01*
X156699994Y-124308121D01*
X156855590Y-124412087D01*
X156987913Y-124544410D01*
X157091879Y-124700006D01*
X157163492Y-124872895D01*
X157200000Y-125056433D01*
X157200000Y-125243567D01*
X157163492Y-125427105D01*
X157091879Y-125599994D01*
X156987913Y-125755590D01*
X156855590Y-125887913D01*
X156699994Y-125991879D01*
X156527105Y-126063492D01*
X156435336Y-126081746D01*
X156343568Y-126100000D01*
X156156432Y-126100000D01*
X156064664Y-126081746D01*
X155972895Y-126063492D01*
X155800006Y-125991879D01*
X155644410Y-125887913D01*
X155512087Y-125755590D01*
X155408121Y-125599994D01*
X155336508Y-125427105D01*
X155300000Y-125243567D01*
X155300000Y-125056433D01*
X155336508Y-124872895D01*
X155408121Y-124700006D01*
X155512087Y-124544410D01*
X155644410Y-124412087D01*
X155800006Y-124308121D01*
X155972895Y-124236508D01*
X156064664Y-124218254D01*
X156156432Y-124200000D01*
X156343568Y-124200000D01*
X156435336Y-124218254D01*
X156435336Y-124218254D01*
G37*
G36*
X159647935Y-124182664D02*
G01*
X159777924Y-124236508D01*
X159802626Y-124246740D01*
X159941844Y-124339762D01*
X160060238Y-124458156D01*
X160151280Y-124594411D01*
X160153261Y-124597376D01*
X160217336Y-124752065D01*
X160250000Y-124916281D01*
X160250000Y-125083719D01*
X160217336Y-125247935D01*
X160198434Y-125293567D01*
X160153260Y-125402626D01*
X160060238Y-125541844D01*
X159941844Y-125660238D01*
X159802626Y-125753260D01*
X159802625Y-125753261D01*
X159802624Y-125753261D01*
X159647935Y-125817336D01*
X159483719Y-125850000D01*
X159316281Y-125850000D01*
X159152065Y-125817336D01*
X158997376Y-125753261D01*
X158997375Y-125753261D01*
X158997374Y-125753260D01*
X158858156Y-125660238D01*
X158739762Y-125541844D01*
X158646740Y-125402626D01*
X158601566Y-125293567D01*
X158582664Y-125247935D01*
X158550000Y-125083719D01*
X158550000Y-124916281D01*
X158582664Y-124752065D01*
X158646739Y-124597376D01*
X158648720Y-124594411D01*
X158739762Y-124458156D01*
X158858156Y-124339762D01*
X158997374Y-124246740D01*
X159022076Y-124236508D01*
X159152065Y-124182664D01*
X159316281Y-124150000D01*
X159483719Y-124150000D01*
X159647935Y-124182664D01*
X159647935Y-124182664D01*
G37*
G36*
X154683351Y-118680743D02*
G01*
X154828941Y-118741048D01*
X154959970Y-118828599D01*
X155071401Y-118940030D01*
X155158952Y-119071059D01*
X155219257Y-119216649D01*
X155250000Y-119371206D01*
X155250000Y-119528794D01*
X155219257Y-119683351D01*
X155158952Y-119828941D01*
X155071401Y-119959970D01*
X154959970Y-120071401D01*
X154828941Y-120158952D01*
X154683351Y-120219257D01*
X154528794Y-120250000D01*
X154371206Y-120250000D01*
X154216649Y-120219257D01*
X154071059Y-120158952D01*
X153940030Y-120071401D01*
X153828599Y-119959970D01*
X153741048Y-119828941D01*
X153680743Y-119683351D01*
X153650000Y-119528794D01*
X153650000Y-119371206D01*
X153680743Y-119216649D01*
X153741048Y-119071059D01*
X153828599Y-118940030D01*
X153940030Y-118828599D01*
X154071059Y-118741048D01*
X154216649Y-118680743D01*
X154371206Y-118650000D01*
X154528794Y-118650000D01*
X154683351Y-118680743D01*
X154683351Y-118680743D01*
G37*
G36*
X134383351Y-118630743D02*
G01*
X134528941Y-118691048D01*
X134659970Y-118778599D01*
X134771401Y-118890030D01*
X134858952Y-119021059D01*
X134919257Y-119166649D01*
X134950000Y-119321206D01*
X134950000Y-119478794D01*
X134919257Y-119633351D01*
X134858952Y-119778941D01*
X134771401Y-119909970D01*
X134659970Y-120021401D01*
X134528941Y-120108952D01*
X134383351Y-120169257D01*
X134228794Y-120200000D01*
X134071206Y-120200000D01*
X133916649Y-120169257D01*
X133771059Y-120108952D01*
X133640030Y-120021401D01*
X133528599Y-119909970D01*
X133441048Y-119778941D01*
X133380743Y-119633351D01*
X133350000Y-119478794D01*
X133350000Y-119321206D01*
X133380743Y-119166649D01*
X133441048Y-119021059D01*
X133528599Y-118890030D01*
X133640030Y-118778599D01*
X133771059Y-118691048D01*
X133916649Y-118630743D01*
X134071206Y-118600000D01*
X134228794Y-118600000D01*
X134383351Y-118630743D01*
X134383351Y-118630743D01*
G37*
G36*
X148583351Y-118630743D02*
G01*
X148728941Y-118691048D01*
X148859970Y-118778599D01*
X148971401Y-118890030D01*
X149058952Y-119021059D01*
X149119257Y-119166649D01*
X149150000Y-119321206D01*
X149150000Y-119478794D01*
X149119257Y-119633351D01*
X149058952Y-119778941D01*
X148971401Y-119909970D01*
X148859970Y-120021401D01*
X148728941Y-120108952D01*
X148583351Y-120169257D01*
X148428794Y-120200000D01*
X148271206Y-120200000D01*
X148116649Y-120169257D01*
X147971059Y-120108952D01*
X147840030Y-120021401D01*
X147728599Y-119909970D01*
X147641048Y-119778941D01*
X147580743Y-119633351D01*
X147550000Y-119478794D01*
X147550000Y-119321206D01*
X147580743Y-119166649D01*
X147641048Y-119021059D01*
X147728599Y-118890030D01*
X147840030Y-118778599D01*
X147971059Y-118691048D01*
X148116649Y-118630743D01*
X148271206Y-118600000D01*
X148428794Y-118600000D01*
X148583351Y-118630743D01*
X148583351Y-118630743D01*
G37*
G36*
X126933351Y-118580743D02*
G01*
X127078941Y-118641048D01*
X127209970Y-118728599D01*
X127321401Y-118840030D01*
X127408952Y-118971059D01*
X127469257Y-119116649D01*
X127500000Y-119271206D01*
X127500000Y-119428794D01*
X127469257Y-119583351D01*
X127408952Y-119728941D01*
X127321401Y-119859970D01*
X127209970Y-119971401D01*
X127078941Y-120058952D01*
X126933351Y-120119257D01*
X126778794Y-120150000D01*
X126621206Y-120150000D01*
X126466649Y-120119257D01*
X126321059Y-120058952D01*
X126190030Y-119971401D01*
X126078599Y-119859970D01*
X125991048Y-119728941D01*
X125930743Y-119583351D01*
X125900000Y-119428794D01*
X125900000Y-119271206D01*
X125930743Y-119116649D01*
X125991048Y-118971059D01*
X126078599Y-118840030D01*
X126190030Y-118728599D01*
X126321059Y-118641048D01*
X126466649Y-118580743D01*
X126621206Y-118550000D01*
X126778794Y-118550000D01*
X126933351Y-118580743D01*
X126933351Y-118580743D01*
G37*
G36*
X142183351Y-118580743D02*
G01*
X142328941Y-118641048D01*
X142459970Y-118728599D01*
X142571401Y-118840030D01*
X142658952Y-118971059D01*
X142719257Y-119116649D01*
X142750000Y-119271206D01*
X142750000Y-119428794D01*
X142719257Y-119583351D01*
X142658952Y-119728941D01*
X142571401Y-119859970D01*
X142459970Y-119971401D01*
X142328941Y-120058952D01*
X142183351Y-120119257D01*
X142028794Y-120150000D01*
X141871206Y-120150000D01*
X141716649Y-120119257D01*
X141571059Y-120058952D01*
X141440030Y-119971401D01*
X141328599Y-119859970D01*
X141241048Y-119728941D01*
X141180743Y-119583351D01*
X141150000Y-119428794D01*
X141150000Y-119271206D01*
X141180743Y-119116649D01*
X141241048Y-118971059D01*
X141328599Y-118840030D01*
X141440030Y-118728599D01*
X141571059Y-118641048D01*
X141716649Y-118580743D01*
X141871206Y-118550000D01*
X142028794Y-118550000D01*
X142183351Y-118580743D01*
X142183351Y-118580743D01*
G37*
G36*
X159647935Y-117182664D02*
G01*
X159786427Y-117240030D01*
X159802626Y-117246740D01*
X159941844Y-117339762D01*
X160060238Y-117458156D01*
X160132730Y-117566649D01*
X160153261Y-117597376D01*
X160217336Y-117752065D01*
X160250000Y-117916281D01*
X160250000Y-118083719D01*
X160217336Y-118247935D01*
X160191640Y-118309970D01*
X160153260Y-118402626D01*
X160060238Y-118541844D01*
X159941844Y-118660238D01*
X159802626Y-118753260D01*
X159802625Y-118753261D01*
X159802624Y-118753261D01*
X159647935Y-118817336D01*
X159483719Y-118850000D01*
X159316281Y-118850000D01*
X159152065Y-118817336D01*
X158997376Y-118753261D01*
X158997375Y-118753261D01*
X158997374Y-118753260D01*
X158858156Y-118660238D01*
X158739762Y-118541844D01*
X158646740Y-118402626D01*
X158608360Y-118309970D01*
X158582664Y-118247935D01*
X158550000Y-118083719D01*
X158550000Y-117916281D01*
X158582664Y-117752065D01*
X158646739Y-117597376D01*
X158667270Y-117566649D01*
X158739762Y-117458156D01*
X158858156Y-117339762D01*
X158997374Y-117246740D01*
X159013573Y-117240030D01*
X159152065Y-117182664D01*
X159316281Y-117150000D01*
X159483719Y-117150000D01*
X159647935Y-117182664D01*
X159647935Y-117182664D01*
G37*
G36*
X153083351Y-117080743D02*
G01*
X153228941Y-117141048D01*
X153359970Y-117228599D01*
X153471401Y-117340030D01*
X153558952Y-117471059D01*
X153619257Y-117616649D01*
X153650000Y-117771206D01*
X153650000Y-117928794D01*
X153619257Y-118083351D01*
X153558952Y-118228941D01*
X153471401Y-118359970D01*
X153359970Y-118471401D01*
X153228941Y-118558952D01*
X153083351Y-118619257D01*
X152928794Y-118650000D01*
X152771206Y-118650000D01*
X152616649Y-118619257D01*
X152471059Y-118558952D01*
X152340030Y-118471401D01*
X152228599Y-118359970D01*
X152141048Y-118228941D01*
X152080743Y-118083351D01*
X152050000Y-117928794D01*
X152050000Y-117771206D01*
X152080743Y-117616649D01*
X152141048Y-117471059D01*
X152228599Y-117340030D01*
X152340030Y-117228599D01*
X152471059Y-117141048D01*
X152616649Y-117080743D01*
X152771206Y-117050000D01*
X152928794Y-117050000D01*
X153083351Y-117080743D01*
X153083351Y-117080743D01*
G37*
G36*
X146983351Y-117030743D02*
G01*
X147128941Y-117091048D01*
X147259970Y-117178599D01*
X147371401Y-117290030D01*
X147458952Y-117421059D01*
X147519257Y-117566649D01*
X147550000Y-117721206D01*
X147550000Y-117878794D01*
X147519257Y-118033351D01*
X147458952Y-118178941D01*
X147371401Y-118309970D01*
X147259970Y-118421401D01*
X147128941Y-118508952D01*
X146983351Y-118569257D01*
X146828794Y-118600000D01*
X146671206Y-118600000D01*
X146516649Y-118569257D01*
X146371059Y-118508952D01*
X146240030Y-118421401D01*
X146128599Y-118309970D01*
X146041048Y-118178941D01*
X145980743Y-118033351D01*
X145950000Y-117878794D01*
X145950000Y-117721206D01*
X145980743Y-117566649D01*
X146041048Y-117421059D01*
X146128599Y-117290030D01*
X146240030Y-117178599D01*
X146371059Y-117091048D01*
X146516649Y-117030743D01*
X146671206Y-117000000D01*
X146828794Y-117000000D01*
X146983351Y-117030743D01*
X146983351Y-117030743D01*
G37*
G36*
X132783351Y-117030743D02*
G01*
X132928941Y-117091048D01*
X133059970Y-117178599D01*
X133171401Y-117290030D01*
X133258952Y-117421059D01*
X133319257Y-117566649D01*
X133350000Y-117721206D01*
X133350000Y-117878794D01*
X133319257Y-118033351D01*
X133258952Y-118178941D01*
X133171401Y-118309970D01*
X133059970Y-118421401D01*
X132928941Y-118508952D01*
X132783351Y-118569257D01*
X132628794Y-118600000D01*
X132471206Y-118600000D01*
X132316649Y-118569257D01*
X132171059Y-118508952D01*
X132040030Y-118421401D01*
X131928599Y-118309970D01*
X131841048Y-118178941D01*
X131780743Y-118033351D01*
X131750000Y-117878794D01*
X131750000Y-117721206D01*
X131780743Y-117566649D01*
X131841048Y-117421059D01*
X131928599Y-117290030D01*
X132040030Y-117178599D01*
X132171059Y-117091048D01*
X132316649Y-117030743D01*
X132471206Y-117000000D01*
X132628794Y-117000000D01*
X132783351Y-117030743D01*
X132783351Y-117030743D01*
G37*
G36*
X125333351Y-116980743D02*
G01*
X125478941Y-117041048D01*
X125609970Y-117128599D01*
X125721401Y-117240030D01*
X125808952Y-117371059D01*
X125869257Y-117516649D01*
X125900000Y-117671206D01*
X125900000Y-117828794D01*
X125869257Y-117983351D01*
X125808952Y-118128941D01*
X125721401Y-118259970D01*
X125609970Y-118371401D01*
X125478941Y-118458952D01*
X125333351Y-118519257D01*
X125178794Y-118550000D01*
X125021206Y-118550000D01*
X124866649Y-118519257D01*
X124721059Y-118458952D01*
X124590030Y-118371401D01*
X124478599Y-118259970D01*
X124391048Y-118128941D01*
X124330743Y-117983351D01*
X124300000Y-117828794D01*
X124300000Y-117671206D01*
X124330743Y-117516649D01*
X124391048Y-117371059D01*
X124478599Y-117240030D01*
X124590030Y-117128599D01*
X124721059Y-117041048D01*
X124866649Y-116980743D01*
X125021206Y-116950000D01*
X125178794Y-116950000D01*
X125333351Y-116980743D01*
X125333351Y-116980743D01*
G37*
G36*
X140583351Y-116980743D02*
G01*
X140728941Y-117041048D01*
X140859970Y-117128599D01*
X140971401Y-117240030D01*
X141058952Y-117371059D01*
X141119257Y-117516649D01*
X141150000Y-117671206D01*
X141150000Y-117828794D01*
X141119257Y-117983351D01*
X141058952Y-118128941D01*
X140971401Y-118259970D01*
X140859970Y-118371401D01*
X140728941Y-118458952D01*
X140583351Y-118519257D01*
X140428794Y-118550000D01*
X140271206Y-118550000D01*
X140116649Y-118519257D01*
X139971059Y-118458952D01*
X139840030Y-118371401D01*
X139728599Y-118259970D01*
X139641048Y-118128941D01*
X139580743Y-117983351D01*
X139550000Y-117828794D01*
X139550000Y-117671206D01*
X139580743Y-117516649D01*
X139641048Y-117371059D01*
X139728599Y-117240030D01*
X139840030Y-117128599D01*
X139971059Y-117041048D01*
X140116649Y-116980743D01*
X140271206Y-116950000D01*
X140428794Y-116950000D01*
X140583351Y-116980743D01*
X140583351Y-116980743D01*
G37*
G36*
X154683351Y-115480743D02*
G01*
X154828941Y-115541048D01*
X154959970Y-115628599D01*
X155071401Y-115740030D01*
X155158952Y-115871059D01*
X155219257Y-116016649D01*
X155250000Y-116171206D01*
X155250000Y-116328794D01*
X155219257Y-116483351D01*
X155158952Y-116628941D01*
X155071401Y-116759970D01*
X154959970Y-116871401D01*
X154828941Y-116958952D01*
X154683351Y-117019257D01*
X154528794Y-117050000D01*
X154371206Y-117050000D01*
X154216649Y-117019257D01*
X154071059Y-116958952D01*
X153940030Y-116871401D01*
X153828599Y-116759970D01*
X153741048Y-116628941D01*
X153680743Y-116483351D01*
X153650000Y-116328794D01*
X153650000Y-116171206D01*
X153680743Y-116016649D01*
X153741048Y-115871059D01*
X153828599Y-115740030D01*
X153940030Y-115628599D01*
X154071059Y-115541048D01*
X154216649Y-115480743D01*
X154371206Y-115450000D01*
X154528794Y-115450000D01*
X154683351Y-115480743D01*
X154683351Y-115480743D01*
G37*
G36*
X134383351Y-115430743D02*
G01*
X134528941Y-115491048D01*
X134659970Y-115578599D01*
X134771401Y-115690030D01*
X134858952Y-115821059D01*
X134919257Y-115966649D01*
X134950000Y-116121206D01*
X134950000Y-116278794D01*
X134919257Y-116433351D01*
X134858952Y-116578941D01*
X134771401Y-116709970D01*
X134659970Y-116821401D01*
X134528941Y-116908952D01*
X134383351Y-116969257D01*
X134228794Y-117000000D01*
X134071206Y-117000000D01*
X133916649Y-116969257D01*
X133771059Y-116908952D01*
X133640030Y-116821401D01*
X133528599Y-116709970D01*
X133441048Y-116578941D01*
X133380743Y-116433351D01*
X133350000Y-116278794D01*
X133350000Y-116121206D01*
X133380743Y-115966649D01*
X133441048Y-115821059D01*
X133528599Y-115690030D01*
X133640030Y-115578599D01*
X133771059Y-115491048D01*
X133916649Y-115430743D01*
X134071206Y-115400000D01*
X134228794Y-115400000D01*
X134383351Y-115430743D01*
X134383351Y-115430743D01*
G37*
G36*
X148583351Y-115430743D02*
G01*
X148728941Y-115491048D01*
X148859970Y-115578599D01*
X148971401Y-115690030D01*
X149058952Y-115821059D01*
X149119257Y-115966649D01*
X149150000Y-116121206D01*
X149150000Y-116278794D01*
X149119257Y-116433351D01*
X149058952Y-116578941D01*
X148971401Y-116709970D01*
X148859970Y-116821401D01*
X148728941Y-116908952D01*
X148583351Y-116969257D01*
X148428794Y-117000000D01*
X148271206Y-117000000D01*
X148116649Y-116969257D01*
X147971059Y-116908952D01*
X147840030Y-116821401D01*
X147728599Y-116709970D01*
X147641048Y-116578941D01*
X147580743Y-116433351D01*
X147550000Y-116278794D01*
X147550000Y-116121206D01*
X147580743Y-115966649D01*
X147641048Y-115821059D01*
X147728599Y-115690030D01*
X147840030Y-115578599D01*
X147971059Y-115491048D01*
X148116649Y-115430743D01*
X148271206Y-115400000D01*
X148428794Y-115400000D01*
X148583351Y-115430743D01*
X148583351Y-115430743D01*
G37*
G36*
X142183351Y-115380743D02*
G01*
X142328941Y-115441048D01*
X142459970Y-115528599D01*
X142571401Y-115640030D01*
X142658952Y-115771059D01*
X142719257Y-115916649D01*
X142750000Y-116071206D01*
X142750000Y-116228794D01*
X142719257Y-116383351D01*
X142658952Y-116528941D01*
X142571401Y-116659970D01*
X142459970Y-116771401D01*
X142328941Y-116858952D01*
X142183351Y-116919257D01*
X142028794Y-116950000D01*
X141871206Y-116950000D01*
X141716649Y-116919257D01*
X141571059Y-116858952D01*
X141440030Y-116771401D01*
X141328599Y-116659970D01*
X141241048Y-116528941D01*
X141180743Y-116383351D01*
X141150000Y-116228794D01*
X141150000Y-116071206D01*
X141180743Y-115916649D01*
X141241048Y-115771059D01*
X141328599Y-115640030D01*
X141440030Y-115528599D01*
X141571059Y-115441048D01*
X141716649Y-115380743D01*
X141871206Y-115350000D01*
X142028794Y-115350000D01*
X142183351Y-115380743D01*
X142183351Y-115380743D01*
G37*
G36*
X126933351Y-115380743D02*
G01*
X127078941Y-115441048D01*
X127209970Y-115528599D01*
X127321401Y-115640030D01*
X127408952Y-115771059D01*
X127469257Y-115916649D01*
X127500000Y-116071206D01*
X127500000Y-116228794D01*
X127469257Y-116383351D01*
X127408952Y-116528941D01*
X127321401Y-116659970D01*
X127209970Y-116771401D01*
X127078941Y-116858952D01*
X126933351Y-116919257D01*
X126778794Y-116950000D01*
X126621206Y-116950000D01*
X126466649Y-116919257D01*
X126321059Y-116858952D01*
X126190030Y-116771401D01*
X126078599Y-116659970D01*
X125991048Y-116528941D01*
X125930743Y-116383351D01*
X125900000Y-116228794D01*
X125900000Y-116071206D01*
X125930743Y-115916649D01*
X125991048Y-115771059D01*
X126078599Y-115640030D01*
X126190030Y-115528599D01*
X126321059Y-115441048D01*
X126466649Y-115380743D01*
X126621206Y-115350000D01*
X126778794Y-115350000D01*
X126933351Y-115380743D01*
X126933351Y-115380743D01*
G37*
G36*
X166747735Y-114198999D02*
G01*
X166829688Y-114223860D01*
X166905229Y-114264237D01*
X166971432Y-114318568D01*
X167025763Y-114384771D01*
X167066140Y-114460312D01*
X167091001Y-114542265D01*
X167100000Y-114633640D01*
X167100000Y-115746360D01*
X167091001Y-115837735D01*
X167066140Y-115919688D01*
X167025763Y-115995229D01*
X166971432Y-116061432D01*
X166905229Y-116115763D01*
X166829688Y-116156140D01*
X166747735Y-116181001D01*
X166656360Y-116190000D01*
X164943640Y-116190000D01*
X164852265Y-116181001D01*
X164770312Y-116156140D01*
X164694771Y-116115763D01*
X164628568Y-116061432D01*
X164574237Y-115995229D01*
X164533860Y-115919688D01*
X164508999Y-115837735D01*
X164500000Y-115746360D01*
X164500000Y-114633640D01*
X164508999Y-114542265D01*
X164533860Y-114460312D01*
X164574237Y-114384771D01*
X164628568Y-114318568D01*
X164694771Y-114264237D01*
X164770312Y-114223860D01*
X164852265Y-114198999D01*
X164943640Y-114190000D01*
X166656360Y-114190000D01*
X166747735Y-114198999D01*
X166747735Y-114198999D01*
G37*
G36*
X166747735Y-111658999D02*
G01*
X166829688Y-111683860D01*
X166905229Y-111724237D01*
X166971432Y-111778568D01*
X167025763Y-111844771D01*
X167066140Y-111920312D01*
X167091001Y-112002265D01*
X167100000Y-112093640D01*
X167100000Y-113206360D01*
X167091001Y-113297735D01*
X167066140Y-113379688D01*
X167025763Y-113455229D01*
X166971432Y-113521432D01*
X166905229Y-113575763D01*
X166829688Y-113616140D01*
X166747735Y-113641001D01*
X166656360Y-113650000D01*
X164943640Y-113650000D01*
X164852265Y-113641001D01*
X164770312Y-113616140D01*
X164694771Y-113575763D01*
X164628568Y-113521432D01*
X164574237Y-113455229D01*
X164533860Y-113379688D01*
X164508999Y-113297735D01*
X164500000Y-113206360D01*
X164500000Y-112093640D01*
X164508999Y-112002265D01*
X164533860Y-111920312D01*
X164574237Y-111844771D01*
X164628568Y-111778568D01*
X164694771Y-111724237D01*
X164770312Y-111683860D01*
X164852265Y-111658999D01*
X164943640Y-111650000D01*
X166656360Y-111650000D01*
X166747735Y-111658999D01*
X166747735Y-111658999D01*
G37*
G36*
X150697935Y-111682664D02*
G01*
X150822509Y-111734265D01*
X150852626Y-111746740D01*
X150991844Y-111839762D01*
X151110238Y-111958156D01*
X151173246Y-112052455D01*
X151203261Y-112097376D01*
X151267336Y-112252065D01*
X151300000Y-112416281D01*
X151300000Y-112583719D01*
X151267336Y-112747935D01*
X151244682Y-112802626D01*
X151203260Y-112902626D01*
X151110238Y-113041844D01*
X150991844Y-113160238D01*
X150852626Y-113253260D01*
X150852625Y-113253261D01*
X150852624Y-113253261D01*
X150697935Y-113317336D01*
X150533719Y-113350000D01*
X150366281Y-113350000D01*
X150202065Y-113317336D01*
X150047376Y-113253261D01*
X150047375Y-113253261D01*
X150047374Y-113253260D01*
X149908156Y-113160238D01*
X149789762Y-113041844D01*
X149696740Y-112902626D01*
X149655318Y-112802626D01*
X149632664Y-112747935D01*
X149600000Y-112583719D01*
X149600000Y-112416281D01*
X149632664Y-112252065D01*
X149696739Y-112097376D01*
X149726754Y-112052455D01*
X149789762Y-111958156D01*
X149908156Y-111839762D01*
X150047374Y-111746740D01*
X150077491Y-111734265D01*
X150202065Y-111682664D01*
X150366281Y-111650000D01*
X150533719Y-111650000D01*
X150697935Y-111682664D01*
X150697935Y-111682664D01*
G37*
G36*
X146547935Y-111682664D02*
G01*
X146672509Y-111734265D01*
X146702626Y-111746740D01*
X146841844Y-111839762D01*
X146960238Y-111958156D01*
X147023246Y-112052455D01*
X147053261Y-112097376D01*
X147117336Y-112252065D01*
X147150000Y-112416281D01*
X147150000Y-112583719D01*
X147117336Y-112747935D01*
X147094682Y-112802626D01*
X147053260Y-112902626D01*
X146960238Y-113041844D01*
X146841844Y-113160238D01*
X146702626Y-113253260D01*
X146702625Y-113253261D01*
X146702624Y-113253261D01*
X146547935Y-113317336D01*
X146383719Y-113350000D01*
X146216281Y-113350000D01*
X146052065Y-113317336D01*
X145897376Y-113253261D01*
X145897375Y-113253261D01*
X145897374Y-113253260D01*
X145758156Y-113160238D01*
X145639762Y-113041844D01*
X145546740Y-112902626D01*
X145505318Y-112802626D01*
X145482664Y-112747935D01*
X145450000Y-112583719D01*
X145450000Y-112416281D01*
X145482664Y-112252065D01*
X145546739Y-112097376D01*
X145576754Y-112052455D01*
X145639762Y-111958156D01*
X145758156Y-111839762D01*
X145897374Y-111746740D01*
X145927491Y-111734265D01*
X146052065Y-111682664D01*
X146216281Y-111650000D01*
X146383719Y-111650000D01*
X146547935Y-111682664D01*
X146547935Y-111682664D01*
G37*
G36*
X131797935Y-111632664D02*
G01*
X131931671Y-111688060D01*
X131952626Y-111696740D01*
X132091844Y-111789762D01*
X132210238Y-111908156D01*
X132273119Y-112002265D01*
X132303261Y-112047376D01*
X132367336Y-112202065D01*
X132400000Y-112366281D01*
X132400000Y-112533719D01*
X132367336Y-112697935D01*
X132323972Y-112802624D01*
X132303260Y-112852626D01*
X132210238Y-112991844D01*
X132091844Y-113110238D01*
X131952626Y-113203260D01*
X131952625Y-113203261D01*
X131952624Y-113203261D01*
X131797935Y-113267336D01*
X131633719Y-113300000D01*
X131466281Y-113300000D01*
X131302065Y-113267336D01*
X131147376Y-113203261D01*
X131147375Y-113203261D01*
X131147374Y-113203260D01*
X131008156Y-113110238D01*
X130889762Y-112991844D01*
X130796740Y-112852626D01*
X130776028Y-112802624D01*
X130732664Y-112697935D01*
X130700000Y-112533719D01*
X130700000Y-112366281D01*
X130732664Y-112202065D01*
X130796739Y-112047376D01*
X130826881Y-112002265D01*
X130889762Y-111908156D01*
X131008156Y-111789762D01*
X131147374Y-111696740D01*
X131168329Y-111688060D01*
X131302065Y-111632664D01*
X131466281Y-111600000D01*
X131633719Y-111600000D01*
X131797935Y-111632664D01*
X131797935Y-111632664D01*
G37*
G36*
X136247935Y-111582664D02*
G01*
X136402624Y-111646739D01*
X136402626Y-111646740D01*
X136541844Y-111739762D01*
X136660238Y-111858156D01*
X136727056Y-111958157D01*
X136753261Y-111997376D01*
X136817336Y-112152065D01*
X136850000Y-112316281D01*
X136850000Y-112483719D01*
X136817336Y-112647935D01*
X136753261Y-112802624D01*
X136753260Y-112802626D01*
X136660238Y-112941844D01*
X136541844Y-113060238D01*
X136402626Y-113153260D01*
X136402625Y-113153261D01*
X136402624Y-113153261D01*
X136247935Y-113217336D01*
X136083719Y-113250000D01*
X135916281Y-113250000D01*
X135752065Y-113217336D01*
X135597376Y-113153261D01*
X135597375Y-113153261D01*
X135597374Y-113153260D01*
X135458156Y-113060238D01*
X135339762Y-112941844D01*
X135246740Y-112802626D01*
X135246739Y-112802624D01*
X135182664Y-112647935D01*
X135150000Y-112483719D01*
X135150000Y-112316281D01*
X135182664Y-112152065D01*
X135246739Y-111997376D01*
X135272944Y-111958157D01*
X135339762Y-111858156D01*
X135458156Y-111739762D01*
X135597374Y-111646740D01*
X135597376Y-111646739D01*
X135752065Y-111582664D01*
X135916281Y-111550000D01*
X136083719Y-111550000D01*
X136247935Y-111582664D01*
X136247935Y-111582664D01*
G37*
G36*
X142447935Y-111582664D02*
G01*
X142602624Y-111646739D01*
X142602626Y-111646740D01*
X142741844Y-111739762D01*
X142860238Y-111858156D01*
X142927056Y-111958157D01*
X142953261Y-111997376D01*
X143017336Y-112152065D01*
X143050000Y-112316281D01*
X143050000Y-112483719D01*
X143017336Y-112647935D01*
X142953261Y-112802624D01*
X142953260Y-112802626D01*
X142860238Y-112941844D01*
X142741844Y-113060238D01*
X142602626Y-113153260D01*
X142602625Y-113153261D01*
X142602624Y-113153261D01*
X142447935Y-113217336D01*
X142283719Y-113250000D01*
X142116281Y-113250000D01*
X141952065Y-113217336D01*
X141797376Y-113153261D01*
X141797375Y-113153261D01*
X141797374Y-113153260D01*
X141658156Y-113060238D01*
X141539762Y-112941844D01*
X141446740Y-112802626D01*
X141446739Y-112802624D01*
X141382664Y-112647935D01*
X141350000Y-112483719D01*
X141350000Y-112316281D01*
X141382664Y-112152065D01*
X141446739Y-111997376D01*
X141472944Y-111958157D01*
X141539762Y-111858156D01*
X141658156Y-111739762D01*
X141797374Y-111646740D01*
X141797376Y-111646739D01*
X141952065Y-111582664D01*
X142116281Y-111550000D01*
X142283719Y-111550000D01*
X142447935Y-111582664D01*
X142447935Y-111582664D01*
G37*
G36*
X166747735Y-109118999D02*
G01*
X166829688Y-109143860D01*
X166905229Y-109184237D01*
X166971432Y-109238568D01*
X167025763Y-109304771D01*
X167066140Y-109380312D01*
X167091001Y-109462265D01*
X167100000Y-109553640D01*
X167100000Y-110666360D01*
X167091001Y-110757735D01*
X167066140Y-110839688D01*
X167025763Y-110915229D01*
X166971432Y-110981432D01*
X166905229Y-111035763D01*
X166829688Y-111076140D01*
X166747735Y-111101001D01*
X166656360Y-111110000D01*
X164943640Y-111110000D01*
X164852265Y-111101001D01*
X164770312Y-111076140D01*
X164694771Y-111035763D01*
X164628568Y-110981432D01*
X164574237Y-110915229D01*
X164533860Y-110839688D01*
X164508999Y-110757735D01*
X164500000Y-110666360D01*
X164500000Y-109553640D01*
X164508999Y-109462265D01*
X164533860Y-109380312D01*
X164574237Y-109304771D01*
X164628568Y-109238568D01*
X164694771Y-109184237D01*
X164770312Y-109143860D01*
X164852265Y-109118999D01*
X164943640Y-109110000D01*
X166656360Y-109110000D01*
X166747735Y-109118999D01*
X166747735Y-109118999D01*
G37*
G36*
X146547935Y-104682664D02*
G01*
X146685780Y-104739762D01*
X146702626Y-104746740D01*
X146841844Y-104839762D01*
X146960238Y-104958156D01*
X147053260Y-105097374D01*
X147053261Y-105097376D01*
X147117336Y-105252065D01*
X147150000Y-105416281D01*
X147150000Y-105583719D01*
X147117336Y-105747935D01*
X147093454Y-105805590D01*
X147053260Y-105902626D01*
X146960238Y-106041844D01*
X146841844Y-106160238D01*
X146702626Y-106253260D01*
X146702625Y-106253261D01*
X146702624Y-106253261D01*
X146547935Y-106317336D01*
X146383719Y-106350000D01*
X146216281Y-106350000D01*
X146052065Y-106317336D01*
X145897376Y-106253261D01*
X145897375Y-106253261D01*
X145897374Y-106253260D01*
X145758156Y-106160238D01*
X145639762Y-106041844D01*
X145546740Y-105902626D01*
X145506546Y-105805590D01*
X145482664Y-105747935D01*
X145450000Y-105583719D01*
X145450000Y-105416281D01*
X145482664Y-105252065D01*
X145546739Y-105097376D01*
X145546740Y-105097374D01*
X145639762Y-104958156D01*
X145758156Y-104839762D01*
X145897374Y-104746740D01*
X145914220Y-104739762D01*
X146052065Y-104682664D01*
X146216281Y-104650000D01*
X146383719Y-104650000D01*
X146547935Y-104682664D01*
X146547935Y-104682664D01*
G37*
G36*
X150697935Y-104682664D02*
G01*
X150835780Y-104739762D01*
X150852626Y-104746740D01*
X150991844Y-104839762D01*
X151110238Y-104958156D01*
X151203260Y-105097374D01*
X151203261Y-105097376D01*
X151267336Y-105252065D01*
X151300000Y-105416281D01*
X151300000Y-105583719D01*
X151267336Y-105747935D01*
X151243454Y-105805590D01*
X151203260Y-105902626D01*
X151110238Y-106041844D01*
X150991844Y-106160238D01*
X150852626Y-106253260D01*
X150852625Y-106253261D01*
X150852624Y-106253261D01*
X150697935Y-106317336D01*
X150533719Y-106350000D01*
X150366281Y-106350000D01*
X150202065Y-106317336D01*
X150047376Y-106253261D01*
X150047375Y-106253261D01*
X150047374Y-106253260D01*
X149908156Y-106160238D01*
X149789762Y-106041844D01*
X149696740Y-105902626D01*
X149656546Y-105805590D01*
X149632664Y-105747935D01*
X149600000Y-105583719D01*
X149600000Y-105416281D01*
X149632664Y-105252065D01*
X149696739Y-105097376D01*
X149696740Y-105097374D01*
X149789762Y-104958156D01*
X149908156Y-104839762D01*
X150047374Y-104746740D01*
X150064220Y-104739762D01*
X150202065Y-104682664D01*
X150366281Y-104650000D01*
X150533719Y-104650000D01*
X150697935Y-104682664D01*
X150697935Y-104682664D01*
G37*
G36*
X131797935Y-104632664D02*
G01*
X131952624Y-104696739D01*
X131952626Y-104696740D01*
X132091844Y-104789762D01*
X132210238Y-104908156D01*
X132303260Y-105047374D01*
X132303261Y-105047376D01*
X132367336Y-105202065D01*
X132400000Y-105366281D01*
X132400000Y-105533719D01*
X132367336Y-105697935D01*
X132322743Y-105805590D01*
X132303260Y-105852626D01*
X132210238Y-105991844D01*
X132091844Y-106110238D01*
X131952626Y-106203260D01*
X131952625Y-106203261D01*
X131952624Y-106203261D01*
X131797935Y-106267336D01*
X131633719Y-106300000D01*
X131466281Y-106300000D01*
X131302065Y-106267336D01*
X131147376Y-106203261D01*
X131147375Y-106203261D01*
X131147374Y-106203260D01*
X131008156Y-106110238D01*
X130889762Y-105991844D01*
X130796740Y-105852626D01*
X130777257Y-105805590D01*
X130732664Y-105697935D01*
X130700000Y-105533719D01*
X130700000Y-105366281D01*
X130732664Y-105202065D01*
X130796739Y-105047376D01*
X130796740Y-105047374D01*
X130889762Y-104908156D01*
X131008156Y-104789762D01*
X131147374Y-104696740D01*
X131147376Y-104696739D01*
X131302065Y-104632664D01*
X131466281Y-104600000D01*
X131633719Y-104600000D01*
X131797935Y-104632664D01*
X131797935Y-104632664D01*
G37*
G36*
X142447935Y-104582664D02*
G01*
X142602624Y-104646739D01*
X142602626Y-104646740D01*
X142741844Y-104739762D01*
X142860238Y-104858156D01*
X142927056Y-104958157D01*
X142953261Y-104997376D01*
X143017336Y-105152065D01*
X143050000Y-105316281D01*
X143050000Y-105483719D01*
X143017336Y-105647935D01*
X142953261Y-105802624D01*
X142953260Y-105802626D01*
X142860238Y-105941844D01*
X142741844Y-106060238D01*
X142602626Y-106153260D01*
X142602625Y-106153261D01*
X142602624Y-106153261D01*
X142447935Y-106217336D01*
X142283719Y-106250000D01*
X142116281Y-106250000D01*
X141952065Y-106217336D01*
X141797376Y-106153261D01*
X141797375Y-106153261D01*
X141797374Y-106153260D01*
X141658156Y-106060238D01*
X141539762Y-105941844D01*
X141446740Y-105802626D01*
X141446739Y-105802624D01*
X141382664Y-105647935D01*
X141350000Y-105483719D01*
X141350000Y-105316281D01*
X141382664Y-105152065D01*
X141446739Y-104997376D01*
X141472944Y-104958157D01*
X141539762Y-104858156D01*
X141658156Y-104739762D01*
X141797374Y-104646740D01*
X141797376Y-104646739D01*
X141952065Y-104582664D01*
X142116281Y-104550000D01*
X142283719Y-104550000D01*
X142447935Y-104582664D01*
X142447935Y-104582664D01*
G37*
G36*
X136247935Y-104582664D02*
G01*
X136402624Y-104646739D01*
X136402626Y-104646740D01*
X136541844Y-104739762D01*
X136660238Y-104858156D01*
X136727056Y-104958157D01*
X136753261Y-104997376D01*
X136817336Y-105152065D01*
X136850000Y-105316281D01*
X136850000Y-105483719D01*
X136817336Y-105647935D01*
X136753261Y-105802624D01*
X136753260Y-105802626D01*
X136660238Y-105941844D01*
X136541844Y-106060238D01*
X136402626Y-106153260D01*
X136402625Y-106153261D01*
X136402624Y-106153261D01*
X136247935Y-106217336D01*
X136083719Y-106250000D01*
X135916281Y-106250000D01*
X135752065Y-106217336D01*
X135597376Y-106153261D01*
X135597375Y-106153261D01*
X135597374Y-106153260D01*
X135458156Y-106060238D01*
X135339762Y-105941844D01*
X135246740Y-105802626D01*
X135246739Y-105802624D01*
X135182664Y-105647935D01*
X135150000Y-105483719D01*
X135150000Y-105316281D01*
X135182664Y-105152065D01*
X135246739Y-104997376D01*
X135272944Y-104958157D01*
X135339762Y-104858156D01*
X135458156Y-104739762D01*
X135597374Y-104646740D01*
X135597376Y-104646739D01*
X135752065Y-104582664D01*
X135916281Y-104550000D01*
X136083719Y-104550000D01*
X136247935Y-104582664D01*
X136247935Y-104582664D01*
G37*
G36*
X112085336Y-104268254D02*
G01*
X112177105Y-104286508D01*
X112349994Y-104358121D01*
X112505590Y-104462087D01*
X112637913Y-104594410D01*
X112741879Y-104750006D01*
X112807387Y-104908157D01*
X112813492Y-104922896D01*
X112848199Y-105097376D01*
X112850000Y-105106433D01*
X112850000Y-105293567D01*
X112813492Y-105477105D01*
X112741879Y-105649994D01*
X112637913Y-105805590D01*
X112505590Y-105937913D01*
X112349994Y-106041879D01*
X112177105Y-106113492D01*
X112085336Y-106131746D01*
X111993568Y-106150000D01*
X111806432Y-106150000D01*
X111714664Y-106131746D01*
X111622895Y-106113492D01*
X111450006Y-106041879D01*
X111294410Y-105937913D01*
X111162087Y-105805590D01*
X111058121Y-105649994D01*
X110986508Y-105477105D01*
X110950000Y-105293567D01*
X110950000Y-105106433D01*
X110951802Y-105097376D01*
X110986508Y-104922896D01*
X110992613Y-104908157D01*
X111058121Y-104750006D01*
X111162087Y-104594410D01*
X111294410Y-104462087D01*
X111450006Y-104358121D01*
X111622895Y-104286508D01*
X111714664Y-104268254D01*
X111806432Y-104250000D01*
X111993568Y-104250000D01*
X112085336Y-104268254D01*
X112085336Y-104268254D01*
G37*
G36*
X125112520Y-101584586D02*
G01*
X125276310Y-101652430D01*
X125423717Y-101750924D01*
X125549076Y-101876283D01*
X125647570Y-102023690D01*
X125647571Y-102023692D01*
X125657462Y-102047571D01*
X125715414Y-102187480D01*
X125750000Y-102361358D01*
X125750000Y-102538642D01*
X125715414Y-102712520D01*
X125647570Y-102876310D01*
X125549076Y-103023717D01*
X125423717Y-103149076D01*
X125276310Y-103247570D01*
X125276309Y-103247571D01*
X125276308Y-103247571D01*
X125112520Y-103315414D01*
X124938644Y-103350000D01*
X124761356Y-103350000D01*
X124587480Y-103315414D01*
X124423692Y-103247571D01*
X124423691Y-103247571D01*
X124423690Y-103247570D01*
X124276283Y-103149076D01*
X124150924Y-103023717D01*
X124052430Y-102876310D01*
X123984586Y-102712520D01*
X123950000Y-102538642D01*
X123950000Y-102361358D01*
X123984586Y-102187480D01*
X124042538Y-102047571D01*
X124052429Y-102023692D01*
X124052430Y-102023690D01*
X124150924Y-101876283D01*
X124276283Y-101750924D01*
X124423690Y-101652430D01*
X124587480Y-101584586D01*
X124761356Y-101550000D01*
X124938644Y-101550000D01*
X125112520Y-101584586D01*
X125112520Y-101584586D01*
G37*
G36*
X139107935Y-100832664D02*
G01*
X139262624Y-100896739D01*
X139262626Y-100896740D01*
X139401844Y-100989762D01*
X139520238Y-101108156D01*
X139555786Y-101161358D01*
X139613261Y-101247376D01*
X139677336Y-101402065D01*
X139710000Y-101566281D01*
X139710000Y-101733719D01*
X139677336Y-101897935D01*
X139656152Y-101949076D01*
X139613260Y-102052626D01*
X139520238Y-102191844D01*
X139401844Y-102310238D01*
X139262626Y-102403260D01*
X139262625Y-102403261D01*
X139262624Y-102403261D01*
X139107935Y-102467336D01*
X138943719Y-102500000D01*
X138776281Y-102500000D01*
X138612065Y-102467336D01*
X138457376Y-102403261D01*
X138457375Y-102403261D01*
X138457374Y-102403260D01*
X138318156Y-102310238D01*
X138199762Y-102191844D01*
X138106740Y-102052626D01*
X138063848Y-101949076D01*
X138042664Y-101897935D01*
X138010000Y-101733719D01*
X138010000Y-101566281D01*
X138042664Y-101402065D01*
X138106739Y-101247376D01*
X138164214Y-101161358D01*
X138199762Y-101108156D01*
X138318156Y-100989762D01*
X138457374Y-100896740D01*
X138457376Y-100896739D01*
X138612065Y-100832664D01*
X138776281Y-100800000D01*
X138943719Y-100800000D01*
X139107935Y-100832664D01*
X139107935Y-100832664D01*
G37*
G36*
X131487935Y-100832664D02*
G01*
X131642624Y-100896739D01*
X131642626Y-100896740D01*
X131781844Y-100989762D01*
X131900238Y-101108156D01*
X131935786Y-101161358D01*
X131993261Y-101247376D01*
X132057336Y-101402065D01*
X132090000Y-101566281D01*
X132090000Y-101733719D01*
X132057336Y-101897935D01*
X132036152Y-101949076D01*
X131993260Y-102052626D01*
X131900238Y-102191844D01*
X131781844Y-102310238D01*
X131642626Y-102403260D01*
X131642625Y-102403261D01*
X131642624Y-102403261D01*
X131487935Y-102467336D01*
X131323719Y-102500000D01*
X131156281Y-102500000D01*
X130992065Y-102467336D01*
X130837376Y-102403261D01*
X130837375Y-102403261D01*
X130837374Y-102403260D01*
X130698156Y-102310238D01*
X130579762Y-102191844D01*
X130486740Y-102052626D01*
X130443848Y-101949076D01*
X130422664Y-101897935D01*
X130390000Y-101733719D01*
X130390000Y-101566281D01*
X130422664Y-101402065D01*
X130486739Y-101247376D01*
X130544214Y-101161358D01*
X130579762Y-101108156D01*
X130698156Y-100989762D01*
X130837374Y-100896740D01*
X130837376Y-100896739D01*
X130992065Y-100832664D01*
X131156281Y-100800000D01*
X131323719Y-100800000D01*
X131487935Y-100832664D01*
X131487935Y-100832664D01*
G37*
G36*
X162047935Y-100532664D02*
G01*
X162202624Y-100596739D01*
X162202626Y-100596740D01*
X162341844Y-100689762D01*
X162460238Y-100808156D01*
X162553260Y-100947374D01*
X162553261Y-100947376D01*
X162617336Y-101102065D01*
X162650000Y-101266281D01*
X162650000Y-101433719D01*
X162617336Y-101597935D01*
X162561092Y-101733718D01*
X162553260Y-101752626D01*
X162460238Y-101891844D01*
X162341844Y-102010238D01*
X162202626Y-102103260D01*
X162202625Y-102103261D01*
X162202624Y-102103261D01*
X162047935Y-102167336D01*
X161883719Y-102200000D01*
X161716281Y-102200000D01*
X161552065Y-102167336D01*
X161397376Y-102103261D01*
X161397375Y-102103261D01*
X161397374Y-102103260D01*
X161258156Y-102010238D01*
X161139762Y-101891844D01*
X161046740Y-101752626D01*
X161038908Y-101733718D01*
X160982664Y-101597935D01*
X160950000Y-101433719D01*
X160950000Y-101266281D01*
X160982664Y-101102065D01*
X161046739Y-100947376D01*
X161046740Y-100947374D01*
X161139762Y-100808156D01*
X161258156Y-100689762D01*
X161397374Y-100596740D01*
X161397376Y-100596739D01*
X161552065Y-100532664D01*
X161716281Y-100500000D01*
X161883719Y-100500000D01*
X162047935Y-100532664D01*
X162047935Y-100532664D01*
G37*
G36*
X159547935Y-100532664D02*
G01*
X159702624Y-100596739D01*
X159702626Y-100596740D01*
X159841844Y-100689762D01*
X159960238Y-100808156D01*
X160053260Y-100947374D01*
X160053261Y-100947376D01*
X160117336Y-101102065D01*
X160150000Y-101266281D01*
X160150000Y-101433719D01*
X160117336Y-101597935D01*
X160061092Y-101733718D01*
X160053260Y-101752626D01*
X159960238Y-101891844D01*
X159841844Y-102010238D01*
X159702626Y-102103260D01*
X159702625Y-102103261D01*
X159702624Y-102103261D01*
X159547935Y-102167336D01*
X159383719Y-102200000D01*
X159216281Y-102200000D01*
X159052065Y-102167336D01*
X158897376Y-102103261D01*
X158897375Y-102103261D01*
X158897374Y-102103260D01*
X158758156Y-102010238D01*
X158639762Y-101891844D01*
X158546740Y-101752626D01*
X158538908Y-101733718D01*
X158482664Y-101597935D01*
X158450000Y-101433719D01*
X158450000Y-101266281D01*
X158482664Y-101102065D01*
X158546739Y-100947376D01*
X158546740Y-100947374D01*
X158639762Y-100808156D01*
X158758156Y-100689762D01*
X158897374Y-100596740D01*
X158897376Y-100596739D01*
X159052065Y-100532664D01*
X159216281Y-100500000D01*
X159383719Y-100500000D01*
X159547935Y-100532664D01*
X159547935Y-100532664D01*
G37*
G36*
X152462520Y-100384586D02*
G01*
X152626310Y-100452430D01*
X152773717Y-100550924D01*
X152899076Y-100676283D01*
X152987191Y-100808157D01*
X152997571Y-100823692D01*
X153065414Y-100987480D01*
X153100000Y-101161356D01*
X153100000Y-101338644D01*
X153065414Y-101512520D01*
X153007462Y-101652430D01*
X152997570Y-101676310D01*
X152899076Y-101823717D01*
X152773717Y-101949076D01*
X152626310Y-102047570D01*
X152626309Y-102047571D01*
X152626308Y-102047571D01*
X152462520Y-102115414D01*
X152288644Y-102150000D01*
X152111356Y-102150000D01*
X151937480Y-102115414D01*
X151773692Y-102047571D01*
X151773691Y-102047571D01*
X151773690Y-102047570D01*
X151626283Y-101949076D01*
X151500924Y-101823717D01*
X151402430Y-101676310D01*
X151392539Y-101652430D01*
X151334586Y-101512520D01*
X151300000Y-101338644D01*
X151300000Y-101161356D01*
X151334586Y-100987480D01*
X151402429Y-100823692D01*
X151412809Y-100808157D01*
X151500924Y-100676283D01*
X151626283Y-100550924D01*
X151773690Y-100452430D01*
X151937480Y-100384586D01*
X152111356Y-100350000D01*
X152288644Y-100350000D01*
X152462520Y-100384586D01*
X152462520Y-100384586D01*
G37*
G36*
X139107935Y-98292664D02*
G01*
X139262624Y-98356739D01*
X139262626Y-98356740D01*
X139401844Y-98449762D01*
X139520238Y-98568156D01*
X139613260Y-98707374D01*
X139613261Y-98707376D01*
X139677336Y-98862065D01*
X139710000Y-99026281D01*
X139710000Y-99193719D01*
X139677336Y-99357935D01*
X139613261Y-99512624D01*
X139613260Y-99512626D01*
X139520238Y-99651844D01*
X139401844Y-99770238D01*
X139262626Y-99863260D01*
X139262625Y-99863261D01*
X139262624Y-99863261D01*
X139107935Y-99927336D01*
X138943719Y-99960000D01*
X138776281Y-99960000D01*
X138612065Y-99927336D01*
X138457376Y-99863261D01*
X138457375Y-99863261D01*
X138457374Y-99863260D01*
X138318156Y-99770238D01*
X138199762Y-99651844D01*
X138106740Y-99512626D01*
X138106739Y-99512624D01*
X138042664Y-99357935D01*
X138010000Y-99193719D01*
X138010000Y-99026281D01*
X138042664Y-98862065D01*
X138106739Y-98707376D01*
X138106740Y-98707374D01*
X138199762Y-98568156D01*
X138318156Y-98449762D01*
X138457374Y-98356740D01*
X138457376Y-98356739D01*
X138612065Y-98292664D01*
X138776281Y-98260000D01*
X138943719Y-98260000D01*
X139107935Y-98292664D01*
X139107935Y-98292664D01*
G37*
G36*
X131487935Y-98292664D02*
G01*
X131642624Y-98356739D01*
X131642626Y-98356740D01*
X131781844Y-98449762D01*
X131900238Y-98568156D01*
X131993260Y-98707374D01*
X131993261Y-98707376D01*
X132057336Y-98862065D01*
X132090000Y-99026281D01*
X132090000Y-99193719D01*
X132057336Y-99357935D01*
X131993261Y-99512624D01*
X131993260Y-99512626D01*
X131900238Y-99651844D01*
X131781844Y-99770238D01*
X131642626Y-99863260D01*
X131642625Y-99863261D01*
X131642624Y-99863261D01*
X131487935Y-99927336D01*
X131323719Y-99960000D01*
X131156281Y-99960000D01*
X130992065Y-99927336D01*
X130837376Y-99863261D01*
X130837375Y-99863261D01*
X130837374Y-99863260D01*
X130698156Y-99770238D01*
X130579762Y-99651844D01*
X130486740Y-99512626D01*
X130486739Y-99512624D01*
X130422664Y-99357935D01*
X130390000Y-99193719D01*
X130390000Y-99026281D01*
X130422664Y-98862065D01*
X130486739Y-98707376D01*
X130486740Y-98707374D01*
X130579762Y-98568156D01*
X130698156Y-98449762D01*
X130837374Y-98356740D01*
X130837376Y-98356739D01*
X130992065Y-98292664D01*
X131156281Y-98260000D01*
X131323719Y-98260000D01*
X131487935Y-98292664D01*
X131487935Y-98292664D01*
G37*
G36*
X131487935Y-95752664D02*
G01*
X131642624Y-95816739D01*
X131642626Y-95816740D01*
X131781844Y-95909762D01*
X131900238Y-96028156D01*
X131993260Y-96167374D01*
X131993261Y-96167376D01*
X132057336Y-96322065D01*
X132090000Y-96486281D01*
X132090000Y-96653719D01*
X132057336Y-96817935D01*
X132034230Y-96873716D01*
X131993260Y-96972626D01*
X131900238Y-97111844D01*
X131781844Y-97230238D01*
X131642626Y-97323260D01*
X131642625Y-97323261D01*
X131642624Y-97323261D01*
X131487935Y-97387336D01*
X131323719Y-97420000D01*
X131156281Y-97420000D01*
X130992065Y-97387336D01*
X130837376Y-97323261D01*
X130837375Y-97323261D01*
X130837374Y-97323260D01*
X130698156Y-97230238D01*
X130579762Y-97111844D01*
X130486740Y-96972626D01*
X130445770Y-96873716D01*
X130422664Y-96817935D01*
X130390000Y-96653719D01*
X130390000Y-96486281D01*
X130422664Y-96322065D01*
X130486739Y-96167376D01*
X130486740Y-96167374D01*
X130579762Y-96028156D01*
X130698156Y-95909762D01*
X130837374Y-95816740D01*
X130837376Y-95816739D01*
X130992065Y-95752664D01*
X131156281Y-95720000D01*
X131323719Y-95720000D01*
X131487935Y-95752664D01*
X131487935Y-95752664D01*
G37*
G36*
X139107935Y-95752664D02*
G01*
X139262624Y-95816739D01*
X139262626Y-95816740D01*
X139401844Y-95909762D01*
X139520238Y-96028156D01*
X139613260Y-96167374D01*
X139613261Y-96167376D01*
X139677336Y-96322065D01*
X139710000Y-96486281D01*
X139710000Y-96653719D01*
X139677336Y-96817935D01*
X139654230Y-96873716D01*
X139613260Y-96972626D01*
X139520238Y-97111844D01*
X139401844Y-97230238D01*
X139262626Y-97323260D01*
X139262625Y-97323261D01*
X139262624Y-97323261D01*
X139107935Y-97387336D01*
X138943719Y-97420000D01*
X138776281Y-97420000D01*
X138612065Y-97387336D01*
X138457376Y-97323261D01*
X138457375Y-97323261D01*
X138457374Y-97323260D01*
X138318156Y-97230238D01*
X138199762Y-97111844D01*
X138106740Y-96972626D01*
X138065770Y-96873716D01*
X138042664Y-96817935D01*
X138010000Y-96653719D01*
X138010000Y-96486281D01*
X138042664Y-96322065D01*
X138106739Y-96167376D01*
X138106740Y-96167374D01*
X138199762Y-96028156D01*
X138318156Y-95909762D01*
X138457374Y-95816740D01*
X138457376Y-95816739D01*
X138612065Y-95752664D01*
X138776281Y-95720000D01*
X138943719Y-95720000D01*
X139107935Y-95752664D01*
X139107935Y-95752664D01*
G37*
G36*
X157112520Y-95434586D02*
G01*
X157276310Y-95502430D01*
X157423717Y-95600924D01*
X157549076Y-95726283D01*
X157609517Y-95816740D01*
X157647571Y-95873692D01*
X157715414Y-96037480D01*
X157750000Y-96211356D01*
X157750000Y-96388644D01*
X157715414Y-96562520D01*
X157647570Y-96726310D01*
X157549076Y-96873717D01*
X157423717Y-96999076D01*
X157276310Y-97097570D01*
X157276309Y-97097571D01*
X157276308Y-97097571D01*
X157112520Y-97165414D01*
X156938644Y-97200000D01*
X156761356Y-97200000D01*
X156587480Y-97165414D01*
X156423692Y-97097571D01*
X156423691Y-97097571D01*
X156423690Y-97097570D01*
X156276283Y-96999076D01*
X156150924Y-96873717D01*
X156052430Y-96726310D01*
X155984586Y-96562520D01*
X155950000Y-96388644D01*
X155950000Y-96211356D01*
X155984586Y-96037480D01*
X156052429Y-95873692D01*
X156090483Y-95816740D01*
X156150924Y-95726283D01*
X156276283Y-95600924D01*
X156423690Y-95502430D01*
X156587480Y-95434586D01*
X156761356Y-95400000D01*
X156938644Y-95400000D01*
X157112520Y-95434586D01*
X157112520Y-95434586D01*
G37*
G36*
X164912520Y-95434586D02*
G01*
X165076310Y-95502430D01*
X165223717Y-95600924D01*
X165349076Y-95726283D01*
X165409517Y-95816740D01*
X165447571Y-95873692D01*
X165515414Y-96037480D01*
X165550000Y-96211356D01*
X165550000Y-96388644D01*
X165515414Y-96562520D01*
X165447570Y-96726310D01*
X165349076Y-96873717D01*
X165223717Y-96999076D01*
X165076310Y-97097570D01*
X165076309Y-97097571D01*
X165076308Y-97097571D01*
X164912520Y-97165414D01*
X164738644Y-97200000D01*
X164561356Y-97200000D01*
X164387480Y-97165414D01*
X164223692Y-97097571D01*
X164223691Y-97097571D01*
X164223690Y-97097570D01*
X164076283Y-96999076D01*
X163950924Y-96873717D01*
X163852430Y-96726310D01*
X163784586Y-96562520D01*
X163750000Y-96388644D01*
X163750000Y-96211356D01*
X163784586Y-96037480D01*
X163852429Y-95873692D01*
X163890483Y-95816740D01*
X163950924Y-95726283D01*
X164076283Y-95600924D01*
X164223690Y-95502430D01*
X164387480Y-95434586D01*
X164561356Y-95400000D01*
X164738644Y-95400000D01*
X164912520Y-95434586D01*
X164912520Y-95434586D01*
G37*
G36*
X125099841Y-93782064D02*
G01*
X125112520Y-93784586D01*
X125276310Y-93852430D01*
X125423717Y-93950924D01*
X125549076Y-94076283D01*
X125647570Y-94223690D01*
X125647571Y-94223692D01*
X125685563Y-94315414D01*
X125715414Y-94387480D01*
X125750000Y-94561358D01*
X125750000Y-94738642D01*
X125715414Y-94912520D01*
X125647570Y-95076310D01*
X125549076Y-95223717D01*
X125423717Y-95349076D01*
X125276310Y-95447570D01*
X125276309Y-95447571D01*
X125276308Y-95447571D01*
X125112520Y-95515414D01*
X124938644Y-95550000D01*
X124761356Y-95550000D01*
X124587480Y-95515414D01*
X124423692Y-95447571D01*
X124423691Y-95447571D01*
X124423690Y-95447570D01*
X124276283Y-95349076D01*
X124150924Y-95223717D01*
X124052430Y-95076310D01*
X123984586Y-94912520D01*
X123950000Y-94738642D01*
X123950000Y-94561358D01*
X123984586Y-94387480D01*
X124014437Y-94315414D01*
X124052429Y-94223692D01*
X124052430Y-94223690D01*
X124150924Y-94076283D01*
X124276283Y-93950924D01*
X124423690Y-93852430D01*
X124587480Y-93784586D01*
X124600159Y-93782064D01*
X124761356Y-93750000D01*
X124938644Y-93750000D01*
X125099841Y-93782064D01*
X125099841Y-93782064D01*
G37*
G36*
X131487935Y-93212664D02*
G01*
X131642624Y-93276739D01*
X131642626Y-93276740D01*
X131781844Y-93369762D01*
X131900238Y-93488156D01*
X131993260Y-93627374D01*
X131993261Y-93627376D01*
X132057336Y-93782065D01*
X132090000Y-93946281D01*
X132090000Y-94113719D01*
X132057336Y-94277935D01*
X132027485Y-94350000D01*
X131993260Y-94432626D01*
X131900238Y-94571844D01*
X131781844Y-94690238D01*
X131642626Y-94783260D01*
X131642625Y-94783261D01*
X131642624Y-94783261D01*
X131487935Y-94847336D01*
X131323719Y-94880000D01*
X131156281Y-94880000D01*
X130992065Y-94847336D01*
X130837376Y-94783261D01*
X130837375Y-94783261D01*
X130837374Y-94783260D01*
X130698156Y-94690238D01*
X130579762Y-94571844D01*
X130486740Y-94432626D01*
X130452515Y-94350000D01*
X130422664Y-94277935D01*
X130390000Y-94113719D01*
X130390000Y-93946281D01*
X130422664Y-93782065D01*
X130486739Y-93627376D01*
X130486740Y-93627374D01*
X130579762Y-93488156D01*
X130698156Y-93369762D01*
X130837374Y-93276740D01*
X130837376Y-93276739D01*
X130992065Y-93212664D01*
X131156281Y-93180000D01*
X131323719Y-93180000D01*
X131487935Y-93212664D01*
X131487935Y-93212664D01*
G37*
G36*
X139107935Y-93212664D02*
G01*
X139262624Y-93276739D01*
X139262626Y-93276740D01*
X139401844Y-93369762D01*
X139520238Y-93488156D01*
X139613260Y-93627374D01*
X139613261Y-93627376D01*
X139677336Y-93782065D01*
X139710000Y-93946281D01*
X139710000Y-94113719D01*
X139677336Y-94277935D01*
X139647485Y-94350000D01*
X139613260Y-94432626D01*
X139520238Y-94571844D01*
X139401844Y-94690238D01*
X139262626Y-94783260D01*
X139262625Y-94783261D01*
X139262624Y-94783261D01*
X139107935Y-94847336D01*
X138943719Y-94880000D01*
X138776281Y-94880000D01*
X138612065Y-94847336D01*
X138457376Y-94783261D01*
X138457375Y-94783261D01*
X138457374Y-94783260D01*
X138318156Y-94690238D01*
X138199762Y-94571844D01*
X138106740Y-94432626D01*
X138072515Y-94350000D01*
X138042664Y-94277935D01*
X138010000Y-94113719D01*
X138010000Y-93946281D01*
X138042664Y-93782065D01*
X138106739Y-93627376D01*
X138106740Y-93627374D01*
X138199762Y-93488156D01*
X138318156Y-93369762D01*
X138457374Y-93276740D01*
X138457376Y-93276739D01*
X138612065Y-93212664D01*
X138776281Y-93180000D01*
X138943719Y-93180000D01*
X139107935Y-93212664D01*
X139107935Y-93212664D01*
G37*
G36*
X152462520Y-92584586D02*
G01*
X152626310Y-92652430D01*
X152773717Y-92750924D01*
X152899076Y-92876283D01*
X152997570Y-93023690D01*
X152997571Y-93023692D01*
X153065414Y-93187480D01*
X153100000Y-93361356D01*
X153100000Y-93538644D01*
X153065414Y-93712520D01*
X153007462Y-93852430D01*
X152997570Y-93876310D01*
X152899076Y-94023717D01*
X152773717Y-94149076D01*
X152626310Y-94247570D01*
X152626309Y-94247571D01*
X152626308Y-94247571D01*
X152462520Y-94315414D01*
X152288644Y-94350000D01*
X152111356Y-94350000D01*
X151937480Y-94315414D01*
X151773692Y-94247571D01*
X151773691Y-94247571D01*
X151773690Y-94247570D01*
X151626283Y-94149076D01*
X151500924Y-94023717D01*
X151402430Y-93876310D01*
X151392539Y-93852430D01*
X151334586Y-93712520D01*
X151300000Y-93538644D01*
X151300000Y-93361356D01*
X151334586Y-93187480D01*
X151402429Y-93023692D01*
X151402430Y-93023690D01*
X151500924Y-92876283D01*
X151626283Y-92750924D01*
X151773690Y-92652430D01*
X151937480Y-92584586D01*
X152111356Y-92550000D01*
X152288644Y-92550000D01*
X152462520Y-92584586D01*
X152462520Y-92584586D01*
G37*
G36*
X131487935Y-90672664D02*
G01*
X131642624Y-90736739D01*
X131642626Y-90736740D01*
X131781844Y-90829762D01*
X131900238Y-90948156D01*
X131946003Y-91016649D01*
X131993261Y-91087376D01*
X132057336Y-91242065D01*
X132090000Y-91406281D01*
X132090000Y-91573719D01*
X132057336Y-91737935D01*
X132009829Y-91852626D01*
X131993260Y-91892626D01*
X131900238Y-92031844D01*
X131781844Y-92150238D01*
X131642626Y-92243260D01*
X131642625Y-92243261D01*
X131642624Y-92243261D01*
X131487935Y-92307336D01*
X131323719Y-92340000D01*
X131156281Y-92340000D01*
X130992065Y-92307336D01*
X130837376Y-92243261D01*
X130837375Y-92243261D01*
X130837374Y-92243260D01*
X130698156Y-92150238D01*
X130579762Y-92031844D01*
X130486740Y-91892626D01*
X130470171Y-91852626D01*
X130422664Y-91737935D01*
X130390000Y-91573719D01*
X130390000Y-91406281D01*
X130422664Y-91242065D01*
X130486739Y-91087376D01*
X130533997Y-91016649D01*
X130579762Y-90948156D01*
X130698156Y-90829762D01*
X130837374Y-90736740D01*
X130837376Y-90736739D01*
X130992065Y-90672664D01*
X131156281Y-90640000D01*
X131323719Y-90640000D01*
X131487935Y-90672664D01*
X131487935Y-90672664D01*
G37*
G36*
X139107935Y-90672664D02*
G01*
X139262624Y-90736739D01*
X139262626Y-90736740D01*
X139401844Y-90829762D01*
X139520238Y-90948156D01*
X139566003Y-91016649D01*
X139613261Y-91087376D01*
X139677336Y-91242065D01*
X139710000Y-91406281D01*
X139710000Y-91573719D01*
X139677336Y-91737935D01*
X139629829Y-91852626D01*
X139613260Y-91892626D01*
X139520238Y-92031844D01*
X139401844Y-92150238D01*
X139262626Y-92243260D01*
X139262625Y-92243261D01*
X139262624Y-92243261D01*
X139107935Y-92307336D01*
X138943719Y-92340000D01*
X138776281Y-92340000D01*
X138612065Y-92307336D01*
X138457376Y-92243261D01*
X138457375Y-92243261D01*
X138457374Y-92243260D01*
X138318156Y-92150238D01*
X138199762Y-92031844D01*
X138106740Y-91892626D01*
X138090171Y-91852626D01*
X138042664Y-91737935D01*
X138010000Y-91573719D01*
X138010000Y-91406281D01*
X138042664Y-91242065D01*
X138106739Y-91087376D01*
X138153997Y-91016649D01*
X138199762Y-90948156D01*
X138318156Y-90829762D01*
X138457374Y-90736740D01*
X138457376Y-90736739D01*
X138612065Y-90672664D01*
X138776281Y-90640000D01*
X138943719Y-90640000D01*
X139107935Y-90672664D01*
X139107935Y-90672664D01*
G37*
G36*
X125197935Y-90632664D02*
G01*
X125352624Y-90696739D01*
X125352626Y-90696740D01*
X125491844Y-90789762D01*
X125610238Y-90908156D01*
X125682730Y-91016649D01*
X125703261Y-91047376D01*
X125767336Y-91202065D01*
X125800000Y-91366281D01*
X125800000Y-91533719D01*
X125767336Y-91697935D01*
X125741640Y-91759970D01*
X125703260Y-91852626D01*
X125610238Y-91991844D01*
X125491844Y-92110238D01*
X125352626Y-92203260D01*
X125352625Y-92203261D01*
X125352624Y-92203261D01*
X125197935Y-92267336D01*
X125033719Y-92300000D01*
X124866281Y-92300000D01*
X124702065Y-92267336D01*
X124547376Y-92203261D01*
X124547375Y-92203261D01*
X124547374Y-92203260D01*
X124408156Y-92110238D01*
X124289762Y-91991844D01*
X124196740Y-91852626D01*
X124158360Y-91759970D01*
X124132664Y-91697935D01*
X124100000Y-91533719D01*
X124100000Y-91366281D01*
X124132664Y-91202065D01*
X124196739Y-91047376D01*
X124217270Y-91016649D01*
X124289762Y-90908156D01*
X124408156Y-90789762D01*
X124547374Y-90696740D01*
X124547376Y-90696739D01*
X124702065Y-90632664D01*
X124866281Y-90600000D01*
X125033719Y-90600000D01*
X125197935Y-90632664D01*
X125197935Y-90632664D01*
G37*
G36*
X157133351Y-90480743D02*
G01*
X157278941Y-90541048D01*
X157409970Y-90628599D01*
X157521401Y-90740030D01*
X157608952Y-90871059D01*
X157669257Y-91016649D01*
X157700000Y-91171206D01*
X157700000Y-91328794D01*
X157669257Y-91483351D01*
X157608952Y-91628941D01*
X157521401Y-91759970D01*
X157409970Y-91871401D01*
X157278941Y-91958952D01*
X157133351Y-92019257D01*
X156978794Y-92050000D01*
X156821206Y-92050000D01*
X156666649Y-92019257D01*
X156521059Y-91958952D01*
X156390030Y-91871401D01*
X156278599Y-91759970D01*
X156191048Y-91628941D01*
X156130743Y-91483351D01*
X156100000Y-91328794D01*
X156100000Y-91171206D01*
X156130743Y-91016649D01*
X156191048Y-90871059D01*
X156278599Y-90740030D01*
X156390030Y-90628599D01*
X156521059Y-90541048D01*
X156666649Y-90480743D01*
X156821206Y-90450000D01*
X156978794Y-90450000D01*
X157133351Y-90480743D01*
X157133351Y-90480743D01*
G37*
G36*
X162133351Y-90480743D02*
G01*
X162278941Y-90541048D01*
X162409970Y-90628599D01*
X162521401Y-90740030D01*
X162608952Y-90871059D01*
X162669257Y-91016649D01*
X162700000Y-91171206D01*
X162700000Y-91328794D01*
X162669257Y-91483351D01*
X162608952Y-91628941D01*
X162521401Y-91759970D01*
X162409970Y-91871401D01*
X162278941Y-91958952D01*
X162133351Y-92019257D01*
X161978794Y-92050000D01*
X161821206Y-92050000D01*
X161666649Y-92019257D01*
X161521059Y-91958952D01*
X161390030Y-91871401D01*
X161278599Y-91759970D01*
X161191048Y-91628941D01*
X161130743Y-91483351D01*
X161100000Y-91328794D01*
X161100000Y-91171206D01*
X161130743Y-91016649D01*
X161191048Y-90871059D01*
X161278599Y-90740030D01*
X161390030Y-90628599D01*
X161521059Y-90541048D01*
X161666649Y-90480743D01*
X161821206Y-90450000D01*
X161978794Y-90450000D01*
X162133351Y-90480743D01*
X162133351Y-90480743D01*
G37*
G36*
X131487935Y-88132664D02*
G01*
X131642624Y-88196739D01*
X131642626Y-88196740D01*
X131781844Y-88289762D01*
X131900238Y-88408156D01*
X131993260Y-88547374D01*
X131993261Y-88547376D01*
X132057336Y-88702065D01*
X132090000Y-88866281D01*
X132090000Y-89033719D01*
X132057336Y-89197935D01*
X131993261Y-89352624D01*
X131993260Y-89352626D01*
X131900238Y-89491844D01*
X131781844Y-89610238D01*
X131642626Y-89703260D01*
X131642625Y-89703261D01*
X131642624Y-89703261D01*
X131487935Y-89767336D01*
X131323719Y-89800000D01*
X131156281Y-89800000D01*
X130992065Y-89767336D01*
X130837376Y-89703261D01*
X130837375Y-89703261D01*
X130837374Y-89703260D01*
X130698156Y-89610238D01*
X130579762Y-89491844D01*
X130486740Y-89352626D01*
X130486739Y-89352624D01*
X130422664Y-89197935D01*
X130390000Y-89033719D01*
X130390000Y-88866281D01*
X130422664Y-88702065D01*
X130486739Y-88547376D01*
X130486740Y-88547374D01*
X130579762Y-88408156D01*
X130698156Y-88289762D01*
X130837374Y-88196740D01*
X130837376Y-88196739D01*
X130992065Y-88132664D01*
X131156281Y-88100000D01*
X131323719Y-88100000D01*
X131487935Y-88132664D01*
X131487935Y-88132664D01*
G37*
G36*
X139107935Y-88132664D02*
G01*
X139262624Y-88196739D01*
X139262626Y-88196740D01*
X139401844Y-88289762D01*
X139520238Y-88408156D01*
X139613260Y-88547374D01*
X139613261Y-88547376D01*
X139677336Y-88702065D01*
X139710000Y-88866281D01*
X139710000Y-89033719D01*
X139677336Y-89197935D01*
X139613261Y-89352624D01*
X139613260Y-89352626D01*
X139520238Y-89491844D01*
X139401844Y-89610238D01*
X139262626Y-89703260D01*
X139262625Y-89703261D01*
X139262624Y-89703261D01*
X139107935Y-89767336D01*
X138943719Y-89800000D01*
X138776281Y-89800000D01*
X138612065Y-89767336D01*
X138457376Y-89703261D01*
X138457375Y-89703261D01*
X138457374Y-89703260D01*
X138318156Y-89610238D01*
X138199762Y-89491844D01*
X138106740Y-89352626D01*
X138106739Y-89352624D01*
X138042664Y-89197935D01*
X138010000Y-89033719D01*
X138010000Y-88866281D01*
X138042664Y-88702065D01*
X138106739Y-88547376D01*
X138106740Y-88547374D01*
X138199762Y-88408156D01*
X138318156Y-88289762D01*
X138457374Y-88196740D01*
X138457376Y-88196739D01*
X138612065Y-88132664D01*
X138776281Y-88100000D01*
X138943719Y-88100000D01*
X139107935Y-88132664D01*
X139107935Y-88132664D01*
G37*
G36*
X139107935Y-85592664D02*
G01*
X139262624Y-85656739D01*
X139262626Y-85656740D01*
X139401844Y-85749762D01*
X139520238Y-85868156D01*
X139613260Y-86007374D01*
X139613261Y-86007376D01*
X139677336Y-86162065D01*
X139710000Y-86326281D01*
X139710000Y-86493719D01*
X139677336Y-86657935D01*
X139613261Y-86812624D01*
X139613260Y-86812626D01*
X139520238Y-86951844D01*
X139401844Y-87070238D01*
X139262626Y-87163260D01*
X139262625Y-87163261D01*
X139262624Y-87163261D01*
X139107935Y-87227336D01*
X138943719Y-87260000D01*
X138776281Y-87260000D01*
X138612065Y-87227336D01*
X138457376Y-87163261D01*
X138457375Y-87163261D01*
X138457374Y-87163260D01*
X138318156Y-87070238D01*
X138199762Y-86951844D01*
X138106740Y-86812626D01*
X138106739Y-86812624D01*
X138042664Y-86657935D01*
X138010000Y-86493719D01*
X138010000Y-86326281D01*
X138042664Y-86162065D01*
X138106739Y-86007376D01*
X138106740Y-86007374D01*
X138199762Y-85868156D01*
X138318156Y-85749762D01*
X138457374Y-85656740D01*
X138457376Y-85656739D01*
X138612065Y-85592664D01*
X138776281Y-85560000D01*
X138943719Y-85560000D01*
X139107935Y-85592664D01*
X139107935Y-85592664D01*
G37*
G36*
X131487935Y-85592664D02*
G01*
X131642624Y-85656739D01*
X131642626Y-85656740D01*
X131781844Y-85749762D01*
X131900238Y-85868156D01*
X131993260Y-86007374D01*
X131993261Y-86007376D01*
X132057336Y-86162065D01*
X132090000Y-86326281D01*
X132090000Y-86493719D01*
X132057336Y-86657935D01*
X131993261Y-86812624D01*
X131993260Y-86812626D01*
X131900238Y-86951844D01*
X131781844Y-87070238D01*
X131642626Y-87163260D01*
X131642625Y-87163261D01*
X131642624Y-87163261D01*
X131487935Y-87227336D01*
X131323719Y-87260000D01*
X131156281Y-87260000D01*
X130992065Y-87227336D01*
X130837376Y-87163261D01*
X130837375Y-87163261D01*
X130837374Y-87163260D01*
X130698156Y-87070238D01*
X130579762Y-86951844D01*
X130486740Y-86812626D01*
X130486739Y-86812624D01*
X130422664Y-86657935D01*
X130390000Y-86493719D01*
X130390000Y-86326281D01*
X130422664Y-86162065D01*
X130486739Y-86007376D01*
X130486740Y-86007374D01*
X130579762Y-85868156D01*
X130698156Y-85749762D01*
X130837374Y-85656740D01*
X130837376Y-85656739D01*
X130992065Y-85592664D01*
X131156281Y-85560000D01*
X131323719Y-85560000D01*
X131487935Y-85592664D01*
X131487935Y-85592664D01*
G37*
G36*
X125197935Y-83632664D02*
G01*
X125352624Y-83696739D01*
X125352626Y-83696740D01*
X125491844Y-83789762D01*
X125610238Y-83908156D01*
X125640681Y-83953718D01*
X125703261Y-84047376D01*
X125767336Y-84202065D01*
X125800000Y-84366281D01*
X125800000Y-84533719D01*
X125767336Y-84697935D01*
X125758196Y-84720000D01*
X125703260Y-84852626D01*
X125610238Y-84991844D01*
X125491844Y-85110238D01*
X125352626Y-85203260D01*
X125352625Y-85203261D01*
X125352624Y-85203261D01*
X125197935Y-85267336D01*
X125033719Y-85300000D01*
X124866281Y-85300000D01*
X124702065Y-85267336D01*
X124547376Y-85203261D01*
X124547375Y-85203261D01*
X124547374Y-85203260D01*
X124408156Y-85110238D01*
X124289762Y-84991844D01*
X124196740Y-84852626D01*
X124141804Y-84720000D01*
X124132664Y-84697935D01*
X124100000Y-84533719D01*
X124100000Y-84366281D01*
X124132664Y-84202065D01*
X124196739Y-84047376D01*
X124259319Y-83953718D01*
X124289762Y-83908156D01*
X124408156Y-83789762D01*
X124547374Y-83696740D01*
X124547376Y-83696739D01*
X124702065Y-83632664D01*
X124866281Y-83600000D01*
X125033719Y-83600000D01*
X125197935Y-83632664D01*
X125197935Y-83632664D01*
G37*
G36*
X131487935Y-83052664D02*
G01*
X131642624Y-83116739D01*
X131642626Y-83116740D01*
X131781844Y-83209762D01*
X131900238Y-83328156D01*
X131993260Y-83467374D01*
X131993261Y-83467376D01*
X132057336Y-83622065D01*
X132090000Y-83786281D01*
X132090000Y-83953719D01*
X132057336Y-84117935D01*
X131993261Y-84272624D01*
X131993260Y-84272626D01*
X131900238Y-84411844D01*
X131781844Y-84530238D01*
X131642626Y-84623260D01*
X131642625Y-84623261D01*
X131642624Y-84623261D01*
X131487935Y-84687336D01*
X131323719Y-84720000D01*
X131156281Y-84720000D01*
X130992065Y-84687336D01*
X130837376Y-84623261D01*
X130837375Y-84623261D01*
X130837374Y-84623260D01*
X130698156Y-84530238D01*
X130579762Y-84411844D01*
X130486740Y-84272626D01*
X130486739Y-84272624D01*
X130422664Y-84117935D01*
X130390000Y-83953719D01*
X130390000Y-83786281D01*
X130422664Y-83622065D01*
X130486739Y-83467376D01*
X130486740Y-83467374D01*
X130579762Y-83328156D01*
X130698156Y-83209762D01*
X130837374Y-83116740D01*
X130837376Y-83116739D01*
X130992065Y-83052664D01*
X131156281Y-83020000D01*
X131323719Y-83020000D01*
X131487935Y-83052664D01*
X131487935Y-83052664D01*
G37*
G36*
X139107935Y-83052664D02*
G01*
X139262624Y-83116739D01*
X139262626Y-83116740D01*
X139401844Y-83209762D01*
X139520238Y-83328156D01*
X139613260Y-83467374D01*
X139613261Y-83467376D01*
X139677336Y-83622065D01*
X139710000Y-83786281D01*
X139710000Y-83953719D01*
X139677336Y-84117935D01*
X139613261Y-84272624D01*
X139613260Y-84272626D01*
X139520238Y-84411844D01*
X139401844Y-84530238D01*
X139262626Y-84623260D01*
X139262625Y-84623261D01*
X139262624Y-84623261D01*
X139107935Y-84687336D01*
X138943719Y-84720000D01*
X138776281Y-84720000D01*
X138612065Y-84687336D01*
X138457376Y-84623261D01*
X138457375Y-84623261D01*
X138457374Y-84623260D01*
X138318156Y-84530238D01*
X138199762Y-84411844D01*
X138106740Y-84272626D01*
X138106739Y-84272624D01*
X138042664Y-84117935D01*
X138010000Y-83953719D01*
X138010000Y-83786281D01*
X138042664Y-83622065D01*
X138106739Y-83467376D01*
X138106740Y-83467374D01*
X138199762Y-83328156D01*
X138318156Y-83209762D01*
X138457374Y-83116740D01*
X138457376Y-83116739D01*
X138612065Y-83052664D01*
X138776281Y-83020000D01*
X138943719Y-83020000D01*
X139107935Y-83052664D01*
X139107935Y-83052664D01*
G37*
M02*
